<svg id="Layer_3" xmlns="http://www.w3.org/2000/svg" viewBox="0 0 57 298">
   <path d="M38.52,220.24a45.78,45.78,0,0,0,.63,9.63c0.28,1.77.63,3.52,1,5.27s0.55,4.41,1.45,5.91a14.27,14.27,0,0,0,2.53,2.26,46.87,46.87,0,0,1,3.33,3.42,37.23,37.23,0,0,1,5.79,8.71c5.82,12.42,1.26,26.5-9.25,34.87-9.71,7.73-23.61,9.23-33.52,1-9.57-8-10.85-22.13-8.33-33.57a28.84,28.84,0,0,1,4-9.87c1.79-2.69,4.33-4.86,5.89-7.7a25.86,25.86,0,0,0,2.55-9.55c0.41-3.52.85-7,1.25-10.55,0-.46-0.75-0.47-0.8,0-0.39,3.39-.83,6.77-1.21,10.16-0.42,3.79-1.07,7.75-3.28,11-1.74,2.53-4,4.61-5.62,7.25a28.54,28.54,0,0,0-3.2,7.87c-2.94,11.43-2,25.61,6.81,34.31,18.76,18.48,50.71-2.29,48-26.38-0.79-6.94-4.35-13.27-9-18.36-1.44-1.58-3.26-2.85-4.67-4.43s-1.72-4.68-2.19-6.73a65.18,65.18,0,0,1-1.79-14.36,0.14,0.14,0,0,0-.28,0h0Z"/>
   <path d="M39,221.19c0.48-.24.72-0.1,0.9-0.62a0.21,0.21,0,0,0-.11-0.28h0a39.87,39.87,0,0,0-8.58-2.45c-0.2,0-.33.27-0.1,0.33,1.61,0.41,3.22.81,4.8,1.33,0.8,0.26,1.63.49,2.41,0.81,0.43,0.18,1.09.21,0.51,0.51a0.22,0.22,0,0,0,.21.39h0Z"/>
   <path d="M38.7,220.11a1.47,1.47,0,0,0,1.3-1.36,3.17,3.17,0,0,0-1.14-2.08,10.66,10.66,0,0,0-2.79-2,3.71,3.71,0,0,0-2.51-.62,0.17,0.17,0,0,0,0,.32,14.15,14.15,0,0,0,1.86.76,11.39,11.39,0,0,1,2.25,1.41c0.93,0.75,2.45,2.33.93,3.34-0.15.1,0,.25,0.15,0.2h0Z"/>
   <path d="M38.79,216.54a2.76,2.76,0,0,0-1-3.61,9.24,9.24,0,0,0-1.91-.53c-0.94-.23-1.73-0.72-2.63-1-0.1,0-.3.08-0.21,0.2,0.74,1,2.33,1.28,3.47,1.6A2.72,2.72,0,0,1,38,214c0.61,0.75.29,1.77,0.57,2.61a0.15,0.15,0,0,0,.28,0h0Z"/>
   <path d="M15.77,220.51a4.43,4.43,0,0,1,.25-1.63c0.32-.36,1.41-0.17,1.87-0.18a8.83,8.83,0,0,0,3.33-.57c0.19-.08.09-0.29-0.1-0.28-1.74.17-3.45,0.35-5.2,0.46a0.22,0.22,0,0,0-.25.22,8.1,8.1,0,0,1-.14,2,0.11,0.11,0,0,0,.22,0h0Z"/>
   <path d="M29.88,217.32c-3.78.56-7.66-.72-11.29,0.79a0.16,0.16,0,0,0,.1.3c3.75-1.06,7.5,0,11.25-.73a0.18,0.18,0,0,0-.06-0.36h0Z"/>
   <path d="M29.89,216.58c-2.71-2.6-8-.33-10.6,1.3-0.19.12,0,.33,0.19,0.25,2.6-1.16,7.44-3.6,9.94-1.22,0.23,0.22.73-.09,0.47-0.34h0Z"/>
   <path d="M16.39,219.4c-0.38-1.06-1.93-3.25-1.26-4.22a9.82,9.82,0,0,1,3.4-2.56c0.18-.11,0-0.3-0.15-0.28-1.79.22-3,1.79-4.23,3a0.24,0.24,0,0,0,0,.27c0.61,1.32,1.19,2.66,1.81,4a0.25,0.25,0,0,0,.46-0.19h0Z"/>
   <path d="M15.54,215.88A33.22,33.22,0,0,1,19,213.5,36.37,36.37,0,0,1,23,211.88a0.15,0.15,0,0,0,0-.28c-2.89-.07-5.55,2.33-7.65,4-0.22.17,0.07,0.4,0.26,0.26h0v0Z"/>
   <path d="M15,212.91a16.61,16.61,0,0,1,7.9-2.28c0.18,0,.24-0.22,0-0.25-2.93-.43-5.69.76-8.15,2.25-0.21.13,0,.39,0.22,0.29h0Z"/>
   <path d="M15,214.39c0.92-.46.9-1.68,0.93-2.57a1.42,1.42,0,0,1,.26-1.07,6.26,6.26,0,0,1,1.62-.8A13.22,13.22,0,0,0,20,208.61c0.17-.13,0-0.32-0.18-0.24-1.47.64-2.86,1.45-4.29,2.18a0.25,0.25,0,0,0-.16.19c0,0.74.26,2.93-.55,3.37a0.16,0.16,0,1,0,.12.3l0,0h0Z"/>
   <path d="M37.87,213.76c0.07-1.42-.06-3.06-1.21-4a8.24,8.24,0,0,0-4.22-1.63c-0.16,0-.29.18-0.13,0.29,1.09,0.78,2.64.75,3.77,1.54s1.29,2.48,1.38,3.87c0,0.21.41,0.17,0.42,0h0v-0.07Z"/>
   <path d="M36.76,208.88c-1.54-.83-3.53-2-5.33-2-0.19,0-.3.23-0.09,0.31,1.73,0.68,3.53,1.21,5.22,2,0.16,0.07.4-.13,0.2-0.24h0v-0.07Z"/>
   <path d="M35.9,209C36,209,36,209,35.9,209s-0.08.08,0,.08h0Z"/>
   <path d="M35,207.42c-2.77-1.86-3.27-5.43-3.93-8.45,0-.13-0.28-0.12-0.28,0,0,2.87,1.26,7.25,4.07,8.59,0.11,0.05.26-.08,0.13-0.16h0v0Z"/>
   <path d="M31.64,200.64a18.86,18.86,0,0,1-9.64-.59c-0.26-.09-0.49.29-0.18,0.39a17,17,0,0,0,9.86.41c0.16,0,.13-0.25,0-0.22h0Z"/>
   <path d="M22.44,201c-0.88,3.26-3.78,5.05-5.91,7.44-0.12.13,0.11,0.26,0.22,0.17,2.48-2.13,5.26-4.28,6.12-7.59,0.06-.24-0.37-0.24-0.43,0h0v0Z"/>
   <path d="M17.56,210a44.15,44.15,0,0,0,6.51-8.29c0.1-.17-0.2-0.24-0.3-0.12-2.3,2.66-4,5.7-6.51,8.25-0.16.17,0.16,0.3,0.29,0.17h0Z"/>
   <path d="M35.8,212c-2.25-1.19-5.7-1.17-8.16-1a0.14,0.14,0,0,0,0,.27c2.48,0.22,5.6-.15,7.88,1,0.22,0.11.54-.19,0.28-0.33h0V212Z"/>
   <path d="M36.39,211.65c-1.43-2.14-5.31-1.45-7.45-1.33-0.24,0-.33.34,0,0.35,2,0.08,5.73-.72,7,1.17,0.15,0.21.62,0,.46-0.19h0Z"/>
   <path d="M37,217.41a1.26,1.26,0,0,0,.64-0.27,0.2,0.2,0,0,0,0-.28l0,0c-0.66-.75-3.42-0.8-4.31-1a31.42,31.42,0,0,0-8.7-.7c-0.17,0-.24.24,0,0.25a55.7,55.7,0,0,1,8.1.83c0.71,0.15,3.34,1.19,4.08.88-0.27.11-.06,0.39,0.18,0.32h0Z"/>
   <path d="M36.34,218.54c-2.53-1.56-5.55-1.58-8.41-1.93-0.17,0-.28.24-0.09,0.28,2.72,0.6,5.7.59,8.13,2.08,0.28,0.17.69-.22,0.36-0.42h0Z"/>
   <path d="M1,264.79c3-6.33,5.06-12.83,9.71-18.24,0.1-.11-0.1-0.18-0.18-0.1-5.14,4.81-6.91,12.07-9.79,18.26-0.07.15,0.2,0.21,0.26,0.07H1Z"/>
   <path d="M2.83,258.8a29.47,29.47,0,0,1,4.58-7.15c0.23-.28-0.23-0.55-0.45-0.34A44,44,0,0,0,3,255.68c-0.15.18,0.15,0.29,0.28,0.16a36.33,36.33,0,0,0,4.11-5.19c0.2-.29-0.21-0.55-0.45-0.34-0.91.79-3.84,3.21-3.86,3.82,0-.63,1.82-2.31,2.24-2.83q1-1.24,2-2.45a130.19,130.19,0,0,1,9.73-10c0.2-.19-0.16-0.37-0.33-0.25C11,242.74,6.17,248.83,2.26,254.67c-0.09.14,0.1,0.26,0.22,0.16,1.64-1.35,3.1-2.94,4.85-4.15l-0.45-.34a31.15,31.15,0,0,0-3.1,4.4c-0.47,1,.54-0.14.87-0.51a30.14,30.14,0,0,1,2.68-2.55l-0.45-.34a27.69,27.69,0,0,0-4.42,7.35c-0.09.21,0.27,0.28,0.35,0.1h0Z"/>
   <path d="M46.58,282.71c-3.14,3.57-7.08,5.31-11.22,7.46-0.14.07,0,.22,0.1,0.18,3.85-1.25,9.42-3.67,11.29-7.56a0.1,0.1,0,0,0-.17-0.07h0Z"/>
   <path d="M36.45,290c2.66-1,4.34-3.26,5.69-5.67,1.49-2.65,3.17-6.07,3.47-9.14a0.21,0.21,0,0,0-.4-0.07c-2.29,5.1-3.12,12-8.85,14.73-0.12.06,0,.2,0.08,0.15h0Z"/>
   <path d="M47.36,283.26c0.69-3.49,1.22-8.16,0-11.58-0.06-.17-0.34-0.06-0.33.1,0,2,.39,4,0.35,6.1,0,1.79-.24,3.57-0.37,5.35,0,0.23.35,0.22,0.39,0h0Z"/>
   <path d="M46.08,283.55A18.83,18.83,0,0,0,48.15,278c0-.24-0.31-0.25-0.43-0.12a24.22,24.22,0,0,0-3.18,4.63,21.16,21.16,0,0,0-1.84,2.92c-0.08.25,0.26,0.34,0.4,0.17a35.52,35.52,0,0,0,4.64-7c0.18-.36-0.42-0.51-0.62-0.26a20.7,20.7,0,0,0-2.21,3.82c-0.32.7-.62,1.41-0.94,2.1-0.12.27-1.27,2.54-.58,1.51,1-1.53,1.52-3.91,2.18-5.64,0.77-2,1.56-4,2.39-6,0.15-.37-0.43-0.45-0.59-0.17-1.37,2.45-1.89,5.8-3.66,8-0.78,1,.43-1.71.59-2.14,0.28-.78.59-1.54,0.89-2.31a33.37,33.37,0,0,0,1.38-3.94c0-.16-0.25-0.18-0.3,0A65.81,65.81,0,0,0,43,283a0.16,0.16,0,0,0,.28.08c1.88-2.83,2.85-6.12,4.67-9L47.36,274c-1.71,4.31-3.23,8.7-4.89,13-0.09.23,0.28,0.29,0.37,0.11,1.44-2.82,2.73-6,4.85-8.39l-0.62-.26a50.1,50.1,0,0,1-3.15,5.26c-1,1.37-1,2.41.24,0.35,0.9-1.51,1.64-3.52,2.91-4.73,0.91-.86.39-0.57,0.28,0.25a12.9,12.9,0,0,1-1.62,3.91c-0.11.2,0.25,0.27,0.35,0.1h0Z"/>
   <path d="M43.9,246.83c6.87,1.06,9.1,9.89,11.65,15.22,0.06,0.12.29,0,.23-0.1-2.14-5.38-4.89-14.7-11.85-15.28a0.08,0.08,0,1,0-.06.15h0Z"/>
   <path d="M44.29,244.34c7.56,6.69,7.25,18.18,7.5,27.43,0,0.11.23,0.09,0.23,0,0.26-9.37.24-21-7.5-27.59-0.12-.1-0.37,0-0.24.17h0Z"/>
   <path d="M50.26,252.78C52,258.2,54.57,263.26,55,269c0,0.15.28,0.1,0.28,0-0.22-5.85-2.67-10.92-4.75-16.28,0-.13-0.33-0.06-0.29.08h0v0Z"/>
   <path d="M52.91,273.86c1.58,3.32-1.31,6.94-3.37,9.33-1.89,2.2-4,4.14-6,6.24-0.15.16,0.14,0.27,0.27,0.15,3.65-3.39,12.47-10,9.61-15.93-0.12-.26-0.63-0.07-0.49.21h0Z"/>
   <path d="M14.56,291.58c-4.14-2.49-7.08-5.85-8.27-10.6,0-.13-0.27-0.09-0.24,0,0.94,4.92,4,8.36,8.23,10.9,0.22,0.14.55-.18,0.29-0.34h0v0Z"/>
   <path d="M13.19,290c-6.13-.85-8.27-8.94-9.1-14.06,0-.2-0.38-0.13-0.36.06,0.4,5.47,3,13.69,9.4,14.44a0.22,0.22,0,0,0,.06-0.44h0Z"/>
   <path d="M4.76,283.93c-5.52-5.26-4.35-14.87-3.43-21.67,0-.2-0.29-0.18-0.33,0a32.25,32.25,0,0,0-.77,11.82c0.37,3.64,1.35,7.64,4.34,10,0.1,0.08.31,0,.2-0.14h0Z"/>
   <path d="M29.78,217.8c3.21,7.86,1.3,16.66,2.66,24.86,0.7,4.25,2,8.46,2.18,12.79,0,0.92.31,1.6-.53,2a1.26,1.26,0,0,1-1.59-.35,4.71,4.71,0,0,1-1.38-2.26,8.42,8.42,0,0,1-.18-4.61l-0.56.1a6.47,6.47,0,0,1,.75,2.51c0.12,0.87.33,5.29-2.2,3.15-1.22-1-1-4.56-1-6a0.28,0.28,0,0,0-.55,0c0,1.32.15,4.21-1.48,4.15-1.29,0-1-.9-1.15-2.08a31.65,31.65,0,0,1-.07-3.79H24.16c0.1,1.65,0,4.87-1.4,6q-0.45,1.24-.85-0.25a6.55,6.55,0,0,1-.17-1.13,28.57,28.57,0,0,1,0-3.41,0.28,0.28,0,0,0-.54-0.09,23.16,23.16,0,0,1-3,5l0.5,0.14c1.63-12.41,7.61-23.82,9.12-36.24,0.06-.46-0.74-0.46-0.8,0-1.82,12.37-7.25,23.85-8.88,36.26a0.28,0.28,0,0,0,.5.14,23.56,23.56,0,0,0,3-5.05l-0.54-.09c0,2.12-.15,4.16.77,6.12a0.3,0.3,0,0,0,.42.06l0.06-.06a9.88,9.88,0,0,0,2.29-7.42c0-.26-0.53-0.22-0.52,0a22.62,22.62,0,0,0,1,7.61,0.26,0.26,0,0,0,.33.09c2.22-1.09,2.4-3.69,2.43-5.92H27.33c0,1.71-.21,7.68,2.78,7.27,2.73-.38,1.69-5.63.76-7.12a0.31,0.31,0,0,0-.56.1c-0.74,3.27.31,8.53,4.59,8a0.32,0.32,0,0,0,.27-0.24c0.48-6.93-2.33-13.64-2.7-20.53-0.35-6.57.51-13.71-2.49-19.79-0.07-.13-0.31,0-0.25.11h0Z"/>
   <path d="M13.59,240a28.74,28.74,0,0,1,2.22-4c0.77-1.13,1.75-2.12,2.49-3.26a0.16,0.16,0,1,0-.26-0.19c-2.13,1.86-3.66,4.78-4.82,7.31-0.1.22,0.28,0.29,0.36,0.1h0v0Z"/>
   <path d="M14.13,239.31a25.77,25.77,0,0,1,2.51-4.5c0.14-.23-0.3-0.37-0.43-0.18a12.79,12.79,0,0,1-1.8,2.06c-0.41-.69,1.64-3.06,2.06-3.51,1.57-1.69,3.62-2.76,5.31-4.31a0.17,0.17,0,0,0-.2-0.27c-3.32,1.85-7,4.67-7.57,8.64,0,0.15.19,0.15,0.27,0.08a29,29,0,0,0,2.33-2.45l-0.4-.23a20.66,20.66,0,0,0-2.52,4.55c-0.1.27,0.35,0.36,0.44,0.13h0Z"/>
   <path d="M15.47,231.27c0.09-3.77,1.27-7.14,2.15-10.76,0-.23-0.33-0.24-0.41-0.07a27.21,27.21,0,0,0-2.36,10.79,0.32,0.32,0,0,0,.63,0h0v0Z"/>
   <path d="M38,219.53c0.13,1.27-3.53,2.08-4.39,2.34a16.9,16.9,0,0,0-4,1.5c-0.21.13,0,.33,0.2,0.27,2-.68,4.12-1.14,6.12-1.93,0.88-.35,2.75-1,2.48-2.25a0.19,0.19,0,0,0-.36.06h0Z"/>
   <path d="M25.94,222.52c-3.9.12-7.76-.06-9.62-4.09-0.07-.15-0.37-0.07-0.33.1,1,4.37,6.18,5.26,10,4.45,0.27-.06.32-0.47,0-0.46H25.94Z"/>
   <path d="M31.08,220.55a8,8,0,0,0-4.39-.73l0,0.37a21.2,21.2,0,0,0,3.57-.22l-0.14-.41c-0.83.26-1.67,0.48-2.5,0.75a0.21,0.21,0,0,0,0,.4,6.21,6.21,0,0,0,3-.21,0.26,0.26,0,0,0,.06-0.47c-1.12-.62-1.84-1.24-3.16-1.24l-0.06.44c1.09,0,2.16-.19,3.24-0.2,0.29,0,.54-0.42.16-0.52a5.33,5.33,0,0,0-3.73.3,0.22,0.22,0,0,0,.07.42c1,0.16,2,.36,3,0.49l0.06-.43a25.78,25.78,0,0,0-6.56.56,0.16,0.16,0,0,0,0,.31c2.18,0,4.38-.29,6.56-0.45,0.33,0,.25-0.44-0.07-0.42a6.72,6.72,0,0,1-2.86-.5v0.41a5.87,5.87,0,0,1,3.27-.2l0.16-.52c-1.09.06-2.16,0.26-3.26,0.3-0.3,0-.41.4-0.06,0.44a7.3,7.3,0,0,1,2.84,1.26l0.06-.47a5,5,0,0,1-2.52.29v0.4c0.83-.26,1.67-0.48,2.5-0.75,0.28-.09.13-0.46-0.14-0.41a18.9,18.9,0,0,1-3.43.28c-0.26,0-.35.36,0,0.37a9.75,9.75,0,0,1,4.11.77c0.27,0.14.67-.23,0.34-0.41h0Z"/>
   <path d="M27.44,220a38,38,0,0,0-3.81,0,0.15,0.15,0,0,0,0,.31,36.86,36.86,0,0,0,3.74,0c0.28,0,.37-0.39.06-0.39h0V220Z"/>
   <path d="M19.52,222.87c-2.52-1.68-1-4.22,1-5.52,0.16-.1,0-0.28-0.16-0.22-2.52,1.09-3.62,4.33-1,6,0.17,0.11.42-.13,0.22-0.26H19.52Z"/>
   <path d="M14.93,216.26c0.1-2.51,1.59-4.43,2.39-6.72,0.06-.18-0.21-0.27-0.3-0.13a13.82,13.82,0,0,0-2.63,6.82,0.27,0.27,0,0,0,.54,0h0v0Z"/>
   <path d="M14.77,214.27a71.88,71.88,0,0,1,2.56-8.47c0.07-.23-0.25-0.27-0.35-0.1A27.63,27.63,0,0,0,14,214.23c-0.08.41,0.65,0.42,0.72,0h0v0Z"/>
   <path d="M17.4,207.57a15.18,15.18,0,0,1,7.35-6.65,0.19,0.19,0,0,0-.12-0.35,11,11,0,0,0-7.71,6.87c-0.1.31,0.35,0.38,0.49,0.14h0Z"/>
   <path d="M35.94,207.31c-2.13-.23-3-3-3.6-4.63a0.21,0.21,0,0,0-.37.07c-0.13,2,1.76,4.93,3.91,5,0.28,0,.36-0.36.06-0.39h0v-0.05Z"/>
   <path d="M31.27,202.27c-1.71-.51-3.6-1.13-5.4-0.74-0.27.06-.32,0.45,0,0.45a18.43,18.43,0,0,1,5.17.76c0.32,0.09.59-.36,0.22-0.47h0Z"/>
   <path d="M28.48,200.87c-2.41-4.19-2.09-9.75-1.9-14.41s0.54-9.57.49-14.39c-0.14-13.88-1.28-27.74-1.5-41.62-0.23-14.23.37-28.47,0.77-42.69A378.67,378.67,0,0,0,25.63,47a233.27,233.27,0,0,1-.93-24c0.18-7.56.55-15.14-.46-22.66C24.15-.25,23,0,23.09.58c1,7.11.66,14.29,0.49,21.44a203.5,203.5,0,0,0,.57,20.35c0.52,6.93,1.19,13.85,1.41,20.79,0.22,7.2,0,14.43-.17,21.63C25,98.87,24.47,113,24.62,127.05s1.26,28.05,1.54,42.09c0.12,6-.24,11.95-0.43,18-0.14,4.57-.36,10,2.12,14,0.19,0.31.84,0.08,0.64-.27h0Z"/>
</svg>