<svg id="Layer_3" xmlns="http://www.w3.org/2000/svg" viewBox="0 0 98.11 265.65">
   <path d="M29.94,138.13c-2.68,7.7-.45,16.53.07,24.42,0,0.34.68,0.28,0.69,0,0.25-8.11-1.69-16.2.09-24.24,0.1-.45-0.72-0.52-0.85-0.14h0v0Z"/>
   <path d="M31.51,139.56c-2.23,6.94-3.14,14.39-4.15,21.58,0,0.35.53,0.34,0.6,0,1.6-7.1,2.78-14.37,3.94-21.55a0.2,0.2,0,0,0-.38-0.06h0v0Z"/>
   <path d="M28.75,157.94c-2.69,7.54-7.28,14-10.77,21.1-0.15.31,0.37,0.39,0.51,0.15,4-6.67,9.19-13.39,10.79-21.16,0.06-.28-0.45-0.33-0.53-0.09h0Z"/>
   <path d="M19.23,174.88C9.4,185.67,3.43,200.34.75,214.56c-0.09.49,0.73,0.46,0.85,0,4-14.39,9.45-27.24,18.32-39.33,0.33-.44-0.38-0.72-0.68-0.39h0v0Z"/>
   <path d="M5.8,195.55C1.28,199.9.61,207.13,0.45,213.13c-0.18,6.53.29,13.59,3.1,19.58,0.14,0.29.76,0.14,0.66-.2a66,66,0,0,1-2.43-18.68c0-5.87.51-13.31,4.64-17.9,0.33-.37-0.33-0.62-0.61-0.35h0v0Z"/>
   <path d="M3.78,230.75c0.88,8.78,7.92,16.54,13.92,22.49,0.07,0.07.24,0,.15-0.11-5.84-6.05-13-13.68-13.91-22.41,0-.09-0.18-0.06-0.17,0h0v0Z"/>
   <path d="M5.38,237.07c3.42,10.59,13.7,19.32,23.93,23.15,0.34,0.13.78-.37,0.38-0.58-9.83-5.15-19.62-12-23.76-22.73-0.1-.25-0.63-0.11-0.54.16h0Z"/>
   <path d="M28.33,260.65c1.86,2,6.2,2.91,9.05,3.73a43.41,43.41,0,0,0,13.35,1.17c10-.34,21.54-2.54,29.3-9.38,0.48-.42-0.15-0.88-0.6-0.6a57.41,57.41,0,0,1-32.3,8.78,42.35,42.35,0,0,1-11.72-1.74,49.86,49.86,0,0,0-7.32-2.09,0.26,0.26,0,0,0-.21.45h0c0.22,0.14.61-.13,0.39-0.36h0v0Z"/>
   <path d="M77.84,257c6.48,2.65,12-10.38,13.79-14.36,3.22-7.33,8-18.56,6-26.76-0.09-.36-0.79-0.34-0.78,0,0.1,7.44-2.42,15.32-5,22.21-2.19,6.06-6.11,18.06-13.85,18.49-0.25,0-.41.3-0.13,0.41h0Z"/>
   <path d="M96.92,220.42c-0.09-17-6.74-33.22-16.14-47.21-0.1-.14-0.4,0-0.3.13,8.76,14.87,15.82,29.48,16.18,47.1,0,0.13.27,0.11,0.27,0h0v0Z"/>
   <path d="M97.82,215.45C97.2,196.22,87.91,176.13,74,162.87c-0.11-.11-0.36,0-0.23.17C87,177.52,96.69,195.56,97.56,215.5c0,0.14.27,0.1,0.26,0h0v0Z"/>
   <path d="M77.63,169.13a62.71,62.71,0,0,1-9.43-30c0-.13-0.27-0.11-0.27,0-0.13,10.78,3.5,21.21,9.42,30.15,0.09,0.14.38,0,.28-0.12h0v0Z"/>
   <path d="M74.66,162.27c-3-3.48-3.55-9.26-4.27-13.6-0.79-4.67-1.21-9.4-2-14.07-0.06-.36-0.75-0.32-0.75,0a90.22,90.22,0,0,0,2,16.52c0.59,3.06,1.21,9.92,4.42,11.61,0.32,0.17.86-.16,0.56-0.51h0Z"/>
   <path d="M31.59,137.71c10.25-6.41,21.22-6.64,32.11-1.77,0.49,0.22,1.2-.35.62-0.73-9.86-6.64-24.12-5-33.43,1.82-0.6.43,0.18,1,.69,0.69h0Z"/>
   <path d="M35.65,138.13c9.1-6.34,20.53-5.86,30.88-3.56,0.53,0.12,1-.54.37-0.78-9.94-4-23.34-2.88-32,3.62-0.61.46,0.19,1.1,0.73,0.73h0Z"/>
   <path d="M34,136.54c0.58,5.45,9.65,6.58,13.84,7,0.36,0,.59-0.47.18-0.6-3.94-1.22-12-1.58-13.19-6.52a0.43,0.43,0,0,0-.83.15h0v0Z"/>
   <path d="M32.9,140.82c3.3,0.56,6.6,1.19,9.9,1.75,0.35,0.06.68-.39,0.25-0.53a52.1,52.1,0,0,0-10-1.86c-0.39,0-.65.57-0.2,0.65h0Z"/>
   <path d="M53.3,144c6-1.06,13.49-1.58,16.44-7.87,0.17-.37-0.43-0.52-0.63-0.26-4.27,5.39-9.72,5.82-15.93,7.46-0.49.13-.4,0.77,0.12,0.68h0Z"/>
   <path d="M54.43,143.54c3.23,0.59,7.29-2,9-4.64,0.27-.41-0.26-0.67-0.6-0.45-2.56,1.68-4.86,4.5-8.21,4.38-0.41,0-.74.62-0.22,0.71h0Z"/>
   <path d="M28.88,136.56c0.48-1.15,1.13-2.24,1.52-3.47a10.42,10.42,0,0,0,.56-4.36l-0.53.62a22.1,22.1,0,0,1,2.92-.55c1-.09,1.93.06,2.88-0.08a0.33,0.33,0,0,0,.18-0.6c-1.61-1.08-4.47-.21-6.16.22a0.6,0.6,0,0,0-.53.62c0.33,2.53-.84,5.14-1.53,7.5-0.11.36,0.56,0.41,0.68,0.11h0Z"/>
   <path d="M30.12,135.69c1.4-1.39,1.79-4.18,1.42-6-0.06-.31-0.54-0.23-0.6,0-0.26,1.13-.39,2.27-0.63,3.4a7.55,7.55,0,0,1-.64,2.32c-0.2.3,0.24,0.46,0.44,0.25h0v0Z"/>
   <path d="M31.7,130.55c-0.26-2.18,18.47-4.13,20.59-4,0.43,0,.71-0.56.22-0.71C49.77,125,29.87,127,30.8,130.76a0.47,0.47,0,0,0,.91-0.16h0v-0.05Z"/>
   <path d="M40.17,125.61c7.83-.37,15.25-0.48,22.83,1.75,0.36,0.11.79-.35,0.39-0.61-6.4-4-16-2.71-23.2-1.88-0.46.05-.5,0.76,0,0.73h0Z"/>
   <path d="M57.54,125.49c3.1-1.77,6.79,4.92,8.42,6.71,0.25,0.27.84,0,.67-0.38-1.38-3-5.59-9.57-9.59-6.83-0.45.31,0.13,0.71,0.5,0.5h0Z"/>
   <path d="M68.16,136.68c-1-1.9,1.21-4.41,1.31-6.39,0.14-2.78-3-4.24-5.37-4.27-0.5,0-1.18.75-.49,1,1.35,0.59,3.5.71,4.17,2.26,0.44,1-.07,2.25-0.43,3.23-0.55,1.49-1.49,3.33-.21,4.7,0.37,0.39,1.32,0,1-.57h0Z"/>
   <path d="M69.31,129.13a8.7,8.7,0,0,0-4.7-4.21c-0.37-.13-0.75.34-0.38,0.59,1.66,1.17,3.33,2.08,4.37,3.91,0.2,0.36.91,0.1,0.71-.3h0Z"/>
   <path d="M32.19,130.13a11.68,11.68,0,0,1,.66-5,5.47,5.47,0,0,1,1.47-2c0.78-.63,1.7-0.57,2.53-1,0.27-.15.48-0.56,0.1-0.74-1.8-.89-4.1.89-4.89,2.45a10.11,10.11,0,0,0-.85,6.53c0.12,0.55,1,.36,1-0.17h0Z"/>
   <path d="M32.21,123.29a7.57,7.57,0,0,1,2.07-.64q1.76-.52,3.52-1a25.33,25.33,0,0,0,5.9-1.91,0.42,0.42,0,0,0-.27-0.77c-2.57.1-5.2,1.17-7.66,1.9-1.08.32-4.13,0.75-4.67,2-0.29.64,0.77,0.95,1.11,0.46h0v0Z"/>
   <path d="M68.1,128.63c-1-2.25,1-3.68,2.66-4.73a0.57,0.57,0,0,0-.18-1c-1.7-.52-3.36-1.12-5-1.73-1.46-.53-3-1.34-4.6-1.27-0.3,0-.88.42-0.47,0.73a14,14,0,0,0,4.15,1.66c1.79,0.62,3.58,1.25,5.41,1.77l-0.18-1c-2.21,1.41-4.26,3.38-2.73,6,0.28,0.49,1.23.16,1-.42H68.1Z"/>
   <path d="M68.1,124a26.84,26.84,0,0,0-13.76-7.69c-0.44-.08-1.07.45-0.51,0.78,2.11,1.25,4.5,2,6.69,3.13a34.24,34.24,0,0,1,6.6,4.48c0.48,0.41,1.5-.13,1-0.7h0Z"/>
   <path d="M31.93,122.78c1.52-1.15,1.89-2.9,2.37-4.65a7.19,7.19,0,0,1,1.32-3c1-1.12,2.5-1.37,3.86-1.77,0.38-.11.22-0.56-0.11-0.6a5.33,5.33,0,0,0-5.64,3.12c-0.93,2.12-.76,4.64-2.35,6.46-0.29.34,0.26,0.62,0.54,0.41h0v0Z"/>
   <path d="M35.15,116.13c2.89-2.56,10.9-4.91,10.45-9.81,0-.44-0.69-0.32-0.85,0a14.6,14.6,0,0,1-1.82,3.1,15.36,15.36,0,0,1-3.11,2.41,28.13,28.13,0,0,0-5.38,3.81c-0.4.41,0.35,0.85,0.71,0.54h0v-0.05Z"/>
   <path d="M46.13,106H46l0.27,0.77c-0.3.27-.12,0.06,0.27,0.15a5.47,5.47,0,0,0,1.15,0h2.8c1.77,0,3.79.58,5.53,0.3a0.35,0.35,0,0,0,.26-0.57c-1.31-1.38-4.77-.92-6.48-0.92-0.93,0-3.54-.35-4.28.45a0.42,0.42,0,0,0,.36.69H46c0.6,0,.83-0.83.13-0.87h0Z"/>
   <path d="M56.71,108a13.35,13.35,0,0,0,5.73,6.76c0.3,0.18.81-.16,0.52-0.48-1.94-2.13-4.1-4-5.11-6.76-0.22-.62-1.38-0.19-1.14.48h0Z"/>
   <path d="M58.71,111c1.49,2.31,4,3.53,6.22,5a11.27,11.27,0,0,1,3.74,3.34,6.19,6.19,0,0,1,.51,1q0.57,0.73-.18.86a8,8,0,0,1-2.21,1.83c-0.66.45,0.19,1.13,0.76,0.76,1-.63,2.7-1.75,2.81-2.93s-1.06-2.59-1.85-3.39c-2.71-2.75-6.62-3.79-9.1-6.85-0.23-.28-0.91,0-0.68.38h0Z"/>
   <path d="M69.5,124.37c0-2.27.31-6.26-2.07-7.52a0.44,0.44,0,0,0-.67.48,18.88,18.88,0,0,1,1.4,3.19,20.77,20.77,0,0,1,.26,3.8c0,0.62,1.08.63,1.08,0.05h0Z"/>
   <path d="M30.77,122.31c4.07-.1,8.66-1.8,12.29-3.54a0.29,0.29,0,0,0-.19-0.55h0c-3.92,1.08-7.94,3.42-12,3.67-0.29,0-.4.43-0.06,0.43h0Z"/>
   <path d="M32.75,121.5c3.75-2,8.29-2.64,12.46-3.16a0.28,0.28,0,0,0,0-.56,22.19,22.19,0,0,0-7.59,1A13.62,13.62,0,0,0,32.36,121a0.34,0.34,0,0,0,.41.54h0Z"/>
   <path d="M30.53,129.13c3.55-1.82,8-2.51,12-2.78a0.26,0.26,0,0,0,0-.53c-4.11-.14-8.86.53-12.45,2.67-0.45.27,0.06,0.84,0.47,0.63h0Z"/>
   <path d="M30.28,138.18c2.9-2.6,6.67-4.17,10.11-5.91a0.33,0.33,0,0,0-.22-0.63,25.42,25.42,0,0,0-10.75,5.89c-0.48.48,0.43,1,.86,0.65h0Z"/>
   <path d="M44.3,141.23c2.81-2.64,5.89-2.86,9.46-3.53a0.34,0.34,0,0,0,0-.68c-3.76-.6-7.76,1.11-10.42,3.66-0.55.52,0.5,1,1,.55h0Z"/>
   <path d="M48.09,138a8.46,8.46,0,0,1-3-1.38l-0.62.73a33.06,33.06,0,0,0,9.55,1.45l0.16-1.06a35.68,35.68,0,0,0-6.91.46c-0.56.11-.78,0.84-0.15,1a14.52,14.52,0,0,0,6.13.67c0.29,0,.44-0.5.08-0.56a43.37,43.37,0,0,1-5.73-1.13l-0.15,1a37.71,37.71,0,0,1,6.56-.44c0.75,0,1-1.06.16-1.06a41.41,41.41,0,0,1-9.3-1.24c-0.49-.12-1.06.44-0.52,0.81a15.63,15.63,0,0,0,3.32,1.27c0.34,0.13.77-.4,0.37-0.57h0V138Z"/>
   <path d="M54.47,144.42a12.37,12.37,0,0,1,6.91-2.73,0.29,0.29,0,1,0,0-.58h0a9.5,9.5,0,0,0-7.64,2.75c-0.42.41,0.37,0.9,0.74,0.56h0Z"/>
   <path d="M44,143.13c-1.48-.44-3-0.9-4.41-1.44a37.69,37.69,0,0,0-4.13-1.56c-0.3-.07-0.9.3-0.52,0.61,2.27,1.89,5.88,2.59,8.66,3.36,0.64,0.18,1.19-.72.44-0.94h0Z"/>
   <path d="M8.31,224.21a3.66,3.66,0,0,0-.9-1.37c-0.06-.07-0.25,0-0.22.09,3.18,11.26,14.5,20.72,23.82,27,0.11,0.08.34-.09,0.21-0.19a144.62,144.62,0,0,1-12.78-10.9A58.85,58.85,0,0,1,8.11,224.29c0.05,0.1.26,0,.2-0.08h0Z"/>
   <path d="M29.54,254.46C23,248.13,24,238,20.19,230.22c-0.07-.14-0.39-0.07-0.34.1,1.54,4.87,2.64,9.87,4.18,14.74,1.09,3.45,2.34,7.31,5.35,9.55,0.09,0.06.25-.06,0.16-0.15h0Z"/>
   <path d="M7,227.06c-2.3-.89.5,0.29,1.43,0.49a33.54,33.54,0,0,0,4.58.61,70.43,70.43,0,0,0,9.68,0,0.11,0.11,0,1,0,0-.23c-6.14-.35-11.94.1-17.9-1.83-0.16-.05-0.38.18-0.18,0.28a22.41,22.41,0,0,0,2.39.85c0.12,0,.21-0.12.08-0.17H7Z"/>
   <path d="M7.32,229.45A40.21,40.21,0,0,0,15,239.77c0.08,0.07.24,0,.16-0.11A45,45,0,0,1,7.6,229.33c-0.07-.14-0.36,0-0.28.12h0Z"/>
   <path d="M24.55,247.32C18.72,242.2,14.33,235.75,9,230.13c-0.16-.16-0.5,0-0.33.24,3.92,4.69,8.81,8.25,13.52,12.09,0.12,0.1.37,0,.23-0.17-3.85-4-7.2-8.4-11.67-11.73-0.13-.1-0.42.06-0.31,0.23,3.25,5,8.55,8.27,13.54,11.28,0.15,0.09.45-.1,0.28-0.26-4.69-4.28-9-9-13.87-13.05-0.21-.18-0.65.09-0.41,0.29a72.26,72.26,0,0,0,11.75,7.64c0.16,0.09.48-.1,0.3-0.27-2.13-2.14-5.15-4.42-6.71-7-1-1.71,1,.33,1.56.73,1.36,0.92,2.67,1.94,4,2.92,0.12,0.09.36-.09,0.22-0.2a38.42,38.42,0,0,0-7.16-5c-0.2-.11-0.55.1-0.35,0.32q2.41,2.74,5,5.34c1.25,1.28,4,3.22.43,1.18-0.68-.4-7.66-4.82-7.5-5-0.54.6,2.81,3.13,3.67,3.95,1.67,1.57,3.29,3.18,4.94,4.77a28.28,28.28,0,0,1,2.9,2.76c0.53,0.71-.56-0.47-1-0.74-1.77-1.12-3.5-2.29-5.16-3.57-0.49-.38-5.18-3.89-4.88-4.6,0.08-.19,7.67,7.5,8.41,8.33,2.53,2.86-1.91-1.45-2.46-1.9-1.7-1.4-3.38-2.83-5-4.35-0.53-.5-4.65-5.13-2.47-2.12,1.24,1.71,2.91,3.23,4.29,4.84a97.86,97.86,0,0,0,9.76,10.3s0.12,0,.08-0.06h0Z"/>
   <path d="M7,217.53c-5.56-9.2,5.38-23.6,10.18-31.15,0.19-.3-0.37-0.45-0.55-0.23C11,193.35.25,208.51,6.12,217.91c0.27,0.43,1.17.1,0.88-.37H7Z"/>
   <path d="M7.32,218.13c-1.59-7.62,2.74-15.83,6-22.44s7.68-12.85,10.6-19.64c0.16-.37-0.44-0.45-0.6-0.17-4.2,7.18-8.52,14.39-12.11,21.9-2.87,6-6.42,13.65-4.51,20.44,0.09,0.33.7,0.23,0.63-.11h0v0Z"/>
   <path d="M10.5,202.76c-0.45-1,1.22-3.08,1.67-3.81,1.23-1.94,2.63-3.78,4-5.62a67.05,67.05,0,0,0,5.53-7.84c0.19-.34-0.44-0.53-0.62-0.26-2.38,3.62-5.32,6.88-7.82,10.43-1.06,1.5-4.51,5.31-3.47,7.39,0.18,0.36.88,0.1,0.7-.29h0Z"/>
   <path d="M67.91,168.89c3.75,4.6,8.09,8.69,12.17,13,0.09,0.09.29,0,.19-0.14-3.89-4.48-8.32-8.45-12.07-13.06-0.13-.16-0.44,0-0.3.21h0Z"/>
   <path d="M86.14,188c-5.06-5.68-8.37-12.92-13.89-18.19-2.92-2.79.72,1,1.3,1.6,1.25,1.19,2.45,2.45,3.64,3.7,3.18,3.35,6.3,6.71,9.64,9.9,0.06,0.06.23,0,.17-0.09-5.27-7.19-9.11-15.51-15.24-22-0.1-.11-0.34,0-0.23.16a87.06,87.06,0,0,1,7.73,10.82c0.63,1,6.7,9.34,6.45,9.81,0.14-.25-5.73-6.15-6.41-6.9a88.07,88.07,0,0,0-9.29-9c-0.17-.14-0.53.08-0.33,0.24,6.72,5.6,10.44,13.71,16.2,20.17,0.11,0.13.39,0,.26-0.18h0v0Z"/>
   <path d="M47.5,140c-1.37,9.73-2.38,19.49-4,29.18,0,0.33.5,0.32,0.57,0A184.25,184.25,0,0,0,48.19,140c0-.42-0.67-0.42-0.72,0h0Z"/>
   <path d="M52.33,139c-1.63.25,1.94,12.46,2.28,13.9,1.53,6.35,3.68,12.55,5.35,18.87q1.44,5.43,2.49,10.95c0.19,1,.4,2,0.6,3.07,0.63,3.21,1.3,3.93-2.12,5.54s-4,.86-5.63-2.35c-0.37-.73-1.77-3.54-1.13-4.53q-0.36-2.27,1.68.36a5.13,5.13,0,0,1,.69,2.65,5.84,5.84,0,0,1-1.08,4.4c-2.64,2.88-3.93.5-3.68-2.24s0.49-2,.13,0-0.51,4.55-2.76,4.77-1.69-2.55-1.53-4.73c0-.73.31-4.67,0.74-2.16a7.83,7.83,0,0,1-.72,4.22c-1.08,2.49-1.17,2.57-3.75,1.76-3-1-2.57-1.77-2.44-5A74.86,74.86,0,0,1,45,169.77c0.08-.27-0.36-0.36-0.44-0.12a75.55,75.55,0,0,0-3.42,16.83c-0.21,2.31-1,7.41,1.53,8.89,4.94,2.89,6.59-7.19,6-10a0.26,0.26,0,0,0-.48,0,17.19,17.19,0,0,0,0,11.83,0.27,0.27,0,0,0,.38.06h0c3.5-3.05,4.42-7.85,4.13-12.32,0-.22-0.41-0.2-0.47,0-1.1,3.25-.92,6.16-0.46,9.54a0.23,0.23,0,0,0,.27.16c5.72-1,6.81-8.75,2.35-12a0.27,0.27,0,0,0-.37.11l0,0.05c-1,3.81,1.47,10.4,5.93,11,4.83,0.62,4.28-4.86,3.67-7.92-0.49-2.46-11.81-46.33-11.13-46.45a0.13,0.13,0,0,0,.07-0.25H52.37Z"/>
   <path d="M51.27,106.64c-2.39-3.08-.2-9.47.19-12.93a115.15,115.15,0,0,0,.2-15.8c-0.25-9.64-.41-19.26-0.35-28.91,0.11-16.12.32-32.25,0.33-48.37,0-.83-1.43-0.83-1.43-0.07,0,17.4-.27,34.8-0.35,52.19,0,11,.62,22,0.61,33,0,4.81-.64,9.35-1.09,14.12-0.22,2.33-.76,5.65,1.4,7.23,0.28,0.2.71-.15,0.48-0.44h0v0Z"/>
   <path d="M4.4,235c0.58,4,3.53,7.24,6.3,9.95a109.17,109.17,0,0,0,10.56,8.68h0c-3.23-2.5-6.51-5-9.51-7.74S5.09,239.4,4.42,235H4.35Z"/>
   <path d="M27.37,257.67c-4.8-1.93-8.41-6.13-12.22-9.48a44.52,44.52,0,0,1-9.51-12.45H5.58a43.16,43.16,0,0,0,10,13c3.68,3.2,7.09,7.13,11.72,9h0Z"/>
   <path d="M5.2,235c3.06,6.84,9.63,11.15,15.27,15.68h0c-5.6-4.56-12.2-8.87-15.29-15.66h0Z"/>
   <path d="M4.54,226.13c-0.41-.95-0.22-2.72-0.3-3.74-0.21-2.5-.39-5-0.57-7.5-0.31-4.29-.18-8.8-0.86-13,0-.13-0.23-0.1-0.25,0a25,25,0,0,0,.16,4.93q0.28,4.31.58,8.66c0.19,2.57.39,5.15,0.62,7.72,0.06,0.68-.09,2.47.43,3a0.11,0.11,0,0,0,.19-0.11h0v0Z"/>
   <path d="M5.51,221c-1.55-1.25-1-4.3-.79-6,0.25-2.2.38-4.37,0.46-6.58A105.44,105.44,0,0,1,6.9,190.7c0-.13-0.2-0.13-0.23,0-1.9,6.71-1.63,13.91-1.94,20.82-0.11,2.43-1.81,7.9.61,9.63,0.08,0.06.25-.07,0.16-0.14h0v0Z"/>
   <path d="M5,206.83c-1,.25.08-2.4,0.24-2.85,0.38-1.09.82-2.15,1.28-3.2,0.94-2.16,1.95-4.29,2.76-6.5,1.6-4.33,3-8.6,5.46-12.56,0.08-.12-0.15-0.19-0.22-0.09-2.77,3.68-4,8.27-5.6,12.54s-4,8.39-4.83,13a0.14,0.14,0,0,0,.13.15h0l0.78-.2c0.18,0,.14-0.29,0-0.24H5v0Z"/>
   <path d="M6.94,203.79c-0.65-3.68,2.88-7.73,4.6-10.72,2.71-4.72,4.64-9.74,7.69-14.28,0.08-.13-0.11-0.21-0.19-0.11-3.56,4.41-5.25,9.88-8.1,14.71-1.72,2.91-5,6.82-4.3,10.45C6.64,204,7,204,7,203.79h0Z"/>
   <path d="M6.12,203.93c-0.76.51,0-.48,0.13-0.84s0.49-1,.76-1.51a36.84,36.84,0,0,1,2-3.34c1.45-2.29,3-4.51,4.42-6.83,2.77-4.63,4.8-9.68,7.4-14.41,0.06-.1-0.13-0.13-0.18-0.05-3,5-5.11,10.49-8.22,15.43-1.45,2.31-3,4.53-4.42,6.87-0.56.94-2.87,4-2.41,5.17a0.15,0.15,0,0,0,.21,0l0.47-.29c0.14-.1,0-0.24-0.16-0.16h0v0Z"/>
   <path d="M9.5,207.51c-0.84.63-.91,0.82-0.5-0.1A33.94,33.94,0,0,1,11.17,204c1.5-2.47,3-5,4.42-7.47,3-5.11,6.11-10.1,9.5-14.95,0.08-.11-0.1-0.18-0.17-0.09-6.48,8.38-11.38,18-16.86,27.06-0.05.09,0.1,0.13,0.15,0.09,0.43-.37.89-0.66,1.34-1,0,0,0-.09-0.06-0.06h0v0Z"/>
   <path d="M3.47,210c-3.47.16,1.34,19.16,2.43,21.51a0.12,0.12,0,0,0,.21-0.09c-0.84-2.19-5.35-21.07-2.67-21.2,0.15,0,.21-0.23,0-0.22h0Z"/>
   <path d="M8.72,234.73c-1.31.73,4.47,6.83,5,7.43a68.56,68.56,0,0,0,17.9,14.19h0a68.8,68.8,0,0,1-16.73-13c-0.82-.86-7.28-7.84-6.19-8.45a0,0,0,1,0,0-.09h0Z"/>
   <path d="M33.2,138.13c-0.51.18-.7-6-0.77-6.63,0-.17-0.32-0.14-0.34,0a9.16,9.16,0,0,0-.17,2.56c0.22,1.19.1,0.75,0.28,0.05a17.74,17.74,0,0,0,0-3.13c0-.4-0.12-1.91.39-1,0,0.07.18,0,.14-0.06a8.37,8.37,0,0,1-.34-0.81c0-.12-0.24-0.06-0.26,0a32,32,0,0,0-.21,6.27,0.15,0.15,0,0,0,.3,0,26.57,26.57,0,0,0,.09-3c-0.11-1-.19-0.64-0.15.06,0.06,1.16.07,2.32,0.16,3.47,0,0.43,0,2.6,1,2.26,0.1,0,0-.16-0.07-0.13h0Z"/>
   <path d="M32.78,133.28a4,4,0,0,0,.17,1.19,0.09,0.09,0,0,0,.18,0,11.38,11.38,0,0,0,.19-2.81V130.3c0-.3-0.18-0.55-0.16-0.14,0,0.06.13,0.05,0.13,0v-0.23a0.08,0.08,0,0,0-.15,0c-0.08.73,0,1.48-.07,2.21,0,0.51,0,1,0,1.52a4.23,4.23,0,0,1,0,.59,0.56,0.56,0,0,1,0,.17,3.88,3.88,0,0,0-.06-1.14c0-.06-0.12,0-0.12,0H32.78Z"/>
   <path d="M33,134.29c0.46,0.41.8-.45,0.94-0.77a26.19,26.19,0,0,1,1.3-3.55c0-.05-0.07-0.09-0.1,0a8.62,8.62,0,0,0-.86,2.16c-0.08.24-.69,2.57-1.22,2.15H33Z"/>
   <path d="M32.6,133.49c0-.24,3.09-1,3.36-1.1,1.31-.37,2.63-0.71,4-1,0.11,0,.13-0.19,0-0.18a22.33,22.33,0,0,0-5,1.2c-0.35.11-2.6,0.56-2.59,1.08,0,0.14.29,0.12,0.29,0H32.6Z"/>
   <path d="M31.61,133.07c-0.18-.66,7.92-1.78,8.5-1.86,0.1,0,.1-0.16,0-0.15a53,53,0,0,0-7,1.11c-0.43.08-2,.18-1.76,1,0,0.15.31,0.1,0.27,0h0v-0.1Z"/>
   <path d="M33.7,126.89a0.7,0.7,0,0,0-.26.27,4.78,4.78,0,0,0,.63-0.51,21.91,21.91,0,0,1,2-2c1.25-1,2.63-1.94,3.94-2.9,0.11-.08,0-0.19-0.13-0.13a30.62,30.62,0,0,0-4.38,3c-0.66.57-2.31,1.8-2.21,2.76a0.2,0.2,0,0,0,.25.13h0a2.29,2.29,0,0,0,.43-0.37c0.22-.15-0.06-0.38-0.25-0.25h0Z"/>
   <path d="M34,125.85c0-.92,2.91-1.57,3.54-1.74a19,19,0,0,1,3.55-.72,0.09,0.09,0,1,0,0-.18,14.09,14.09,0,0,0-4.75,1c-0.62.21-2.69,0.73-2.68,1.66,0,0.19.34,0.19,0.33,0h0v0Z"/>
   <path d="M38.64,125.49a12.32,12.32,0,0,1-2.3.76l0.16,0.3a6.74,6.74,0,0,1,3.61-1,0.12,0.12,0,0,0,0-.23,5.72,5.72,0,0,0-3.87,1,0.17,0.17,0,0,0,.16.3,12.87,12.87,0,0,0,2.4-.8,0.18,0.18,0,0,0-.17-0.31h0v0Z"/>
   <path d="M36.76,137.85c-1-1,7.65-3.51,8.47-3.66a38.35,38.35,0,0,1,10.33-.42,0.1,0.1,0,1,0,0-.19h0a32.06,32.06,0,0,0-12,.55,26.49,26.49,0,0,0-5.21,1.81c-0.7.33-2.4,0.84-2.5,1.69a0.18,0.18,0,0,0,.1.18l0.43,0.32c0.18,0.18.58-.06,0.38-0.27h0Z"/>
   <path d="M38.59,136.88c-1-.22.29-0.09,0.71-0.13,0.71-.08,1.41-0.23,2.11-0.37,1.53-.3,3-0.67,4.56-1a24.71,24.71,0,0,1,10.93-.25c0.12,0,.24-0.14.09-0.19-6.61-1.86-12.91,1-19.46,1.72a0.14,0.14,0,0,0,0,.27l1,0.19c0.17,0,.33-0.21.12-0.26h0Z"/>
   <path d="M52.86,142.45c5-.42,9-6,6.91-10.77,0-.08-0.2,0-0.17.05a8.15,8.15,0,0,1-6.8,10.4c-0.24,0-.18.33,0,0.31h0Z"/>
   <path d="M54.82,142.66c3.09-.8,7.49-3.52,8.32-6.82,0-.13-0.19-0.14-0.23,0-1.3,3-5,5.69-8.15,6.52-0.25.07-.19,0.4,0.06,0.34h0v0Z"/>
   <path d="M58,143c3.08-.29,6.63-2.86,6.36-6.25,0-.11-0.22-0.09-0.22,0C64,140,61,142.42,57.91,142.72c-0.24,0-.18.33,0,0.31h0Z"/>
   <path d="M66.19,141.08c-1.22,2.06-4,2.13-6.13,2.48-0.14,0-.15.23,0,0.22,2.22,0,5.28-.45,6.44-2.61,0.1-.18-0.23-0.24-0.32-0.09h0Z"/>
   <path d="M20.24,181.85c-0.1-2,2.75-4.47,4-5.79,1.64-1.7,3.38-3.3,5.12-4.89,0.11-.1,0-0.22-0.14-0.14a45.39,45.39,0,0,0-6,5.59c-1.13,1.23-3.48,3.38-3.28,5.28,0,0.15.27,0.1,0.27,0h0Z"/>
   <path d="M20,185.28a3.29,3.29,0,0,0-.47.45l0.35,0.1c0.17-.77,1.41-1.68,1.92-2.26q1-1.1,1.91-2.21c1.27-1.49,2.54-3,3.77-4.51,0.11-.13-0.12-0.22-0.21-0.12-1.55,1.69-3,3.46-4.51,5.2-0.7.82-1.4,1.63-2.12,2.43a3.88,3.88,0,0,0-1.15,1.46c0,0.2.26,0.19,0.35,0.1l0.41-.38c0.21-.14-0.06-0.36-0.24-0.24h0v0Z"/>
   <path d="M21.28,189.57c1.49-2.81,3.94-4.87,6-7.24,0.12-.14-0.13-0.24-0.23-0.13-2.22,2.27-4.65,4.42-6.15,7.26-0.12.22,0.28,0.3,0.38,0.11h0Z"/>
   <path d="M22.84,171c2,0.05,4.65-2.86,5.49-4.47,2.1-4.05,1.66-9,2.1-13.46,0-.15-0.23-0.15-0.26,0-0.67,3.37-.42,6.86-1.16,10.22a9.54,9.54,0,0,1-2.82,5.38c-0.72.64-2.33,2.13-3.32,2.12-0.15,0-.2.21,0,0.21h0Z"/>
   <path d="M29.85,162.91c3-5.78,2.59-13.29,3.12-19.62a0.13,0.13,0,0,0-.25,0c-1,6.5-.38,13.43-3.15,19.56-0.08.17,0.21,0.22,0.28,0.08h0v0Z"/>
   <path d="M67.19,139.35c0,6,1.56,11.77,2.37,17.66,0,0.12.24,0.08,0.22,0-0.53-5.92-2.17-11.68-2.33-17.64,0-.13-0.27-0.11-0.27,0h0v0Z"/>
   <path d="M71.37,164.35c-2.23-2.35-2.32-6-3.08-9-1-3.82-2.46-7.51-3.44-11.34,0-.07-0.15-0.05-0.14,0,0.89,4.26,2.58,8.3,3.49,12.55,0.57,2.7.91,5.84,2.93,7.9,0.11,0.12.37,0,.24-0.18h0v0.07Z"/>
   <path d="M64.75,143.13C66,151,67.5,159.3,72.59,165.67h0.06c-4.92-6.48-6.58-14.64-7.83-22.51H64.76v0Z"/>
   <path d="M74,167.56c-1.47-.38-2.08-2.54-2.62-3.76a35.23,35.23,0,0,1-1.73-5.08c-0.78-2.86-1.39-5.76-2.29-8.59H67.29c1.13,3.78,1.84,7.68,3.12,11.41a32.33,32.33,0,0,0,1.94,4.59A2.06,2.06,0,0,0,74,167.58h0v0Z"/>
   <path d="M72.06,157a3.9,3.9,0,0,0-1.38-.6,0.06,0.06,0,0,0-.07,0h0c0.63,8.13,6.52,14.94,10.4,21.75h0.07c-1.95-3.56-4.27-6.91-6.26-10.44a42.49,42.49,0,0,1-2.72-5.59,23,23,0,0,1-1.1-3.39c-0.18-.85-0.52-2.59,1-1.71,0,0,.12,0,0.06-0.07h0Z"/>
   <path d="M78.74,173.23a3.55,3.55,0,0,0-.79-1s-0.12,0-.08.06c4.5,5.12,9.37,10,12.35,16.25h0.07a39.35,39.35,0,0,0-5.22-8.19C84,179,82.85,177.7,81.7,176.41L80,174.47c-0.19-.21-1.93-2.15-1.31-1.2h0.09Z"/>
   <path d="M69.6,157.56c-1.73-6-2-12.16-3.32-18.22a0.14,0.14,0,0,0-.27,0c0.64,6,1.12,12.59,3.35,18.25,0,0.11.27,0,.24-0.07h0v0Z"/>
   <path d="M67.06,142.64c-3.22-4.45,1.41-11-1.56-15.48-0.07-.1-0.33-0.07-0.28.08,1,3.12.59,6.14,0.43,9.35-0.11,2.06-.29,4.54,1.18,6.18,0.08,0.09.32,0,.24-0.13h0Z"/>
   <path d="M66.53,134.43c-0.31-3.09.72-6.92-3.08-8.1-0.11,0-.25.12-0.12,0.18,3.48,1.68,2.49,4.79,2.83,8,0,0.2.39,0.14,0.37-.07h0Z"/>
   <path d="M66,129.26c-3.13-2.35-7.06-2.65-10.86-2.52-0.12,0-.16.17,0,0.17,3.75,0.15,7.55.27,10.7,2.57,0.14,0.1.34-.1,0.19-0.22h0Z"/>
   <path d="M51.48,117c4.3-.84,8.71,3.59,11.66,6.19,0.07,0.06.23,0,.15-0.11-2.93-2.82-7.37-7.23-11.85-6.36a0.14,0.14,0,0,0,0,.28h0Z"/>
   <path d="M66.87,126.53c-4.16-4.11-9.53-7.88-15.35-9.05-0.19,0-.35.21-0.13,0.28a36.49,36.49,0,0,1,15.21,9c0.13,0.12.42,0,.27-0.19h0v0Z"/>
   <path d="M69.07,124.54c-1.76-1.59,0-4.52-1.83-6.23-0.8-.75-2-1-2.85-1.73a15.61,15.61,0,0,1-2.59-3c-1.91-2.67-4.31-7.6-8.16-7.62-0.15,0-.24.18-0.07,0.25,4.47,1.63,6.13,5.91,9,9.32,1.22,1.44,2.53,1.83,4,2.92,2.28,1.72.15,4.6,2.16,6.38,0.18,0.16.56-.07,0.35-0.26h0v0Z"/>
   <path d="M36.7,118.72c-0.9.72,0.7-1.19,0.92-1.4a26.33,26.33,0,0,1,3.43-2.7c2-1.39,4.11-2.62,6-4.19,0.1-.09,0-0.2-0.13-0.13-3.76,2.77-8.78,4.87-11.23,9-0.07.12,0.1,0.16,0.18,0.14a1.57,1.57,0,0,0,1-.62c0.11-.09,0-0.21-0.14-0.13h0Z"/>
   <path d="M46.12,164.93c-2.59,1.34-1.6,4.64-1.42,7,0,0.1.2,0.08,0.2,0,0.08-2.21-1.12-5.43,1.32-6.77a0.11,0.11,0,0,0-.06-0.21l0,0h0v0Z"/>
   <path d="M44.5,172.13c1.57-5,2-10.4,2.56-15.61,0.61-5.56,1.65-10.89,2.77-16.35,0-.14-0.22-0.16-0.27,0-1.89,4.83-2.27,10.36-2.82,15.47-0.6,5.56-1.36,11-2.44,16.5,0,0.1.17,0.12,0.2,0h0Z"/>
   <path d="M46.8,142.8c1,0.88,6.59,3,6.14.07,0-.12-0.2-0.08-0.22,0-0.59,2.23-4.42.79-5.62-.3-0.15-.14-0.47.06-0.3,0.22h0Z"/>
   <path d="M52,143.31s0.06-.06,0-0.06-0.06.06,0,.06h0Z"/>
   <path d="M51.25,143.59a6,6,0,0,1-4.37-.25l-0.14.3c2,0.28,4,.77,6,0a0.13,0.13,0,0,0,0-.24c-2.23-1.37-4.59-1.13-7.08-1.62-0.14,0-.41.13-0.24,0.28,2,1.87,5.08,2.11,7.63,1.57a0.12,0.12,0,1,0,0-.23c-2.54.17-5.23,0.23-7.26-1.57l-0.19.29c1.81,0.22,3.75,0,5.5.62,0.71,0.23,1.25.44,0.47,0.91a3.82,3.82,0,0,1-1.81,0c-1-.06-2-0.25-2.94-0.35-0.15,0-.33.22-0.14,0.3a6.82,6.82,0,0,0,4.64.14c0.12,0,.09-0.19,0-0.16H51.25Z"/>
   <path d="M52.84,143.77c-5.94,0-10.76-2.42-15.39-5.9-0.13-.1-0.37.08-0.24,0.22,3.75,4.16,10.16,6,15.6,5.88,0.14,0,.18-0.2,0-0.19h0Z"/>
   <path d="M42.58,141a0.61,0.61,0,0,0-.39.21,0.12,0.12,0,0,0,0,.1c0.33,1,3.09,1.1,3.94,1.31,3,0.74,6.47,1.83,9.52.55a0.11,0.11,0,0,0-.07-0.21h0a21.11,21.11,0,0,1-9.18-.69c-0.57-.14-1.14-0.25-1.71-0.37-0.14,0-2-.66-2-0.68s0-.26-0.11-0.21h0Z"/>
   <path d="M46.43,138.62c-1.28-.24-0.7-0.94.69-0.91a9,9,0,0,1,3.4.84c0.23,0.1.58-.21,0.3-0.35s-2.92-1.1-1-.58c1.24,0.33,2.59.46,3.85,0.74,0.25,0.06.46-.29,0.17-0.36L53,137.63c-0.17-.09-0.43,0-0.35.25A4,4,0,0,0,55,140.3c0.14,0.06.39,0,.36-0.2a4.32,4.32,0,0,0-.83-2.24c-0.13-.17-0.53,0-0.39.22,0.46,0.62,1,1.33,1.43,1.94,0.07,0.1.32,0.1,0.32-.06a7.13,7.13,0,0,0-.89-3.83,0.26,0.26,0,0,0-.44,0c-0.27.78-.53,1.56-0.8,2.35-0.08.24,0.22,0.35,0.39,0.22a8.76,8.76,0,0,1,4.19-1.57,0.14,0.14,0,0,0,0-.28,12.16,12.16,0,0,0-3.21.7,0.69,0.69,0,0,0-.72.54l0.42-1.29c0.32-.09.73,2,0.68,2.39,0.22-1.91-1.06.59-.86,0.49-2.17,1.14-1.12-1.46-1.44-1.67-1.14-.73-3.36-0.86-4.86-1-0.2,0-.42.27-0.18,0.39s2,1.21,2,.55a7.58,7.58,0,0,0-1.49-.44,8.07,8.07,0,0,0-3.75.1,0.22,0.22,0,0,0-.2.23c0.22,0.94.59,0.93,1.53,1.09,0.2,0,.38-0.25.14-0.3h0Z"/>
   <path d="M13.3,232.76a2.14,2.14,0,0,0-1-.4,0.08,0.08,0,0,0-.1.06h0c0.4,3.71,3.38,6.74,6,9.17a113,113,0,0,0,9.57,7.68h0c-2.92-2.34-6-4.52-8.75-7a33.46,33.46,0,0,1-4.29-4.52,14.46,14.46,0,0,1-1.56-2.43c-0.2-.42-1.48-3.23,0-2.4,0.07,0,.17-0.06.09-0.1h0Z"/>
   <path d="M26.2,250c-4.15-1.14-6.15-5.67-8.6-8.81-3.48-4.45-7.42-8.54-11-12.92,0,0-.11,0-0.07.05,3.79,4.92,8.37,9.24,12,14.31,2,2.84,4,6.47,7.64,7.45,0,0,.09-0.06,0-0.07h0Z"/>
   <path d="M11,231.25c0.15,3.08,2.4,5.74,4.39,7.91a93.23,93.23,0,0,0,8,7.39s0.14,0,.09-0.06c-2.36-2.12-4.8-4.15-7-6.42s-5.14-5.34-5.32-8.84c0-.06-0.12,0-0.12,0h0Z"/>
   <path d="M9.64,243.51c-3.71-3.11-4-9.08-5-13.47C3.47,225.27.8,220,2.4,215c0-.09-0.1-0.11-0.14,0-2.14,4.68.92,10.56,2.07,15.13,1.1,4.39,1.4,10.44,5.14,13.57,0.11,0.09.33,0,.21-0.15h0Z"/>
   <path d="M2.85,215.73C-1.26,217.56,1,224.28,2,227.32a78.18,78.18,0,0,0,6.48,14.14c0,0.08.21,0,.16-0.07a105.4,105.4,0,0,1-5.45-11.64c-1.25-3.21-4.84-11.74-.29-14v-0.06h0Z"/>
   <path d="M8.05,240.59c-2.16-2.75-3-6.11-4.3-9.28s-3-6-3.5-9.49c0-.12-0.25-0.1-0.25,0-0.09,3.31,2,6.31,3.26,9.31,1.46,3.27,2.34,6.79,4.62,9.62,0.07,0.09.25,0,.17-0.12h0v0Z"/>
   <path d="M1.92,217.71a3.37,3.37,0,0,0-.58-1.18c-0.54,5.6,1.6,11.1,4.21,15.93A58.47,58.47,0,0,0,16,246.36s0.12,0,.08-0.06A59.41,59.41,0,0,1,5.85,232.74a41.55,41.55,0,0,1-3.59-8.41,25.17,25.17,0,0,1-.84-4c-0.08-.64-0.27-4.48.44-2.6H1.92v0Z"/>
   <path d="M7,231.21a1.54,1.54,0,0,0-1-.8,0.06,0.06,0,0,0-.08,0c-0.47,2.23.37,4,1.51,5.94a64.62,64.62,0,0,0,4.16,6.24,74.9,74.9,0,0,0,11.79,11.75h0.06A84.92,84.92,0,0,1,13,244.18a57,57,0,0,1-4.61-6.5,29.63,29.63,0,0,1-1.65-2.75,6,6,0,0,1-.83-3c0.07-.58.31-1.59,1-0.7,0,0.05.14,0,.1-0.07H7v0.05Z"/>
   <path d="M11.94,243.54a7.85,7.85,0,0,0-2-2s-0.15,0-.11.08c5.83,9.76,17.07,16.67,27.87,19.6,0,0,.1-0.06,0-0.08a56.8,56.8,0,0,1-16-7.61,47.1,47.1,0,0,1-7-5.82,33.85,33.85,0,0,1-3.27-3.83,12.75,12.75,0,0,1-1.16-1.73c0.26-.26,1.42,1.36,1.49,1.44a0.07,0.07,0,1,0,.12-0.08h0Z"/>
</svg>