<svg xmlns="http://www.w3.org/2000/svg" viewBox="0 0 77.43 178.55">
   <path d="M76.79,142.59c-0.15,14.05-11,29.74-25,33.06-16,3.81-35.59-.52-44.19-15.75-3.45-6.11-5-13.1-5.82-20-1-8.32,1-15.15,5.78-21.94,4-5.72,9-10.77,12.82-16.67,4.11-6.43,3-13.45,4.33-20.64,0.13-.72-1.18-0.74-1.27-0.06-0.47,3.5-.48,7-0.87,10.53-0.55,5-2.62,8.6-5.59,12.54C13,109,8.3,114,4.68,119.66-1.77,129.77-.71,142,2.84,153.1,6.62,164.87,15.39,173,27.21,176.6c10.46,3.15,24.26,2.81,33.6-3.4,9.7-6.46,17.34-18.73,16.57-30.61,0-.31-0.62-0.26-0.63,0h0Z"/>
   <path d="M52.82,78.48c2.82,4.67,1.72,10.67,1.93,15.89,0.19,4.74,2.28,7.94,5.19,11.51,9.61,11.78,14.61,25.6,16.29,40.54,0,0.37.71,0.3,0.74,0,1-13.35-6-27.82-13.7-38.35-1.85-2.53-4.3-4.81-5.75-7.61-1.69-3.26-1.64-6.5-1.65-10.08,0-4,.36-9-2.53-12.16-0.19-.2-0.7,0-0.53.29h0v0Z"/>
   <path d="M52.32,81.84c2.33,0.09-2.23-1.71-2.92-1.94a38.15,38.15,0,0,0-6.45-1.67,17.67,17.67,0,0,0-9.73,1.14,0.27,0.27,0,1,0,.18.51,23.83,23.83,0,0,1,13.07,0c1.73,0.46,5,2.34,6.71,2,0.42-.08.32-0.58-0.1-0.55h-0.7c-0.32,0-.44.45-0.07,0.46h0v0.05Z"/>
   <path d="M53,80.62c0.57-1.88-10.21-1.6-11.47-1.51a0.25,0.25,0,1,0,0,.5c1.12,0.08,11.13.11,11.11,1,0,0.21.3,0.19,0.35,0h0Z"/>
   <path d="M53.84,80c1-1.2,1-2.89,1.24-4.36a0.39,0.39,0,0,0-.3-0.41c-2-.81-4.23-2.33-6.39-2.41-0.28,0-.58.36-0.25,0.54a35.08,35.08,0,0,0,3.25,1.36c1,0.44,2,.91,3,1.28l-0.3-.41a13,13,0,0,1-.79,4.2c-0.15.3,0.35,0.42,0.51,0.21h0Z"/>
   <path d="M54.57,76.32c-0.3-1.94.63-4.32-1.12-5.7a28.2,28.2,0,0,0-7-3.49c-0.21-.08-0.56.2-0.33,0.39,1.64,1.41,3.92,2,5.77,3.06a3.13,3.13,0,0,1,1.88,2.57c0.17,1.08.13,2.2,0.36,3.27a0.23,0.23,0,0,0,.45-0.08h0v0Z"/>
   <path d="M53.48,70c-0.12-1.16-1.86-1.87-2.74-2.29a12.52,12.52,0,0,0-4.85-1.37c-0.25,0-.44.35-0.13,0.43A26.82,26.82,0,0,1,49.49,68c0.81,0.33,3.06,1.1,3.24,2.13,0.07,0.41.8,0.28,0.75-.13h0Z"/>
   <path d="M52.64,70.26c2.82-1.42.83-5.55-.88-7.12a9.56,9.56,0,0,0-3.55-1.75c-2.61-.89-4.24-1.58-5.12-4.33a0.31,0.31,0,0,0-.59,0c-0.73,2.54,2.12,3.92,4,4.63,1.5,0.55,3.24.87,4.49,1.93,1.79,1.5,3,4.42,1.33,6.36-0.14.16,0.09,0.32,0.25,0.25h0Z"/>
   <path d="M43.26,57.41h0a0.13,0.13,0,0,0,0-.15C42.65,56.61,40.85,57,40.1,57a28.5,28.5,0,0,0-5,.4c-0.23,0-.37.4-0.07,0.47a15.71,15.71,0,0,0,4.22,0c0.41,0,3.8-.13,3.72-0.45,0,0.16.26,0.13,0.32,0h0Z"/>
   <path d="M34.41,56.44c0.42,1.77-2.49,4.36-3.57,5.46-1.48,1.51-3.81,4-6.07,4.25a0.47,0.47,0,1,0,.16.91c2.64-.48,5-2.84,6.75-4.68,1.21-1.25,4.17-4,3.62-6.1-0.13-.47-1-0.32-0.89.16h0Z"/>
   <path d="M24,81c1.66-.74-0.22-2.2-0.1-3.36,0.26-2.48,3.17-3.77,4.72-5.31a0.3,0.3,0,0,0-.26-0.49c-2.05.11-3.85,2.34-4.86,3.94a4.28,4.28,0,0,0-.83,2.1c0,0.42,1.05,2.36.86,2.5-0.43.31,0.05,0.8,0.46,0.61h0Z"/>
   <path d="M24.32,77.38c1.31-1.45,1.16-3.59.41-5.28l-0.2.69a10,10,0,0,1,3-1.62,12.16,12.16,0,0,0,2.82-1,0.32,0.32,0,0,0-.2-0.58c-2.15-.28-4.8,1.16-6.48,2.41a0.55,0.55,0,0,0-.2.69c0.56,1.25.83,3.06-.09,4.22-0.47.59,0.52,1,.93,0.53h0v0Z"/>
   <path d="M25.25,72.29a28.58,28.58,0,0,1-.37-3.73,3.94,3.94,0,0,1,.39-1.66,16,16,0,0,1,1.47-1.58c0.24-.35-0.08-0.64-0.45-0.6-1.41.14-2.24,1.65-2.38,2.94a19.65,19.65,0,0,0,.55,4.77c0.06,0.44.83,0.29,0.79-.14h0Z"/>
   <path d="M53.88,73.39c-4.74-.06-9.26-1.84-14-1.75-0.31,0-.42.42-0.07,0.45,4.55,0.34,9.49,2.64,14.07,1.75,0.27-.05.31-0.44,0-0.44h0Z"/>
   <path d="M40.18,71.54c-3.27,1.82-7.26.36-10.79,0.57-0.35,0-.48.47-0.07,0.51C32.87,73,37.23,74,40.53,72.19a0.36,0.36,0,0,0-.35-0.64h0Z"/>
   <path d="M49.92,77.75l0.52-.24a0.32,0.32,0,0,0,.2-0.36V77a0.3,0.3,0,0,0-.15-0.21c-2.5-1.06-5.91-1.26-8.6-1.48A27.56,27.56,0,0,0,29,77.09a0.3,0.3,0,1,0,.2.57,41.46,41.46,0,0,1,12.58-1.41c0.32,0,7.7,1.64,8,1.28a0.16,0.16,0,0,0,.22.22h0Z"/>
   <path d="M53.47,79.85c-0.89,3.94-7.72,4.26-10.9,5.07-0.28.07-.22,0.39,0.07,0.37,2.83-.23,11.41-1.22,11.1-5.46,0-.14-0.24-0.1-0.27,0h0v0Z"/>
   <path d="M43.21,85.31c2.61-1.42,6-1.85,8.36-3.73,0.34-.27,0-0.58-0.36-0.48A47.33,47.33,0,0,0,46.7,83a29.24,29.24,0,0,0-3.77,1.91c-0.26.16,0,.5,0.27,0.37h0Z"/>
   <path d="M36.55,83.58c-3.47.69-7,.91-10.3-0.66-0.25-.12-0.58.16-0.31,0.37,3,2.27,7.28,1.8,10.7.84,0.4-.11.33-0.64-0.1-0.55h0Z"/>
   <path d="M30.64,77.55a8.5,8.5,0,0,0-6.06,1.54l0.61,0.46c1.14-1.48,2.91-1.93,4.34-3a0.24,0.24,0,1,0-.23-0.43,8.6,8.6,0,0,0-4.8,3c-0.27.39,0.28,0.74,0.61,0.46a7.35,7.35,0,0,1,5.45-1.43,0.31,0.31,0,0,0,.21-0.58l-0.13,0h0Z"/>
   <path d="M53.64,75.25c1.85-.68-2-2.4-2.33-2.57-2.35-1.07-5.56-2.73-8.21-2.59-0.31,0-.52.38-0.16,0.52,1.83,0.7,3.74,1.2,5.58,1.88a34.38,34.38,0,0,1,3.39,1.38c0.22,0.11,1.85,1,1.57,1.1s-0.06.36,0.15,0.28h0Z"/>
   <path d="M52.91,67.24c-4.8-1.28-9.71-3.53-14.66-1.82a0.22,0.22,0,0,0,.14.41c5.22-1.18,9.39,1.22,14.44,1.67,0.15,0,.26-0.21.08-0.25h0Z"/>
   <path d="M25.14,69.28a24.53,24.53,0,0,1,8.58-5.18c0.34-.13.16-0.55-0.17-0.5a15.8,15.8,0,0,0-9,5.34c-0.31.36,0.32,0.6,0.59,0.33h0Z"/>
   <path d="M37.29,70.25c-2.14.46-4.35,0.13-6.48,0.6-0.32.07-.37,0.52,0,0.53a26.86,26.86,0,0,0,6.6-.41,0.37,0.37,0,0,0,0-.74l-0.11,0h0Z"/>
   <path d="M41.64,81.06c-0.22-.7-1.93-0.33-2.42-0.27a22.23,22.23,0,0,0-5,1.08,0.26,0.26,0,0,0,.17.49,34.18,34.18,0,0,1,6.91-.72l-0.09-.49a21,21,0,0,0-3,1.86c-0.23.17,0,.4,0.24,0.32a21.66,21.66,0,0,0,3.12-1.71,0.27,0.27,0,0,0-.17-0.49c-2.36.08-4.66,0.7-7,.77v0.52c1.18-.22,2.35-0.47,3.53-0.69,0.26,0,3.06-.66,3.16-0.46s0.63,0.11.55-.16h0v0Z"/>
   <path d="M39.08,82.49a1.21,1.21,0,0,0,.85-0.29c0.13-.11,0-0.26-0.17-0.17a0.91,0.91,0,0,1-.65.21c-0.18,0-.23.25,0,0.25h0Z"/>
   <path d="M40.44,85.93c2.07,3.51,2.57,7.7,3.13,11.66s1.25,8,1.57,12.08c0.36,4.54.54,9.11,1.21,13.62,0.15,1,.66,2.21-0.17,2.94a2,2,0,0,1-2.11.19c-1.15-.53-1.77-2.15-2.13-3.26a13.63,13.63,0,0,1-.45-7.18c0.1-.4.5-1.15,0.29-1.24a4.41,4.41,0,0,1,.74,1.72,11.16,11.16,0,0,1,.43,3.68c-0.07,1.43-.39,3.23-1.61,4.16-1.67,1.27-3.65.38-4.49-1.31a9.67,9.67,0,0,1,.5-8.54H36.83a15.54,15.54,0,0,1,.25,4.7c-0.12.91-.33,2.35-1.32,2.76-1.8.76-3.18-1.53-3.43-2.93a6.09,6.09,0,0,1,.46-3.6c1-1.9.84,1.38,0.71,2.16a6.08,6.08,0,0,1-2.64,3.94,4.38,4.38,0,0,1-1.6.71q-0.77.53-.72-0.41c-0.19-.44.35-1.76,0.45-2.2,2.59-11.86,8.41-23,9.69-35.16,0-.36-0.57-0.36-0.63,0-2.28,13.07-7.84,25.23-10.2,38.25a0.24,0.24,0,0,0,.23.25h0.08a6.48,6.48,0,0,0,5.43-8.82c-0.06-.17-0.33-0.12-0.42,0-1.86,2.21-2.27,8.67,2,8.46,3.42-.17,2.58-6,2.18-8.14,0-.27-0.41-0.2-0.52,0-1.84,2.93-2.25,11.53,3,11.07,4.83-.42,4.32-8.28,2.24-11.11a0.3,0.3,0,0,0-.51,0c-2,3.47-.17,16.75,5.7,11.77a0.26,0.26,0,0,0,.11-0.25c-1.5-7.61-1.21-15.41-2.45-23-0.91-5.61-1.12-12-4.19-17-0.1-.16-0.43,0-0.33.14h0Z"/>
   <path d="M32.52,82.22c-0.64.34-1.74,0.72-2.22-.08s0.08-1.6.43-2.24c0.08-.15-0.17-0.2-0.26-0.11-0.61.66-1.09,1.85-.45,2.65s1.86,0.48,2.64.06a0.16,0.16,0,1,0-.12-0.3l0,0h0Z"/>
   <path d="M27.32,101.42c-2.63.43-4.68,2.75-6.3,4.7a42,42,0,0,0-5.35,8.19c-0.11.21,0.26,0.27,0.36,0.1a65.63,65.63,0,0,1,4.66-7c1.68-2.17,3.85-5,6.69-5.63a0.19,0.19,0,1,0,0-.38h0Z"/>
   <path d="M13,117.68c2.37-2.79,3.41-6.37,5.57-9.31,2.45-3.32,5.57-6.07,8-9.38,0.23-.31-0.26-0.48-0.47-0.27-4.27,4.25-8.65,8.58-11.68,13.84-0.1.17,0.22,0.26,0.31,0.13A101.65,101.65,0,0,1,26.55,99l-0.47-.27c-2.44,3.32-5.54,6.09-8,9.43-2.14,2.95-3.1,6.57-5.44,9.38-0.13.16,0.15,0.28,0.26,0.15H13Z"/>
   <path d="M11,117.43c5.18-5.48,9.14-11.95,14.28-17.48,0.15-.16-0.14-0.32-0.28-0.21-5.84,4.77-9.18,12-14.26,17.55-0.14.15,0.14,0.27,0.25,0.14h0Z"/>
   <path d="M5.46,149.15c0.57-.65.34-1.32,0.12-2.11A44.25,44.25,0,0,1,4.2,142a32.86,32.86,0,0,1,.53-12.37,0.14,0.14,0,0,0-.27,0,23.87,23.87,0,0,0-1.16,9.66A26.3,26.3,0,0,0,4,144.43c0.42,1.5,1.59,3.12,1.15,4.69,0,0.14.19,0.14,0.25,0.07h0v0Z"/>
   <path d="M4,148.62c0-3.6.06-7.19,0-10.79,0-.15-0.3-0.13-0.31,0-0.1,3.58,0,7.17,0,10.75a0.19,0.19,0,0,0,.38,0h0Z"/>
   <path d="M59.11,167.43c-1.58.33-3.2,2.1-4.72,2.81-2.71,1.27-5.84,1.48-8.45,3-0.24.14,0,.45,0.25,0.33,2.88-1.57,6.29-1.77,9.18-3.36,1.22-.67,3.3-1.61,4-2.83,0-.07,0-0.12-0.09-0.12a0.37,0.37,0,0,0-.26.07,0.07,0.07,0,0,0,0,.13h0Z"/>
   <path d="M46.34,173.15c2.28-.1,1.72-3.39,2.2-4.87,0.85-2.62,2.74-1.8,4.77-1.91a17.22,17.22,0,0,0,5.93-1.76c0.41-.18.1-0.67-0.27-0.51a15.18,15.18,0,0,1-7.34,1.73,3.41,3.41,0,0,0-2,.15c-2.77,1.43-1,5.31-3.3,7.08a0,0,0,0,0,0,.07l0,0h0Z"/>
   <path d="M59.48,167.35h0.21a0.86,0.86,0,0,1,0-.23,3.48,3.48,0,0,0-.1-0.66,2.24,2.24,0,0,0-.41-1.17,0.17,0.17,0,0,0-.28.12,9.44,9.44,0,0,0,.29,1.34,2.32,2.32,0,0,0,.25.7,0.13,0.13,0,0,0,.18,0l0,0a0.13,0.13,0,0,0,0-.08c0-.12-0.22-0.09-0.24,0h0Z"/>
   <path d="M57.48,168.93a15.25,15.25,0,0,0,2.41-3.24c0.17-.3-0.3-0.39-0.48-0.28a21.18,21.18,0,0,0-4.54,4.31L55.34,170l3-3.74L57.83,166a26.3,26.3,0,0,0-3.11,5c0.84-2,2.19-4,3.14-6,0.14-.3-0.35-0.43-0.51-0.21-1.59,2.16-2.93,4.51-4.73,6.51l0.47,0.19a40.37,40.37,0,0,1,2.55-5.74c0.18-.35-0.45-0.48-0.6-0.17A21.06,21.06,0,0,1,51.12,171l0.52,0.15a28.84,28.84,0,0,1,3-5.42l-0.54-.31a67.78,67.78,0,0,1-4.75,6.25l0.57,0.24c0.82-1.81,1.78-3.52,2.76-5.25,0.19-.33-0.41-0.49-0.59-0.25-1.4,1.87-2.49,4-4,5.77l0.48,0.28a44.58,44.58,0,0,0,3.31-5.8c0.15-.3-0.31-0.45-0.51-0.29-1.76,1.45-2.78,3.45-4,5.31l0.55,0.23a25.83,25.83,0,0,1,2.46-5c0.15-.26-0.33-0.4-0.48-0.2a18.13,18.13,0,0,0-2.57,5,0.3,0.3,0,0,0,.55.23c1.23-1.82,2.2-3.79,4-5.19l-0.51-.29a52.7,52.7,0,0,1-3.19,5.7c-0.21.32,0.28,0.53,0.48,0.28,1.45-1.83,2.51-4,4-5.73l-0.59-.25a58.14,58.14,0,0,0-2.74,5.25c-0.15.35,0.38,0.46,0.57,0.24a66.08,66.08,0,0,0,4.75-6.25c0.24-.35-0.33-0.61-0.54-0.31a25.22,25.22,0,0,0-3,5.58c-0.11.3,0.31,0.38,0.48,0.2a26,26,0,0,0,4.08-5.54l-0.6-.17a27.78,27.78,0,0,0-2.47,5.82c-0.07.26,0.36,0.29,0.48,0.14,1.65-2.12,3.12-4.37,4.77-6.49l-0.51-.21a59.08,59.08,0,0,0-3.14,6.78,0.17,0.17,0,0,0,.31.13,61.65,61.65,0,0,1,3.86-5.44c0.26-.32-0.3-0.57-0.51-0.29l-3,3.76c-0.23.29,0.27,0.51,0.47,0.27a18.77,18.77,0,0,1,4.46-4.19l-0.48-.28a14.22,14.22,0,0,1-2.09,3.26c-0.14.16,0.14,0.27,0.26,0.15h0v0.06Z"/>
   <path d="M71.92,147.65c0.6-.86.48-0.48,0.21-0.5a8.26,8.26,0,0,1,.13,1.57,10,10,0,0,1-1.75,4.19C69,155.44,67,157.66,65.24,160c-0.1.14,0.12,0.23,0.21,0.12,3-3.58,7.79-8.17,6.93-13.23,0-.1-0.15-0.07-0.19,0l-0.41.64c-0.06.09,0.08,0.15,0.14,0.08h0Z"/>
   <path d="M62.92,163.9c4.33-5.24,8.09-11.59,9.58-18.28,0-.15-0.23-0.17-0.28,0-2.24,6.63-4.9,12.83-9.43,18.25-0.07.08,0.08,0.15,0.14,0.08h0V163.9Z"/>
   <path d="M63.92,161c3.34-1.8,5.14-5.76,6.53-9.1a65.21,65.21,0,0,0,3.77-12.28c0-.14-0.21-0.14-0.24,0a101.19,101.19,0,0,1-3.3,11c-1.41,3.66-3.3,8.09-6.9,10.1a0.15,0.15,0,1,0,.14.27h0Z"/>
   <path d="M70.18,152.94c3-2.48,3.09-7.53,3.11-11.06a98.3,98.3,0,0,0-1.06-13c0-.14-0.25-0.09-0.24,0,0.27,3.92.8,7.81,0.86,11.74,0.07,4.09,0,8.95-2.84,12.19-0.09.1,0.08,0.2,0.17,0.13h0Z"/>
   <path d="M71.64,144.7c2.84-1.44,1-7.42.42-9.58a101.13,101.13,0,0,0-4.11-12.3c0-.1-0.26,0-0.22.07,1.14,3.31,2.33,6.59,3.3,10,0.66,2.3,3.48,10,.52,11.68a0.1,0.1,0,0,0,.1.18h0v0Z"/>
   <path d="M71.17,135.93c2.88-2.27-.49-7.73-1.75-10-2.37-4.24-5.58-7.94-8-12.13,0-.09-0.24,0-0.18.08,1.87,3.43,4.39,6.53,6.43,9.86,1.47,2.39,6.44,9.41,3.35,12-0.11.09,0,.21,0.13,0.13h0Z"/>
   <path d="M69.73,127.43c0.52-.66,0-1.8-0.2-2.48a42.46,42.46,0,0,0-3-6.52c-2-3.81-4.08-8-6.79-11.41-0.08-.11-0.32,0-0.25.14,1.78,3.31,3.9,6.45,5.72,9.75,1.08,2,2.13,3.94,3.06,6,0.39,0.86,1.91,3.43,1.23,4.4-0.12.16,0.15,0.28,0.25,0.14h0Z"/>
   <path d="M67,121.44l0.36,0.4c0.11,0.13.38,0,.25-0.18-1.69-2-3.5-3.74-5.07-5.88-2.49-3.39-4.65-7-7.32-10.25-0.09-.11-0.35,0-0.26.14,2.69,3.78,5.14,7.74,8,11.41a32.3,32.3,0,0,0,2.9,3.33,7.33,7.33,0,0,0,1.13,1.1c0.44,0.26.81,0.29,0.24-.23-0.1-.09-0.32,0-0.21.15h0Z"/>
   <path d="M55.51,97.55c-2-4.86-.6-10.54-2.8-15.23,0-.1-0.24,0-0.22.07,1,5,.59,10.62,2.71,15.29,0.07,0.16.38,0,.31-0.13h0Z"/>
   <path d="M51.95,79.92c2,3.37,1.44,7.46,1.52,11.21,0,0.13.25,0.11,0.26,0,0.13-3.77.56-8-1.48-11.32-0.09-.15-0.39,0-0.3.13h0v0Z"/>
   <path d="M52.91,83.73c-2.78-.66-5.39.29-7.87,1.51-0.18.09,0,.29,0.12,0.23,2.48-1,4.9-2.07,7.63-1.49,0.17,0,.32-0.2.12-0.25h0Z"/>
   <path d="M26.26,79.86a85.18,85.18,0,0,0-1,11.25,0.09,0.09,0,0,0,.17,0,100.56,100.56,0,0,1,1-11.25,0.09,0.09,0,0,0-.18,0h0Z"/>
   <path d="M25.22,87.62c0-2,.28-4.06.44-6.1q0.08-.87.11-1.75a4,4,0,0,0-.29,2c-0.1,1.1-.08,2.22-0.13,3.33-0.23,4.63-.7,9.21-1.35,13.79,0,0.13.19,0.12,0.22,0,1.44-6.66,1.14-13.26,1.55-20a0.16,0.16,0,0,0-.32,0C25.34,81.81,25,84.72,25,87.64c0,0.13.23,0.14,0.23,0h0v0Z"/>
   <path d="M53,72.77l-3-3c-0.08-.08-0.3,0-0.23.13a15.39,15.39,0,0,0,3,3c0.12,0.11.38,0,.25-0.18h0Z"/>
   <path d="M53.7,73.54a14.36,14.36,0,0,0-2.2-2.63,13.47,13.47,0,0,1,1,1q0.26,0.51.44,0.22a10.24,10.24,0,0,1-1.07-.46c-1.86-.89-3.52-2.18-5.47-2.87-0.12,0-.28.13-0.13,0.21,2.33,1.15,4.52,2.78,7,3.51,0.12,0,.27-0.12.13-0.2-0.79-.52-1.49-1.18-2.26-1.74-0.08-.05-0.26,0-0.19.14,0.78,1.06,1.71,2,2.52,3a0.12,0.12,0,0,0,.19-0.14h0Z"/>
   <path d="M53.16,78.74A27.11,27.11,0,0,0,47.37,78c-0.16,0-.22.22,0,0.23,1.93,0.15,3.82.58,5.75,0.76,0.15,0,.26-0.22.08-0.25h0Z"/>
   <path d="M52.74,80.26c-2-1.64-4.6-2.09-7.12-2.27-0.17,0-.22.22,0,0.24,2.38,0.33,4.93.71,6.88,2.23,0.15,0.12.46-.07,0.29-0.21H52.74Z"/>
   <path d="M25.21,79.68c0.83-1.13,1.61-2.31,2.34-3.51,0.13-.22-0.25-0.29-0.38-0.16A25.32,25.32,0,0,0,25,79.07c-0.06.09,0.08,0.16,0.14,0.08a29.76,29.76,0,0,1,2.35-2.94L27.13,76A38.36,38.36,0,0,1,25,79.54c-0.11.14,0.14,0.25,0.23,0.13h0Z"/>
   <path d="M25,80a6.08,6.08,0,0,0,1.07-1.8c0.1-.23-0.21-0.3-0.36-0.21a12.83,12.83,0,0,1-1.43,1l0.24,0.21a5.78,5.78,0,0,1,.78-1.68l-0.44-.18A8.65,8.65,0,0,1,24,78.78l0.27,0.11c0.34-.88.89-1.64,1.27-2.49H25.16a0.82,0.82,0,0,1-.36.65,0.08,0.08,0,0,0,0,.11l0.06,0a1.69,1.69,0,0,0,.63-0.74c0.16-.16-0.16-0.32-0.29-0.17a7.09,7.09,0,0,0-1.25,2.54c-0.06.18,0.23,0.24,0.29,0.08a8.73,8.73,0,0,1,1.06-1.43c0.18-.27-0.22-0.42-0.41-0.23a3.52,3.52,0,0,0-.73,1.86,0.18,0.18,0,0,0,.3.12,12.86,12.86,0,0,1,1.48-.94l-0.29-.23a7.91,7.91,0,0,1-.93,1.73C24.55,80,24.87,80.09,25,80h0Z"/>
   <path d="M24.42,78.4a17.07,17.07,0,0,0,2.15-4.47,0.2,0.2,0,0,0-.25-0.26,2.53,2.53,0,0,0-1.29.87c-0.12.09,0,.23,0.13,0.17a3.1,3.1,0,0,1,1.17-.65l-0.19-.26c-0.57,1.52-1.37,3-1.86,4.54a0.08,0.08,0,0,0,.14.06h0Z"/>
   <path d="M25,75.51q1.49-1.28,2.92-2.64A23.8,23.8,0,0,0,31,69.71c0.16-.22-0.15-0.38-0.33-0.25a25.44,25.44,0,0,0-2.77,2.69c-1.06,1.06-2.13,2.09-3.24,3.09-0.23.21,0.09,0.48,0.3,0.3h0v0Z"/>
   <path d="M24.2,72.05A22.18,22.18,0,0,1,39.28,70.5c0.19,0,.35-0.2.13-0.28-4.83-1.87-10.9-.84-15.42,1.45a0.22,0.22,0,0,0,.12.42l0.08,0h0Z"/>
   <path d="M25.07,69.81a18.84,18.84,0,0,0,3.83-.42l-0.26-.49A11.56,11.56,0,0,1,27,70.15c-0.21.14-.57,0.22-0.45,0.44s0.27-.25.31-0.36a0.24,0.24,0,0,0-.12-0.32h0c-0.59-.15-0.73.31-1.22,0.55l0.35,0.27c0.21-.57.31-1.17,0.52-1.74l-0.56-.09a0.46,0.46,0,0,1-.32.57l0.34,0.26a14.21,14.21,0,0,1,3-3.82,25,25,0,0,1,3.68-2.36c0.2-.13,0-0.35-0.17-0.32-3.19.42-5.46,3.85-7,6.37-0.12.2,0.19,0.33,0.34,0.26l0.51-.23a0.26,0.26,0,0,0,.17-0.2v-0.5a0.29,0.29,0,0,0-.56-0.09c-0.2.58-.27,1.18-0.48,1.76a0.24,0.24,0,0,0,.35.27c0.5-.19.66-0.86,0.29-0.11a0.23,0.23,0,0,0,0,.26L26,71.09a0.36,0.36,0,0,0,.44,0A16.67,16.67,0,0,0,29,69.35a0.28,0.28,0,0,0-.26-0.48,30.41,30.41,0,0,1-3.74.58,0.2,0.2,0,0,0,0,.39h0Z"/>
   <path d="M24,79.62c2.21,7.31.36,14.94-.85,22.23a0.15,0.15,0,0,0,.29,0c2.07-6.79,3.15-15.52.66-22.31H24.06v0.08Z"/>
   <path d="M24.27,83.9c1.8,3.77.33,8.63-.86,12.37a44.79,44.79,0,0,1-4.71,10.55c-0.1.15,0.19,0.23,0.28,0.12,2.66-3.27,4.18-7.77,5.33-11.76,0.86-3,2.64-8.66.11-11.36-0.06-.06-0.2,0-0.16.09h0Z"/>
   <path d="M2.7,131.39c2.42-5.47,5-10.72,7.77-16,0.07-.13-0.16-0.19-0.23-0.1-3.51,4.69-5.7,10.6-7.74,16a0.11,0.11,0,0,0,.2.06h0v0Z"/>
   <path d="M11,113.05c-5.09,4-7.91,11.55-9.63,17.55-0.06.2,0.3,0.21,0.37,0.06,3-6.08,4.45-12.53,9.39-17.51,0.08-.08-0.06-0.15-0.13-0.1h0Z"/>
   <path d="M38.7,57.63C39,53.06,38,48.57,37.48,44.06c-0.63-5.1.46-9.87,0.76-14.92,0.26-4.38-.65-8.66-0.9-13C37,10.9,38,5.64,38,.39a0.45,0.45,0,0,0-.89,0c0,4.73-.85,9.45-0.78,14.17,0.07,4.88,1.26,9.68,1,14.58-0.25,4.47-1.32,8.84-.93,13.34,0.44,5.09,1.61,10,1.58,15.16a0.35,0.35,0,1,0,.7,0h0Z"/>
   <path d="M51.95,67.07a10.49,10.49,0,0,0-2.31-3.51c-0.07-.07-0.21,0-0.14.1a11.36,11.36,0,0,1,2.25,3.49c0,0.11.26,0,.21-0.09h0Z"/>
   <path d="M51.74,66.75c1.06-.66-1.51-2.4-1.86-2.68-2.27-1.78-5.67-3.21-7.29-5.57-0.11-.16-0.51-0.17-0.51.09,0-1.26-4.72-.68-5.59-0.09a0.14,0.14,0,0,0,.13.24,8.93,8.93,0,0,1,5.62.33,0.29,0.29,0,0,0,.37-0.19h0a2.86,2.86,0,0,0,1.6,2c0.7,0.45,1.43.87,2.13,1.35,0.47,0.33,5.52,4,5.11,4.29-0.24.19,0.07,0.42,0.29,0.28h0v0Z"/>
   <path d="M36.9,58.66a9,9,0,0,1,5.16-1.07c0.23,0,.45-0.28.2-0.43-2-1.22-5.25-1.32-7.06.31-0.2.18,0,.38,0.23,0.31,2.3-.79,4.17-1.43,6.49-0.22L42,57.13a11,11,0,0,0-5.26,1.43c-0.09.06,0,.15,0.1,0.1h0Z"/>
   <path d="M42.26,59.43c-2.06-.94-4.2-0.37-6.37-0.3a0.27,0.27,0,0,0-.3.35c0.59,1.29.23,1.79-1.13,2.38l0.46,0.35a12.82,12.82,0,0,1,1.47-2.93c0.27-.34-0.24-0.54-0.5-0.38a20.71,20.71,0,0,0-5,4.32l0.58,0.24a39.06,39.06,0,0,0,2.38-4.53c0.07-.21-0.25-0.32-0.36-0.15a41.74,41.74,0,0,0-2.64,4.51c-0.19.35,0.39,0.45,0.58,0.24a22.37,22.37,0,0,1,5-4.18L35.93,59A13.44,13.44,0,0,0,34.4,62c-0.12.28,0.23,0.45,0.46,0.35a10.12,10.12,0,0,0,2.06-1.31,0.24,0.24,0,0,0,0-.34l0,0c-2.43-2.07,4.66-1.09,5.1-.89,0.25,0.11.62-.23,0.31-0.37h0Z"/>
</svg>