<svg id="Layer_3" xmlns="http://www.w3.org/2000/svg" viewBox="0 0 145 388">
   <path d="M99.8,198.94c2.87,11.89-.33,24,0.12,36,0,0.46.89,0.37,0.92-.06,0.72-11.68,4.15-24.89.08-36.25-0.19-.52-1.26-0.23-1.12.33h0v0Z"/>
   <path d="M98.13,200.88c1.76,10.67,3.48,21.48,5.86,32a0.41,0.41,0,0,0,.79-0.14c-1.51-10.64-2.82-21.72-6.14-32-0.09-.27-0.57-0.2-0.52.09h0v0.05Z"/>
   <path d="M102,228.23c2.27,11.5,10.09,21.57,16,31.41,0.2,0.33.87,0.1,0.68-.29-5.17-10.62-12.06-20.11-16-31.33-0.12-.33-0.77-0.14-0.7.21h0Z"/>
   <path d="M115.87,253.72c13.26,17.81,21.48,37.19,27.29,58.55,0.16,0.6,1.24.42,1.13-.2-4-21-12.87-42.93-27.45-58.89-0.34-.37-1.32.06-1,0.54h0Z"/>
   <path d="M136,284.46c6.41,6.76,6.94,18.68,6.94,27.42a95.17,95.17,0,0,1-3.67,26.93c-0.14.48,0.72,0.51,0.89,0.15,4.18-8.83,4.8-19.5,4.54-29.11-0.24-8.74-1.18-19.58-7.91-26-0.38-.36-1.22.12-0.79,0.57h0v0Z"/>
   <path d="M139.38,336.15C138,349,127.15,360.28,118.74,369.32c-0.35.37,0.34,0.63,0.63,0.36,9-8.58,19.65-20.46,20.69-33.5,0-.39-0.63-0.39-0.67,0h0v0Z"/>
   <path d="M136.7,345.4c-5.8,15.87-20.73,26.39-35.19,33.72-0.6.31-.16,1,0.42,0.77,15-5.71,30.47-18.65,35.48-34.28,0.14-.44-0.57-0.58-0.71-0.2h0Z"/>
   <path d="M103.87,381.12H104a0.32,0.32,0,0,0-.11-0.62c-3.23-.09-7.18,2-10.2,3a64.9,64.9,0,0,1-19.42,2.8c-16.78.08-32.68-4-46.8-13.16-0.48-.31-1.43.33-0.89,0.82,11.67,10.38,29.3,13.62,44.44,14,6.29,0.14,12.87,0,18.95-1.81,2.83-.83,5.62-1.8,8.39-2.79,1.13-.4,2.26-0.81,3.38-1.25l1.43-.57c0.82-.3,0-0.51.34-0.8-0.35.27,0,.69,0.39,0.52h0v-0.14Z"/>
   <path d="M29.76,372.55c-10.95-.42-16.74-16-20.13-24.48-4.12-10.34-8.38-22.57-8.06-33.88a0.51,0.51,0,0,0-1,0c-1.24,5.13.15,11.18,1.33,16.17a123.13,123.13,0,0,0,7.25,21.63c2.6,5.94,11.11,25.2,20.71,21.1a0.27,0.27,0,0,0-.09-0.54h0v0.05Z"/>
   <path d="M2.12,320.86A111.64,111.64,0,0,1,9.26,283.7c4.42-11.63,11-21.87,17-32.74,0.26-.49-0.6-0.72-0.86-0.36C11,270.43,1.22,296.19,1.4,320.81a0.4,0.4,0,0,0,.8,0h0Z"/>
   <path d="M0.78,313.52a110.19,110.19,0,0,1,10.84-42.11c6.31-13.32,15-24.56,24.46-35.71,0.33-.39-0.32-0.77-0.64-0.49-10.66,9.37-18.66,22.36-24.61,35.13C4.52,283.87.32,298.48,0,313.47a0.4,0.4,0,0,0,.78,0h0v0.05Z"/>
   <path d="M30.76,245c9-12.64,14.88-29.34,14-45,0-.41-0.79-0.33-0.81.05-0.64,8.18-1.7,16.14-4.28,24-2.4,7.3-6,13.94-9.75,20.6-0.25.45,0.56,0.68,0.81,0.34h0Z"/>
   <path d="M35.26,235.14c4.56-2.38,5.53-12.3,6.38-16.61a153.11,153.11,0,0,0,3.17-25c0-.43-0.7-0.44-0.75,0-0.94,7.16-1.68,14.35-2.9,21.48-1.05,6.16-1.8,15-6.38,19.69-0.29.3,0.2,0.64,0.49,0.49h0v-0.05Z"/>
   <path d="M99.49,197c-13.62-10.24-35.08-12.23-49.54-2.58-0.68.45,0.09,1.25,0.71,0.95,16.08-7.6,32.82-6.82,47.95,2.67,0.68,0.43,1.63-.48.88-1h0v0Z"/>
   <path d="M93.66,197.73c-12.72-9.79-32.83-11.27-47.54-5.38a0.54,0.54,0,0,0,.36,1c15.23-3.66,32.79-4.19,46.11,5.35,0.58,0.42,1.75-.47,1.07-1h0v0Z"/>
   <path d="M93.83,196.14c-1.65,7.31-13.68,7.92-19.52,9.63-0.58.17-.48,0.86,0.14,0.8,6.17-.65,19.57-2.31,20.48-10.37,0.07-.65-1-0.62-1.11-0.06h0Z"/>
   <path d="M96.31,201.74a82.63,82.63,0,0,0-14.77,2.77c-0.49.15-.22,0.78,0.24,0.69,4.9-.87,9.77-1.79,14.68-2.6a0.44,0.44,0,1,0-.15-0.87h0Z"/>
   <path d="M66.59,206.4c-9.29-2.42-17.48-3.06-23.83-11.17a0.49,0.49,0,0,0-.82.46c4.41,9.25,15.34,10,24.24,11.58,0.58,0.1,1.12-.69.41-0.87h0Z"/>
   <path d="M64.46,205.68c-5.05.22-8.56-4-12.4-6.57-0.34-.23-1.15.15-0.85,0.61,2.6,3.82,8.46,7.76,13.26,6.93,0.59-.1.66-1,0-1h0v0Z"/>
   <path d="M103.52,196c-1.05-3.55-2.8-7.41-2.31-11.21a0.67,0.67,0,0,0-.51-0.7c-2.75-.69-6.68-1.84-9.31-0.33-0.43.24-.1,0.72,0.26,0.77,1.29,0.16,2.58-.06,3.89.06a31.82,31.82,0,0,1,4.53.83l-0.51-.7c-0.49,4.3,1.51,7.79,3.06,11.56,0.17,0.41,1,.18.9-0.27h0Z"/>
   <path d="M101.39,194.69a10.79,10.79,0,0,1-1-3.31c-0.39-1.75-.59-3.53-1-5.28a0.42,0.42,0,0,0-.8,0c-0.48,2.74,0,6.83,2.11,8.9,0.23,0.23.86,0,.63-0.35h0Z"/>
   <path d="M99.66,187.53c1.53-5.15-28.19-8.33-32.17-7.13-0.68.2-.24,0.95,0.32,0.91,3.13-.21,31.22,3.06,30.64,6.16-0.13.71,1,.65,1.21,0.06h0Z"/>
   <path d="M85.79,179c-10.49-1.2-25-3.12-34.41,2.83-0.57.36,0.09,0.88,0.55,0.73C63,179.09,74.18,179.43,85.64,180c0.71,0,.91-0.9.15-1h0Z"/>
   <path d="M60.71,179.12c-5.83-4-12.08,6-14.14,10.24-0.27.55,0.61,0.73,0.91,0.38,2.51-2.87,7.79-12.61,12.59-9.86,0.5,0.29,1.21-.37.64-0.76h0Z"/>
   <path d="M45.7,197.2c1.78-2,.5-4.57-0.29-6.71-0.51-1.37-1.24-3-.88-4.53,0.64-2.68,4.13-2.94,6.23-3.78a0.73,0.73,0,0,0-.25-1.43c-3.5.13-8.14,2.07-8.1,6.17,0,3,3.54,6.82,1.91,9.71-0.46.81,0.93,1.08,1.38,0.58h0Z"/>
   <path d="M43.53,185.64c1.53-2.72,4-4.14,6.52-5.81,0.53-.36-0.07-0.9-0.54-0.72a13.2,13.2,0,0,0-6.93,6.26c-0.28.57,0.7,0.74,1,.27H43.53Z"/>
   <path d="M99,186.87a15,15,0,0,0-1.2-9.44c-1.16-2.4-4.26-4.87-7.06-3.77a0.55,0.55,0,0,0-.13,1c1.15,0.6,2.43.55,3.54,1.33a7.88,7.88,0,0,1,2.49,3.11,16.8,16.8,0,0,1,1.06,7.71c0,0.77,1.17.75,1.32,0.07h0Z"/>
   <path d="M99.17,175.84c-0.74-1.62-5.14-2.28-6.54-2.7-3.69-1.1-7.62-2.66-11.49-2.9-0.57,0-1.16.72-.51,1.09,2.79,1.55,6.21,2.08,9.26,2.93,1.51,0.42,7.08,1.31,7.71,2.24,0.5,0.73,2,.26,1.56-0.66h0Z"/>
   <path d="M45.72,185c2.23-4-.82-6.8-4.08-8.88l-0.44,1.49c2.45-.71,4.87-1.52,7.28-2.36s5-1.3,7-2.67a0.56,0.56,0,0,0-.35-1c-2.26,0-4.4,1-6.51,1.78-2.64,1-5.28,1.93-8,2.74a0.78,0.78,0,0,0-.19,1.41c2.56,1.58,5.4,3.77,3.92,7.12-0.36.81,1,1,1.33,0.38h0Z"/>
   <path d="M45.57,178.69c6-5.23,12.93-7.57,19.76-11.33a0.58,0.58,0,0,0-.38-1.09,41.68,41.68,0,0,0-20.57,11.52c-0.65.69,0.59,1.42,1.19,0.9h0Z"/>
   <path d="M98.78,175.22c-2.39-2.7-2.14-6.49-3.53-9.64-1.47-3.32-4.75-4.82-8.27-4.49a0.42,0.42,0,0,0-.12.82c2,0.56,4.18.92,5.64,2.51a10.23,10.23,0,0,1,2,4.38c0.71,2.59,1.2,5.27,3.44,7,0.4,0.31,1.22-.09.79-0.57h0.05Z"/>
   <path d="M94.26,165.13c-2.32-2.37-5.22-3.87-8-5.63a23.07,23.07,0,0,1-4.39-3.37c-1.41-1.47-2-3.12-2.92-4.86a0.63,0.63,0,0,0-1.13.2c-0.42,7.32,11,10.52,15.4,14.4,0.51,0.45,1.61-.16,1-0.75h0Z"/>
   <path d="M77,152h0.21c0.49,0,1.08-.5.64-1-1-1.12-5.07-.55-6.36-0.54-2.6,0-7.29-.57-9.41,1.28a0.44,0.44,0,0,0,.27.8c2.74,0.32,5.81-.46,8.59-0.5h4a5.92,5.92,0,0,0,1.46,0c0.59-.17.82,0.22,0.33-0.22l0.45-1h0c-0.8,0-1.11,1.14-.17,1.17h0Z"/>
   <path d="M59.62,153.28c-1.5,4.13-4.68,6.9-7.63,10-0.43.45,0.36,0.78,0.72,0.55a20.44,20.44,0,0,0,8.46-10.09c0.34-.95-1.24-1.27-1.54-0.44h0v0Z"/>
   <path d="M57.26,157.92c-3.65,4.57-9.5,6.1-13.51,10.2-1.06,1.08-2.83,3.16-2.73,4.83,0.12,1.84,2.73,3.49,4.18,4.45,0.73,0.48,1.82-.56,1-1.14-0.62-.43-2.85-1.95-3.27-2.71q-1.11-.31-0.27-1.38l0.35-.8c1.18-2.42,3.43-4,5.62-5.46,3.4-2.23,7.22-4,9.52-7.5,0.38-.57-0.5-0.95-0.86-0.49h0Z"/>
   <path d="M43.77,178.21a33,33,0,0,1,.32-5.51c0.35-2,1.39-3.27,2.17-5,0.26-.59-0.54-0.75-0.92-0.52-3.38,2-3,7.63-3,11,0,0.83,1.44.84,1.44,0.07h0v0Z"/>
   <path d="M99.76,174.55c-6.08-.36-12.08-3.79-17.87-5.42-0.4-.11-1,0.46-0.45.7,5.45,2.58,12.16,5.12,18.24,5.29,0.4,0,.53-0.54.08-0.57h0Z"/>
   <path d="M97.47,173.2c-4.6-3.84-13.35-5.16-19.14-4.74a0.38,0.38,0,0,0,0,.75c6.12,0.71,12.91,1.69,18.41,4.66,0.39,0.21,1.2-.28.73-0.67h0Z"/>
   <path d="M100.75,184.41c-5.26-3.14-12.29-4.09-18.31-3.92-0.49,0-.67.67-0.1,0.71,5.83,0.37,12.43,1.38,17.69,4.08,0.57,0.29,1.41-.46.73-0.86h0Z"/>
   <path d="M101.68,197.72c-4.11-4.1-10.23-7.07-15.76-8.64-0.46-.13-1.1.52-0.52,0.81,5.1,2.55,10.74,4.89,15,8.74,0.62,0.55,1.95-.21,1.25-0.9h0Z"/>
   <path d="M81,202.38c-4-3.8-9.82-6.11-15.37-5.33-0.46.06-.69,0.79-0.13,0.89,5.39,0.93,10.05,1.41,14.25,5.35,0.61,0.58,2-.23,1.25-0.9h0Z"/>
   <path d="M74.59,199.21c1.7-.68,3.39-0.87,4.91-1.93a0.59,0.59,0,0,0-.55-1,60.22,60.22,0,0,1-13.79,1.88c-1,0-1.32,1.41-.21,1.42a56,56,0,0,1,9.78.64V198.9a56,56,0,0,1-8.39,1.59,0.39,0.39,0,0,0,0,.77,22.09,22.09,0,0,0,9.07-1.09,0.68,0.68,0,0,0,0-1.32,53,53,0,0,0-10.22-.69L65,199.58a50.55,50.55,0,0,0,14.39-2.17l-0.87-.86c-1.19,1.13-2.84,1.34-4.29,2-0.61.26-.15,1,0.41,0.75h0Z"/>
   <path d="M65.6,207.11a14.16,14.16,0,0,0-11.28-4,0.39,0.39,0,0,0,0,.77c3.73,0.48,7.33,1.41,10.18,4,0.53,0.49,1.69-.19,1.09-0.79h0v0Z"/>
   <path d="M80.5,207.48c4.22-1.18,9.4-2.23,12.93-4.94a0.5,0.5,0,0,0-.46-0.87c-4.37,1.19-8.53,3.28-12.9,4.57a0.66,0.66,0,0,0,.43,1.24h0Z"/>
   <path d="M134.52,325.49c3.12-1.89.62,3.23,0.16,4.15a51,51,0,0,1-3.47,5.84A83.52,83.52,0,0,1,122.52,346c-6.45,6.77-13.73,12.45-21,18.3-0.32.25,0.1,0.57,0.38,0.38a124,124,0,0,0,21.89-18.83c5.7-6.09,11.36-13.12,13.51-21.35a0.25,0.25,0,0,0-.29-0.23,5.63,5.63,0,0,0-2.76.93c-0.24.15,0.07,0.39,0.27,0.27h0v0Z"/>
   <path d="M101.87,371.65c4.76-3.17,6.69-9.85,8.26-15,2.11-7,4.07-14.09,5.95-21.12,0.1-.38-0.54-0.36-0.68-0.11-2.87,5.13-3.6,11.82-5.11,17.44-1.79,6.68-3.78,13.52-8.75,18.55-0.2.2,0.16,0.36,0.33,0.25h0Z"/>
   <path d="M134.92,330.7l-0.37.31a0.17,0.17,0,0,0,.06.32c1.43,0.46,3-.81,4-1.57,0.43-.3-0.06-0.71-0.44-0.58-8.79,2.94-17.48,2.12-26.54,2.76a0.23,0.23,0,0,0,0,.45,93.89,93.89,0,0,0,14.27,0,51.19,51.19,0,0,0,6.34-.82c0.92-.18,1.81-0.42,2.72-0.63,1.94-.46,1.88-1.57.17,0,0.21-.19-0.08-0.43-0.27-0.27h0Z"/>
   <path d="M134.1,334a67.78,67.78,0,0,1-11.21,15.32c-0.18.19,0.17,0.33,0.32,0.18a59,59,0,0,0,11.46-15.34c0.17-.33-0.42-0.45-0.57-0.16h0Z"/>
   <path d="M109.12,360.9a135.76,135.76,0,0,0,13.73-14.36c2.26-2.63,4.52-5.25,6.89-7.78,0.71-.76,2.72-3.1.73-1.59a42.85,42.85,0,0,0-3.47,3.61c-3.05,3-6.32,5.72-9.62,8.41-1.29,1-2.6,2.09-3.9,3.14a31.65,31.65,0,0,0,2.63-2.33c2.22-2.41,4.35-4.92,6.65-7.27a49.72,49.72,0,0,1,4.64-4.34c0.69-.54,2.29-2.43.47-0.21-4.11,5-9.44,8.8-14.88,12.25,0.14-.09-3.36,2.32-1.76,1.52a16.12,16.12,0,0,0,2.57-2.42c2.56-2.45,5.08-5,7.64-7.4,1.7-1.63,3.42-3.26,5.19-4.82,0.59-.52,3.78-2.16,2.09-3-0.38-.18-7.74,5.48-8.51,6a40.08,40.08,0,0,1-5,3.08q-1.51,1.28.62-.73l1.8-1.82q4-4.1,7.85-8.41c0.34-.39-0.24-0.81-0.61-0.61a53.86,53.86,0,0,0-10.66,7.51c-0.32.28,0.11,0.61,0.4,0.4,1.74-1.26,3.45-2.56,5.21-3.79,1-.72,5.08-4.53,2.47-1.24-2.83,3.57-6.35,6.74-9.56,10-0.31.31,0.21,0.69,0.52,0.52,6.12-3.37,12.12-6.81,17.48-11.33,0.52-.44-0.2-1-0.65-0.65-7.22,6.09-13.62,13-20.59,19.4-0.4.36,0.12,0.73,0.5,0.5,7.43-4.48,15.33-9.37,20.13-16.81,0.24-.37-0.41-0.54-0.64-0.37-6.64,4.93-11.59,11.56-17.32,17.45-0.24.25,0.21,0.5,0.43,0.32,7-5.74,14.33-11,20.15-18,0.35-.42-0.38-0.71-0.68-0.39-7.93,8.29-14.39,17.88-23.06,25.47-0.1.09,0,.2,0.13,0.13h0v0Z"/>
   <path d="M136,316.92c4.37-6.76,1.43-15.78-1.38-22.57A113,113,0,0,0,120.58,270c-0.13-.17-0.52,0-0.39.16a153.84,153.84,0,0,1,12.23,20.91c3.41,7.33,7.88,18,3,25.59-0.21.32,0.42,0.45,0.6,0.17h0v0Z"/>
   <path d="M135.26,317.51c2.8-10.17-2.81-21.85-7.13-30.78-5.31-11-11.75-21.29-17.55-32-0.11-.2-0.5-0.06-0.4.17,4.8,10.17,11.08,19.62,16.11,29.68,4.76,9.53,11.22,21.9,8.55,32.89-0.06.24,0.36,0.23,0.42,0h0v0Z"/>
   <path d="M130.62,294.9c1.49-3-4-9-5.52-11.1-3.61-5.07-7.86-9.79-11.16-15.06-0.13-.21-0.57-0.06-0.43.18,2.53,4.41,6,8.37,9,12.43,1.65,2.21,9.16,10.36,7.68,13.41-0.13.28,0.35,0.37,0.47,0.13h0Z"/>
   <path d="M43.93,243.91c-5.56,6.83-12.2,12.67-17.84,19.42-0.31.37,0.33,0.61,0.6,0.34,6.19-6.26,12.59-12.41,18.16-19.24,0.46-.56-0.52-1-0.91-0.52h0Z"/>
   <path d="M18.11,273c8.58-9.5,13.9-21.71,24-29.83,0.65-.52-0.23-1.25-0.8-0.8a112.87,112.87,0,0,0-12.46,11.88c-1.93,2.1-3.82,4.24-5.72,6.36-1.12,1.26-2.32,2.49-3.4,3.78-0.32.37-3.17,3.62-1.33,1.82,3.76-3.69,6.43-9.35,9.17-13.81A150.67,150.67,0,0,1,39.4,235.67c0.36-.44-0.38-0.72-0.7-0.4-9.25,9.25-15.25,22-22.55,32.73-0.22.32,0.25,0.48,0.47,0.27,8.45-8.31,16.3-17.58,25.5-25.07l-0.8-.8c-9.87,8.53-15.35,20.58-24,30.17-0.42.46,0.43,0.84,0.79,0.45h0v0Z"/>
   <path d="M73.91,201.59C74.56,216.12,77,230.7,80,244.9c0.09,0.41.82,0.28,0.75-.13-2.39-14.4-3.85-28.91-5.9-43.35-0.08-.54-1-0.35-1,0.17h0Z"/>
   <path d="M67.66,200.55c0.12,0-4,19.07-4.45,20.87C59.72,236,54.52,250,51.7,264.8c-0.93,4.86-4.76,17,4.24,16.69,7.11-.26,11.59-10.81,9.83-16.79a0.75,0.75,0,0,0-1.18-.33c-7,4.85-5,17.06,3.7,18.39a0.76,0.76,0,0,0,.81-0.57c0.71-5,1-9.49-.71-14.32-0.22-.6-1.37-0.34-1.41.25-0.52,6.47.89,14.15,6.15,18.46a0.83,0.83,0,0,0,1.27-.22c2.06-5.47,2.33-12.39,0-17.82-0.28-.65-1.29-0.3-1.43.25a14.8,14.8,0,0,0,2.63,13c1.75,2.09,4.6,3.81,7.07,1.83,3.69-3,2.49-10.22,2.08-14.2a106.42,106.42,0,0,0-5-24.05c-0.25-.72-1.63-0.51-1.41.25,2.8,9.4,5.15,19.49,5.25,29.35,0,2.15.11,5.61-1.57,7.24-2,1.91-4,.26-5.43-1.55a13.75,13.75,0,0,1-2.13-11.79l-1.43.25c2.19,5.09,1.92,11.72,0,16.85l1.27-.22c-5-4.1-6.33-11.4-5.85-17.54l-1.41.25c1,2.68,2.45,8.25,1,11-1.58,3-4.24-.17-5.24-2.23-2-4.11-1.11-9.33,2.73-12L64.35,265c1.34,4.62-1.09,11.21-5.1,13.93-8.51,5.76-7.87-5.56-6.94-10,2.5-11.92,5.28-23.6,8.74-35.3,0.69-2.32,9.42-33.92,6.74-33.81-0.53,0-.72.77-0.11,0.77h0Z"/>
   <path d="M70,152.46c4.71-3.78,1.89-15,1.33-20-1.5-13.12-.92-26.38-0.53-39.56,0.42-14.45.79-28.85,0-43.29C69.87,33.35,68.13,17.14,68.06.84c0-1.1-1.91-1.11-1.9-.1,0.06,13.82,1.28,27.58,2.25,41.36,1.08,15.29,1.14,30.49.74,45.81-0.33,12.76-1,25.67-.14,38.43,0.28,4.2,1,8.37,1.39,12.56,0.36,3.71,1.46,9.75-1,13-0.32.42,0.31,0.78,0.66,0.5h0Z"/>
   <path d="M138.73,342.44c-0.92,6.27-6,11.45-10.4,15.6-4.58,4.31-9.62,8.08-14.56,12-0.13.1,0,.24,0.16,0.16a159.14,159.14,0,0,0,15.26-12.41c4.25-4.1,9-9.18,9.83-15.31,0-.16-0.26-0.17-0.29,0h0v0Z"/>
   <path d="M104.88,376.29c7.12-2.74,12.52-9,18.16-13.89a59.59,59.59,0,0,0,14.22-18.75c0.07-.14-0.17-0.18-0.23-0.07-4,7.12-8.66,13.66-14.85,19-5.49,4.75-10.46,10.78-17.38,13.5-0.15.06,0,.24,0.1,0.18h0Z"/>
   <path d="M137.63,342.43c-4.52,10-14.48,16.44-22.7,23.22-0.13.11,0,.25,0.16,0.16,8.41-6.7,18.25-13.11,22.69-23.33,0-.09-0.12-0.12-0.15,0h0v-0.05Z"/>
   <path d="M139,329.45c0.78-.61.56-3.56,0.64-4.41q0.51-5.71.92-11.43,0.46-6.3.86-12.6c0.16-2.51.61-5.25,0.27-7.76,0-.17-0.31-0.13-0.33,0-0.9,6.4-.81,13.07-1.28,19.51-0.27,3.7-.54,7.4-0.85,11.09-0.11,1.28-.23,2.57-0.34,3.85a7.63,7.63,0,0,1-.09,1.56c-0.1.14,0.1,0.25,0.21,0.16h0v0Z"/>
   <path d="M137.51,321.89c1.76-1.15,1.67-3.93,1.63-5.78-0.07-3.23-.65-6.42-0.78-9.66-0.4-9.88-.1-20.19-2.82-29.78,0-.16-0.34-0.11-0.31,0,1.85,8.67,2.26,17.39,2.57,26.22,0.11,3.28.29,6.49,0.67,9.74,0.28,2.48,1.21,7.29-1.14,9-0.16.12,0,.28,0.19,0.19h0v0Z"/>
   <path d="M137.92,301l1.16,0.3a0.22,0.22,0,0,0,.29-0.2c-1.16-6.9-4.9-13-7.27-19.52-2.26-6.21-4.09-13.07-8.22-18.36-0.1-.12-0.39,0-0.29.16,3.55,5.81,5.69,12,8,18.4,1.18,3.22,2.61,6.31,4,9.44,0.72,1.63,1.41,3.28,2,5,0.34,1,.65,1.92.91,2.91,0.2,0.79.76,1.88-.43,1.6-0.21,0-.4.25-0.15,0.31h0v0Z"/>
   <path d="M135.48,296.19c0.52-2.48-.63-5.06-1.68-7.25-1.39-2.89-3.16-5.56-4.79-8.31-4.23-7.12-6.73-15.15-11.89-21.72,0-.06-0.18,0-0.13.08,4.67,6.63,7.44,14.13,11.43,21.12,1.38,2.42,2.94,4.73,4.27,7.19s3.23,5.86,2.6,8.89c0,0.12.18,0.12,0.21,0h0Z"/>
   <path d="M136.2,296.54l0.77,0.54a0.1,0.1,0,0,0,.14,0c0.29-.74-0.6-2-0.91-2.63a57.1,57.1,0,0,0-2.89-5.28c-2.1-3.46-4.44-6.76-6.58-10.19-4.52-7.25-7.57-15.3-11.95-22.63,0-.06-0.15,0-0.12,0,4,7,7,14.66,11.18,21.6,1.94,3.2,4.08,6.27,6.1,9.42,1,1.58,2,3.19,2.89,4.84q0.62,1.13,1.17,2.28c0.2,0.42,1.56,2.79.29,1.93-0.08,0-.19.06-0.1,0.12h0Z"/>
   <path d="M131.26,301.73c0.65,0.53,1.37.93,2,1.47,0,0,.15,0,0.11-0.06-8.35-13.35-15.51-27.58-25-40.16,0,0-.16,0-0.12.07,4.89,6.77,9.27,13.86,13.5,21.06,2.09,3.55,4.15,7.11,6.26,10.64q1.63,2.73,3.32,5.42c0.76,1.22,2.88,3.85,0,1.54h0Z"/>
   <path d="M140.26,305.65c4,0-2.62,28.28-3.9,31.52-0.07.18,0.22,0.23,0.29,0.08,1.59-3.35,8.45-31.88,3.66-31.9-0.21,0-.27.29,0,0.29h-0.05Z"/>
   <path d="M132.4,342.24c1.52,0.69-7.59,10.86-8.64,12A103.21,103.21,0,0,1,98.4,374.15a0.06,0.06,0,0,0,0,.12l0,0a101.08,101.08,0,0,0,26.2-20.64c0.93-1,9.79-10.63,7.88-11.5-0.12,0-.28.11-0.14,0.17h0v0Z"/>
   <path d="M96.06,198.81c2.12,0.83,1.55-18.6,1.59-4.17a0.2,0.2,0,0,0,.4,0c0-3.12.28-6.27-.31-9.35a0.19,0.19,0,0,0-.35,0q-0.23.6-.51,1.19c-0.05.11,0.14,0.15,0.19,0.05,0.69-1.27.57,0.88,0.61,1.53,0.09,1.5-.39,3.7,0,5.14s0.39-.12.37-0.75a33.34,33.34,0,0,0-.25-3.66c0-.23-0.43-0.18-0.46,0-0.11.94-.38,10.11-1.18,9.81-0.12,0-.22.13-0.08,0.18h0Z"/>
   <path d="M96.6,191.45c0,0.17,0,2.12-.14,1.47a5,5,0,0,1-.07-0.85c0-.78-0.07-1.57-0.09-2.36,0-1.09,0-2.2-.1-3.28,0-.11-0.21-0.07-0.2,0s0,0.23,0,.34,0.17,0.07.17,0c0-.62-0.2-0.18-0.22.23v2a17,17,0,0,0,.28,4.17,0.13,0.13,0,0,0,.23,0,5.82,5.82,0,0,0,.26-1.77,0.08,0.08,0,0,0-.16,0h0Z"/>
   <path d="M96.36,192.87c-0.82.65-1.7-2.8-1.82-3.18a12.92,12.92,0,0,0-1.28-3.22c0-.07-0.19,0-0.14.06C94,188.1,94.34,190,95,191.69c0.18,0.46.7,1.87,1.41,1.24,0,0,0-.1-0.06-0.06h0Z"/>
   <path d="M97.46,191.75c0-.7-3.16-1.35-3.62-1.49a34.41,34.41,0,0,0-7.61-1.84c-0.14,0-.25.21-0.07,0.24,2,0.38,3.93.89,5.87,1.44,0.45,0.13,5.06,1.25,5.05,1.63a0.19,0.19,0,0,0,.38,0h0v0Z"/>
   <path d="M98.9,191.17c0.53-1.76-11.55-2.94-13-3-0.15,0-.19.18,0,0.21,0.83,0.12,12.92,1.86,12.65,2.76-0.07.23,0.29,0.27,0.35,0.06h0v0Z"/>
   <path d="M95.07,182.33a3.12,3.12,0,0,0,.61.62,0.29,0.29,0,0,0,.37-0.19h0c0.16-1.5-2.65-3.56-3.68-4.41a49.47,49.47,0,0,0-6.07-4.15c-0.13-.08-0.31.09-0.16,0.19,2,1.47,4.14,2.84,6,4.46a27.54,27.54,0,0,1,2.35,2.32l0.38,0.46q1.35,1.36.75,0.53c-0.6-.83-0.37-0.27-0.26-0.2-0.24-.16-0.61.19-0.32,0.38h0Z"/>
   <path d="M95.45,180.4c0-1.33-2.58-2-3.52-2.33a21.62,21.62,0,0,0-7.45-1.59c-0.17,0-.23.23,0,0.25a27.75,27.75,0,0,1,5.46,1.12c0.92,0.26,5.11,1.19,5.1,2.52a0.23,0.23,0,0,0,.45,0h0Z"/>
   <path d="M87.79,180.3a19,19,0,0,0,3.55,1.19c0.26,0.07.54-.23,0.27-0.42a8.49,8.49,0,0,0-5.67-1.41c-0.21,0-.3.29,0,0.31,1.91,0.15,3.79.32,5.38,1.5l0.27-.42a18.34,18.34,0,0,1-3.43-1.13c-0.26-.12-0.64.24-0.33,0.39h0Z"/>
   <path d="M91.41,198.58l0.57-.46a0.26,0.26,0,0,0,.12-0.26c-0.17-1.43-3.79-2.54-5-3A41.37,41.37,0,0,0,79,192.41,47.77,47.77,0,0,0,62.88,192a0.12,0.12,0,1,0,0,.24,55.41,55.41,0,0,1,15.88.72,41,41,0,0,1,6.89,2,34.39,34.39,0,0,1,3.83,1.76c0.74,0.4,2.17.81,1.34,1.67-0.28.29,0.28,0.54,0.52,0.3h0Z"/>
   <path d="M88.26,197.15l1.46-.28a0.18,0.18,0,1,0,0-.37h0c-9.69-1-19.07-5.4-28.85-2.56-0.18.05-.15,0.3,0,0.25,5.4-1.3,10.67-.83,16,0.31,2.22,0.47,4.43,1,6.65,1.47q1.5,0.3,3,.54c0.57,0.09,1.15.13,1.72,0.23s1.21-.22-0.16.06a0.18,0.18,0,1,0,0,.36h0.18Z"/>
   <path d="M67,204.62c-7.19-.56-12.47-8.68-10.1-15.47a0.12,0.12,0,0,0-.22-0.06c-3.05,7,2.94,15.4,10.26,16,0.3,0,.39-0.4.06-0.42h0v-0.05Z"/>
   <path d="M64.2,204.91c-4.69-1.24-10.25-5.18-12.17-9.74-0.06-.14-0.35-0.06-0.31.09,1.24,4.83,7.73,8.91,12.28,10.08,0.3,0.08.55-.34,0.2-0.44h0Z"/>
   <path d="M59.47,205.5c-4.51-.44-9.05-4.08-9.19-8.84,0-.15-0.29-0.12-0.3,0-0.37,5,4.86,8.8,9.43,9.24a0.21,0.21,0,0,0,.06-0.42h0v0Z"/>
   <path d="M46.72,203.18c1.72,3.19,6.24,3.75,9.5,3.84,0.22,0,.27-0.26,0-0.3-3.14-.5-7.31-0.65-9.12-3.72-0.12-.21-0.54-0.06-0.42.18h0Z"/>
   <path d="M115.77,263.61c0.35-2.82-3.3-6.13-5-7.95a67.87,67.87,0,0,0-8.77-8.17c-0.11-.08-0.33.08-0.21,0.19,2.58,2.34,5.13,4.7,7.56,7.21a53.84,53.84,0,0,1,3.89,4.4c0.87,1.12,2.28,2.78,2.17,4.3,0,0.21.33,0.21,0.36,0h0v0Z"/>
   <path d="M115.44,269l0.61,0.58c0.14,0.14.51,0,.46-0.19a4.57,4.57,0,0,0-1.39-1.8c-1.17-1.3-2.32-2.62-3.47-4-2.22-2.58-4.38-5.2-6.69-7.71-0.13-.14-0.41,0-0.27.2,2.14,2.64,4.34,5.23,6.55,7.81q1.56,1.82,3.15,3.6c0.29,0.33,1.32,1.75,1.91,1.62a3.36,3.36,0,0,0-.56-0.51c-0.23-.15-0.59.18-0.31,0.37h0v0Z"/>
   <path d="M114.39,274.84c-2.22-4.22-5.83-7.4-9.12-10.77-0.14-.15-0.46,0-0.3.22,3.06,3.52,6.71,6.58,8.92,10.76,0.14,0.26.65,0.07,0.5-.21h0Z"/>
   <path d="M111.5,247.17c-1.52.15-4.27-2.57-5.23-3.43a13.67,13.67,0,0,1-3.8-7.22c-1.25-5.15-.8-10.53-1.83-15.71,0-.19-0.36-0.13-0.34.06,0.7,6.27.13,13.08,2.67,19a12.27,12.27,0,0,0,4.4,5.33c1,0.7,2.85,2.44,4.18,2.27a0.14,0.14,0,0,0,0-.28h0Z"/>
   <path d="M101.52,235.3c-4.2-9-3.16-19.44-4.67-29,0-.18-0.35-0.12-0.33.06,0.47,5.2.74,10.41,1.3,15.6,0.49,4.59,1.16,9.41,3.34,13.54,0.1,0.19.46,0.05,0.37-.15h0V235.3Z"/>
   <path d="M45.26,200.46c-0.19,8.86-2.72,17.39-3.46,26.19,0,0.17.28,0.17,0.3,0,1.18-8.72,3.53-17.34,3.52-26.18a0.18,0.18,0,0,0-.36,0h0Z"/>
   <path d="M39.82,237.8c3-3,3.53-7.87,4.35-11.83,1.3-6.27,3.9-12.22,5.17-18.52,0-.1-0.16-0.1-0.18,0-1.49,5.83-3.86,11.46-5.19,17.31-1,4.24-1.26,9.61-4.49,12.86-0.19.19,0.18,0.34,0.33,0.19h0Z"/>
   <path d="M49.13,206c-1.92,11.7-4.51,23.65-11.63,33.4-0.11.15,0.13,0.26,0.24,0.14,7.8-9.21,10-21.95,11.65-33.52,0-.15-0.24-0.15-0.26,0h0v0Z"/>
   <path d="M35.59,242.41a3,3,0,0,0,2.53-2.27c1-2.46,2.21-4.82,3-7.36,1.75-5.35,2.83-10.9,4.41-16.3a0.1,0.1,0,0,0-.19,0c-1.39,4.18-2.25,8.51-3.41,12.75a55.63,55.63,0,0,1-2.28,6.87c-0.77,1.83-1.89,5.76-4.12,6.25h0Z"/>
   <path d="M38.59,226.75c2.43-1.42,1.6,1.06,1.3,2.44a32.81,32.81,0,0,1-1.49,4.86,64.88,64.88,0,0,1-4.13,8.48c-3,5.24-6.44,10.19-9.27,15.52-0.07.13,0.16,0.17,0.22,0.06,5.82-10,14.66-20.29,15.47-32.32a0.15,0.15,0,0,0-.16-0.14h0a5.57,5.57,0,0,0-2.11.91c-0.17.1,0,.27,0.19,0.19h0Z"/>
   <path d="M28.74,250.84c0.33-.55,1-1.32,0-0.63a11.16,11.16,0,0,0-1.43,1.57l-2.59,2.85c-1.81,2-3.61,4-5.33,6.14a56.45,56.45,0,0,0-8.11,12.69c-0.06.13,0.16,0.17,0.22,0.06,4.46-9.22,11.73-16.45,18.35-24.11,0.13-.15-0.14-0.26-0.25-0.14a7.68,7.68,0,0,0-1.17,1.49c-0.09.15,0.19,0.21,0.27,0.08h0Z"/>
   <path d="M42.43,227.57a57.71,57.71,0,0,0,3.07-12.9c0.71-4.71,1.37-9.45,1.9-14.19,0-.21-0.32-0.2-0.36,0-1.93,9-2.34,18.15-4.93,27.06a0.17,0.17,0,0,0,.32.05h0v0Z"/>
   <path d="M46.21,205.5c2.34-2.53,1.89-6.64,1.7-9.81-0.29-4.61-.65-8.78.68-13.25,0.06-.19-0.27-0.21-0.35-0.1-2,2.66-1.31,7.17-1.09,10.25,0.28,4,1.4,9.33-1.23,12.74-0.15.19,0.17,0.31,0.3,0.17h0Z"/>
   <path d="M47.18,193.21c0.49-4.68-1-9.39,4.18-11.82,0.2-.09,0-0.3-0.13-0.24-5.61,1.8-4.08,7.43-4.55,12a0.25,0.25,0,0,0,.49,0h0v0.06Z"/>
   <path d="M47.64,185.76c4.61-3.44,10.34-3.59,15.86-3.8,0.16,0,.22-0.22,0-0.23-5.61-.18-11.54.25-16.15,3.77-0.22.16,0.07,0.4,0.26,0.26h0Z"/>
   <path d="M69.13,166.83c-6.6-1.41-13.34,5.32-17.64,9.43-0.1.1,0.09,0.22,0.18,0.14,4.31-3.82,11-10.55,17.29-9.21,0.24,0.05.46-.3,0.17-0.36h0Z"/>
   <path d="M46.53,181.66a53.41,53.41,0,0,1,22.54-13.3c0.27-.08.23-0.44-0.07-0.38-8.59,1.64-16.76,7.41-22.84,13.47-0.21.2,0.19,0.38,0.37,0.21h0Z"/>
   <path d="M43.34,178.84c2.75-2.21.44-5.51,2.07-8.29,0.89-1.51,2.72-1.81,4.09-2.72a14.84,14.84,0,0,0,3-2.86c4.19-5,6.76-11.73,13.43-13.81a0.16,0.16,0,1,0-.06-0.32c-5.93,0-9.56,7.85-12.54,11.9a22.53,22.53,0,0,1-3.49,4c-1.17,1-2.65,1.37-3.86,2.26a4.73,4.73,0,0,0-1.71,2.66c-0.64,2.3.88,5-1.31,6.81-0.31.25,0.11,0.59,0.38,0.37h0Z"/>
   <path d="M90.78,170a3.47,3.47,0,0,0,1.47.92c0.11,0,.32-0.07.23-0.21-3.56-6.18-11.15-9.32-16.67-13.41-0.1-.07-0.3.08-0.19,0.17a103.28,103.28,0,0,0,8.6,6,43.17,43.17,0,0,1,5,3.85A19.21,19.21,0,0,1,91,169.21a6.53,6.53,0,0,1,.53.69q0.67,0.71.07,0.32A3.26,3.26,0,0,1,91,169.8c-0.13-.09-0.32.09-0.17,0.2h0v0Z"/>
   <path d="M76.79,238.7c3.67,2,1.9,6.76,2,10.08,0,0.13.26,0.11,0.27,0,0.25-3.41,1.75-8.34-2.07-10.31-0.16-.08-0.4.14-0.21,0.24h0Z"/>
   <path d="M79.65,249c-1.56-8.09-2.74-16.1-3.62-24.3-0.81-7.56-1.25-16.08-4.2-23.17a0.19,0.19,0,0,0-.35.1c0.73,3.83,1.84,7.56,2.47,11.42s1.13,8.12,1.58,12.2c0.87,7.89,1.39,16.2,3.85,23.8,0,0.14.3,0.1,0.27,0h0V249Z"/>
   <path d="M75.57,205.26c-1.79,1.64-7.58,3.82-8.42.42a0.15,0.15,0,0,0-.29,0c-0.57,4.33,7.65,1.16,9.08-.17,0.21-.2-0.18-0.44-0.37-0.28h0v0Z"/>
   <path d="M68.16,206.33c0.06,0,.08-0.08,0-0.08s-0.08.08,0,.08h0Z"/>
   <path d="M69.26,207c2.36,0.57,4.58.83,6.85-.2,0.28-.13.13-0.44-0.14-0.41-1.34.14-2.67,0.39-4,.5a13.69,13.69,0,0,1-2.71,0c-2.58-.32-0.36-1.22.66-1.51,2.55-.74,5.27-0.54,7.89-0.87l-0.21-.4c-3,2.7-7.06,2.62-10.86,2.34-0.18,0-.32.26-0.09,0.31,3.82,0.8,8.39.44,11.35-2.35,0.19-.17-0.08-0.39-0.26-0.35-3.67.71-7.29,0.32-10.57,2.42a0.17,0.17,0,0,0-.06.23l0.06,0.06a10.36,10.36,0,0,0,5.24.56,17.61,17.61,0,0,0,2.94-.48,10.74,10.74,0,0,1-6,0c-0.14,0-.26.17-0.1,0.21h0V207Z"/>
   <path d="M67,207.29c8,0.25,17.74-2.58,23.19-8.75,0.18-.2-0.16-0.38-0.33-0.25C83,203.45,75.85,207.13,67,207c-0.18,0-.24.25,0,0.26h0Z"/>
   <path d="M82.06,203.24c0.31,0.11-2.43.95-2.87,1-0.88.19-1.76,0.36-2.64,0.58-4.55,1.14-8.89,2-13.56,1-0.15,0-.37.18-0.17,0.26,4.94,2.08,10.47,0,15.39-1.1,0.33-.07,6.28-1.43,4-2.08-0.21-.06-0.38.22-0.14,0.3h0v0Z"/>
   <path d="M76.64,199.8c1.31-.24,2.09-0.2,2.31-1.64a0.25,0.25,0,0,0-.19-0.26,12.57,12.57,0,0,0-8.69.88l0.27,0.49,3.49-1.74c0.34-.17.18-0.57-0.18-0.53a62.64,62.64,0,0,0-8.14,1.48,0.26,0.26,0,1,0,.09.5,4.71,4.71,0,0,0,1.6-.64l-0.47-.27c-0.35.88-1.09,2.62-2.19,2.79q-0.47.63-.6,0.13a3.8,3.8,0,0,1,1-2.41l-0.49-.28L63.26,200c-0.43.49-.23,0.86-0.31,0.16-0.16-1.44.73-3.18,1.45-4.34H63.79l1.14,3.49,0.6-.25a10,10,0,0,0-6.64-2.33c-0.27,0-.36.35-0.06,0.38A12.19,12.19,0,0,1,65,199.48c0.18,0.13.71,0.08,0.6-.25-0.39-1.16-.78-2.33-1.18-3.49a0.34,0.34,0,0,0-.61,0,10.07,10.07,0,0,0-1.38,5.65c0,0.18.32,0.18,0.4,0.06,0.67-1,1.42-1.9,2.1-2.87,0.22-.32-0.28-0.53-0.49-0.28a6.16,6.16,0,0,0-1.22,3.32,0.3,0.3,0,0,0,.42.24,5.89,5.89,0,0,0,3.65-3.63c0.11-.3-0.27-0.4-0.47-0.27l-1.31.52,0.09,0.5a80.22,80.22,0,0,1,8.15-1.43L73.56,197l-3.49,1.75a0.28,0.28,0,0,0,.25.5h0a13.12,13.12,0,0,1,4.73-1.23c0.46,0,2.61-.17,2.79.17,0.45,0.89-.8,1.09-1.28,1.19a0.21,0.21,0,0,0,0,.42h0.06v0Z"/>
   <path d="M125.83,339.36c2.18-1.2.63,2.18,0.22,3.08a21.13,21.13,0,0,1-2.37,3.87,49.26,49.26,0,0,1-6.5,6.89c-4.13,3.73-8.66,7-13,10.45-0.06,0,0,.12.08,0.08a166.68,166.68,0,0,0,14.11-11.3c3.84-3.59,8.47-8.21,9-13.75a0.13,0.13,0,0,0-.12-0.14h0a3.26,3.26,0,0,0-1.49.59,0.13,0.13,0,0,0,.06.25l0.06,0h0Z"/>
   <path d="M106.59,364.93c5.7-1.44,8.83-7.6,12-12,5.22-7.16,11.78-13.28,17.13-20.34,0.07-.09-0.08-0.16-0.15-0.08-5.23,6.37-10.84,12.43-16,18.84-3.73,4.62-6.76,11.83-13,13.42-0.11,0-.09.18,0,0.15h0Z"/>
   <path d="M128.86,336.91c-0.17,4.94-4.2,9.25-7.43,12.62-3.41,3.56-7.21,6.7-10.85,10-0.11.1,0,.22,0.14,0.14a143.78,143.78,0,0,0,11.4-10.51c3.07-3.28,6.82-7.5,7-12.25a0.12,0.12,0,0,0-.23,0h0Z"/>
   <path d="M131.42,355.36c5.45-4.4,6.08-13.41,7.56-19.74,0.91-3.89,2.36-7.63,3.24-11.53,0.82-3.63,1.6-7.85-.05-11.36,0-.08-0.22,0-0.19.06,2.48,7.19-1.49,15.23-3.24,22.14-1.64,6.47-1.94,15.68-7.53,20.21-0.18.15,0.07,0.35,0.22,0.22h0Z"/>
   <path d="M141.16,314c6.6,3.1,1.72,15.14,0,19.8A148.87,148.87,0,0,1,132.65,352c-0.07.13,0.16,0.17,0.22,0.06a118.28,118.28,0,0,0,9.53-20.74c1.5-4.47,5-14.8-1.17-17.45-0.05,0-.13,0-0.07.08h0Z"/>
   <path d="M133.75,351c3.31-4,4.55-9.09,6.61-13.77,2-4.46,5.29-9.2,5.08-14.26,0-.17-0.32-0.13-0.33,0-0.62,5.24-3.36,9.68-5.35,14.47-1.9,4.58-3.08,9.47-6.24,13.4-0.12.14,0.13,0.25,0.23,0.13h0v0Z"/>
   <path d="M142.77,316.88a2.74,2.74,0,0,1,.64-1.13,10.32,10.32,0,0,1,0,2.18,18,18,0,0,1-.19,2.6,37.5,37.5,0,0,1-1.35,6.36,62.44,62.44,0,0,1-5.26,12.22,88.84,88.84,0,0,1-15.09,20.12c-0.18.18,0.17,0.33,0.32,0.18a85.11,85.11,0,0,0,15.42-20.5c3.88-7.16,7.24-15.53,6.39-23.84,0-.12-0.21-0.13-0.27,0a7.6,7.6,0,0,0-.87,1.78c-0.05.14,0.19,0.19,0.24,0.07h0Z"/>
   <path d="M135.26,337c1.24-1.55,1.37.42,1.26,1.54a10.32,10.32,0,0,1-.93,3.11,41.36,41.36,0,0,1-2.77,4.78,82.93,82.93,0,0,1-6.52,9.25,131.77,131.77,0,0,1-15.76,15.45c-0.15.13,0.05,0.29,0.18,0.18A108.35,108.35,0,0,0,127.46,355a93.6,93.6,0,0,0,6.22-9.07c2-3.15,4-6.33,3.07-10.17a0.22,0.22,0,0,0-.26-0.15,2.43,2.43,0,0,0-1.62,1.24c-0.2.24,0.23,0.44,0.4,0.23h0Z"/>
   <path d="M128,355.39a10.89,10.89,0,0,1,2.85-2.87l-0.45-.26c-8.42,14.64-25.46,24.16-41.12,29a0.16,0.16,0,0,0,.1.3,75.27,75.27,0,0,0,23.46-10.9c7.18-4.85,13.62-10.81,18.1-18.28,0.17-.28-0.28-0.36-0.45-0.26a10.94,10.94,0,0,0-3,3c-0.23.3,0.28,0.53,0.48,0.27h0Z"/>
</svg>