<svg id="Layer_3" xmlns="http://www.w3.org/2000/svg" viewBox="0 0 54 172">
   <path d="M49.39,129.59l0.45,0.19a0.28,0.28,0,0,0,.33-0.06l0.06-.06a0.21,0.21,0,0,0,0-.28c-2-2.54-3.2-5.86-4.86-8.68a30.84,30.84,0,0,0-5.69-7.37c-0.17-.15-0.51,0-0.34.25a56.44,56.44,0,0,1,6.18,8.84c0.81,1.43,1.56,2.9,2.29,4.37,0.45,0.91.94,2.32,1.77,2.52-0.16,0-.39.19-0.18,0.28h0Z"/>
   <path d="M42.81,165.5a18.1,18.1,0,0,1-8.17,3.86,38.68,38.68,0,0,1-10.05.7c-7.59-.43-15-4-19.06-10.63-3.88-6.24-5.2-14-4.55-21.29a32.6,32.6,0,0,1,2.84-10.88c1.81-3.86,4.64-6.73,7.68-9.66,0.25-.24-0.21-0.5-0.43-0.33-10.43,8.29-13.22,22.65-9.51,35.12,1.77,5.94,5.13,11.12,10.44,14.45,4.91,3.08,10.53,4,16.24,3.79,5.17-.21,11.88-1.07,15.41-5.33a0.14,0.14,0,0,0,0-.2l0,0-0.27-.19a0.18,0.18,0,0,0-.19,0,1.54,1.54,0,0,0-.46.53c-0.06.08,0.06,0.12,0.12,0.07h0Z"/>
   <path d="M10.66,117.8c1.87-2,2.46-4.94,2.84-7.6,0.45-3.23.82-6.49,1.2-9.73a0.2,0.2,0,0,0-.38-0.06c-1.08,2.59-1,5.56-1.32,8.31a20.41,20.41,0,0,1-2.67,8.94c-0.12.19,0.23,0.26,0.34,0.14h0Z"/>
   <path d="M39.68,115c0.55-1.54-1.12-3.82-1.66-5.18-1.38-3.52-.41-7.48-1.86-10.94a0.19,0.19,0,0,0-.35.1c0.52,3.25.3,6.83,1.28,10,0.47,1.49,2.66,4.43,2.2,6-0.06.2,0.32,0.23,0.38,0.06h0v0Z"/>
   <path d="M36.21,99.92c-0.06-2.34-5.83-4.06-7.64-4.58-4.82-1.39-11.38.37-15.66,2.71-0.24.13-.07,0.39,0.17,0.31,4.61-1.51,9.64-3.58,14.59-2.64,1.7,0.32,8,2.14,8.11,4.27,0,0.23.43,0.16,0.42-.07h0Z"/>
   <path d="M20.54,101a16.39,16.39,0,0,1-3.62-.26,2.65,2.65,0,0,1-1.66-1,4.13,4.13,0,0,1-.32-2.28c0-.17-0.29-0.13-0.34,0A2.64,2.64,0,0,0,15.79,101L16,101.1a10.45,10.45,0,0,0,4.5.36c0.28,0,.38-0.39.06-0.4h0v0Z"/>
   <path d="M35.17,100.06a5.47,5.47,0,0,0-1.62.36c-0.76.16-1.52,0.32-2.28,0.46-1.41.26-2.89,0.34-4.29,0.66a0.17,0.17,0,0,0,0,.33,8,8,0,0,0,2.69-.24c1.29-.22,2.58-0.46,3.85-0.79,0.14,0,2.61-.75,1.84-1-0.12,0-.29.15-0.14,0.21H35.17Z"/>
   <path d="M26.54,100.29c2.28,4,2.41,8.84,2.93,13.34,0.26,2.28,3.74,15.61,1.74,16.09-2.17.52-2.57-3.39-2.57-4.93,0-.61-0.16-2.27,0-0.9a9.63,9.63,0,0,1,.15,2.34,4.56,4.56,0,0,1-.91,2.6c-1.51,1.54-2.58,0-2.82-1.48s-0.1-3.14-.29-4.69c0-.33-0.6-0.21-0.59.1,0,1.21,0,6.21-2.43,5.7-2-.42-1.26-4.28-1-5.48H20.22A6.44,6.44,0,0,1,18.48,129l0.58,0.16c1.4-9.63,4.69-19,5.09-28.75a0.42,0.42,0,0,0-.83,0c-0.32,9.8-3.63,19.1-4.91,28.75a0.33,0.33,0,0,0,.58.16,6.85,6.85,0,0,0,1.76-6.44,0.28,0.28,0,0,0-.53,0c-0.29,1.54-.93,6.21,1.89,6,2.65-.17,2.74-4.56,2.68-6.32l-0.59.1c0.22,1.8-.57,8.39,3.06,7.13,2.41-.84,2.72-5.22,1.48-7-0.12-.17-0.5-0.16-0.52.09-0.2,3-.16,7.48,3.73,7.75a0.3,0.3,0,0,0,.32-0.23c0.46-5.64-1.53-11-2.22-16.58-0.58-4.65-.72-9.61-3.12-13.77-0.11-.19-0.51,0-0.39.16h0v0Z"/>
   <path d="M27.45,99.32c-1.06-1.39-4.75-1.12-5.64.34-0.1.17,0.16,0.24,0.27,0.21A10.41,10.41,0,0,1,24.65,99a3.06,3.06,0,0,1,2.4.58c0.19,0.19.58,0,.39-0.29h0Z"/>
   <path d="M25.34,101.13c0.53-.28,1-0.68,1.53-0.95l-0.3-.4a13,13,0,0,0-1.82,1.54l0.54,0.22a2.74,2.74,0,0,1,1.09-1.09c0.25-.14.25-0.52-0.09-0.52a4.13,4.13,0,0,0-3,.93c-0.13.15,0.05,0.28,0.2,0.27a4.72,4.72,0,0,0,1.18-.39,5.08,5.08,0,0,1,1.5-.26L26,100a3.48,3.48,0,0,0-1.33,1.37c-0.18.33,0.36,0.41,0.54,0.22a12.1,12.1,0,0,1,1.68-1.46c0.32-.23-0.09-0.53-0.37-0.37a17.18,17.18,0,0,1-1.46,1c-0.22.13,0,.42,0.23,0.31h0Z"/>
   <path d="M39.38,111.16c-1.68-4.09-1.57-7.69-.63-11.93a0.19,0.19,0,0,0-.1-0.19,5.65,5.65,0,0,0-2.88-1.23c-0.19,0-.31.25-0.09,0.31,2,0.53,2.47,1.27,2.17,3.22a20.83,20.83,0,0,0-.29,3.51,16.75,16.75,0,0,0,1.56,6.42c0.06,0.14.33,0,.26-0.11h0Z"/>
   <path d="M37.68,96.83c-1.41-1.87-3.82-2.12-6-1.51-0.21.06-.17,0.32,0.05,0.29,2.05-.26,4.13-0.26,5.54,1.49a0.23,0.23,0,0,0,.37-0.27h0Z"/>
   <path d="M36.74,97.5c1.55,0,1.08-2.8,1.36-3.82a0.3,0.3,0,0,0-.29-0.31h0c-2.58-.36-5.21-3.15-7.87-1.86a0.17,0.17,0,0,0,.11.31c2.76-.49,5,1.77,7.68,2.13l-0.3-.31c-0.17.64,0,3.41-.69,3.69a0.08,0.08,0,0,0,0,.16h0Z"/>
   <path d="M14.54,99a28.83,28.83,0,0,1,.86-4.72,5.4,5.4,0,0,1,1.24-2.42c0.85-.8,1.64-0.27,2.57.06a0.22,0.22,0,0,0,.27-0.32c-1.32-1.71-3.27-.49-4,1a19.63,19.63,0,0,0-1.42,6.36c0,0.28.45,0.28,0.48,0h0v0Z"/>
   <path d="M16.43,95.81a18.76,18.76,0,0,0,1-1.72,10.87,10.87,0,0,0,1-2.12c0-.18-0.23-0.17-0.32-0.09-1,1-1.34,2.59-2.07,3.77-0.13.21,0.27,0.34,0.39,0.16h0Z"/>
   <path d="M15.68,94.72c0.51-2.59-.79-5.43,1-7.68a22.74,22.74,0,0,1,5.22-4.45c0.17-.12,0-0.33-0.16-0.3-2,.4-4.25,3-5.47,4.51-1.87,2.34-.39,5.2-0.93,7.9,0,0.2.31,0.2,0.35,0h0v0Z"/>
   <path d="M38,92.5c0.94-4.08-7-5.48-9.74-4.94a0.18,0.18,0,0,0,0,.35c2.78,0.64,9.59.21,9.37,4.57,0,0.25.37,0.24,0.42,0h0Z"/>
   <path d="M36.9,89.9c-0.72-1.15-1.19-2.64-2.27-3.53-0.11-.09-0.32,0-0.26.15a12.91,12.91,0,0,0,1.25,2.15,5.24,5.24,0,0,0,1,1.38c0.1,0.08.37,0,.27-0.15h0Z"/>
   <path d="M36.26,88.5c0.16-1.2-2.41-2.67-3.15-3.26-1-.79-2-1.58-3-2.42-0.7-.62-1.28-1.44-2-2a0.22,0.22,0,0,0-.33.18c0.16,1.49,2.71,3,3.77,3.8,0.83,0.65,1.68,1.28,2.49,2,0.38,0.31,1.67,1.14,1.68,1.69a0.27,0.27,0,0,0,.52,0h0Z"/>
   <path d="M24.79,91.5a13.07,13.07,0,0,0-4.36.35,0.15,0.15,0,0,0,.05.28c1.41,0,2.82-.16,4.24-0.16,0.34,0,.44-0.48.07-0.48h0Z"/>
   <path d="M25.35,90.75a5.8,5.8,0,0,0-4.7.61c-0.16.12,0,.28,0.17,0.23a7.64,7.64,0,0,1,4.33-.41c0.29,0.08.54-.32,0.2-0.43h0Z"/>
   <path d="M18.13,89.84a40.91,40.91,0,0,1,4.56-3.44c0.3-.2,0-0.56-0.31-0.42A32.1,32.1,0,0,0,15,91.33c-0.23.21,0.19,0.47,0.39,0.3a28.32,28.32,0,0,0,3.78-4.3c0.2-.26-0.23-0.43-0.41-0.23a42.58,42.58,0,0,1-3.72,4.2l0.39,0.3a28.1,28.1,0,0,1,7.15-5.15L22.3,86a26.51,26.51,0,0,0-4.48,3.59C17.65,89.8,18,90,18.13,89.85h0Z"/>
   <path d="M15.39,90.6C19.17,87.28,20.26,80,26.46,80.51c0.43,0,.55-0.56.09-0.6a5.1,5.1,0,0,0-3.45.89c-0.27.17,0,.43,0.26,0.35a6.73,6.73,0,0,1,3.1-.64l0.09-.6c-6.68-.52-7.61,6.78-11.47,10.45-0.18.17,0.16,0.38,0.32,0.24h0Z"/>
   <path d="M47.34,131.24c0.39-.64-0.08-1.66-0.3-2.29a22.42,22.42,0,0,0-1.94-4A16.79,16.79,0,0,0,44,123.33c-0.61-.79-0.49-0.28-0.13.29,0.64,1,1.59,1.87,2.27,2.87a19.26,19.26,0,0,1,1.5,2.73c0,0.09.2,0,.16-0.07-1-2.55-2.81-4.39-4.42-6.53-0.11-.14-0.43,0-0.32.13A36.25,36.25,0,0,1,45.68,127a17,17,0,0,1,1.09,2.54,13.67,13.67,0,0,0,.4,1.65,0.1,0.1,0,0,0,.18,0h0v0Z"/>
   <path d="M49.33,132.68c-1.45-3.79-3.71-7.26-5.75-10.75,0-.08-0.22,0-0.17.07,1.82,3.64,4.08,7,5.75,10.75a0.09,0.09,0,0,0,.16-0.07h0Z"/>
   <path d="M47.16,133.68c-1.37-4.26-3.66-8.79-7-11.8-0.11-.1-0.33,0-0.22.16a37,37,0,0,1,7,11.7c0.05,0.16.37,0.11,0.31-.06H47.16Z"/>
   <path d="M45.74,131.86a34.51,34.51,0,0,0-3.34-4.76c-0.11-.12-0.44,0-0.32.18,1.11,1.56,2.13,3.18,3.19,4.78,0.15,0.23.63,0,.47-0.2h0Z"/>
   <path d="M6.91,126c0.84-3.12,3.23-5,5.67-6.93,0.14-.11,0-0.24-0.16-0.16-2.69,1.71-5,3.88-5.83,7.07,0,0.18.28,0.18,0.32,0h0v0Z"/>
   <path d="M14.68,116.9a84.15,84.15,0,0,0-6.76,6C7.83,123,8,123.06,8.08,123c2.17-2.07,4.44-4,6.74-6,0.11-.09,0-0.21-0.13-0.13h0v0Z"/>
   <path d="M4.37,127c3-3.43,5.28-7.4,8.72-10.48,0.14-.13,0-0.28-0.18-0.18C9.24,119.2,7,123.31,4.13,126.89c-0.12.16,0.14,0.26,0.25,0.14h0Z"/>
   <path d="M11.12,117.37c2.8,1.8,4-11.72,3.79-13.44,0-.16-0.29-0.12-0.31,0-0.21,1.35-1.8,14-3.21,13.1-0.21-.12-0.51.16-0.27,0.32h0v0Z"/>
   <path d="M14.21,114.27c2.1-3.74,2.28-8.87,2.76-13,0-.25-0.39-0.25-0.43,0-0.72,4.32-1,8.9-2.74,13-0.11.25,0.3,0.31,0.41,0.12h0v-0.12Z"/>
   <path d="M13,102.27c0.36-.84.62-1.71,1-2.55a8.84,8.84,0,0,1,1.73-2.42c0.14-.15-0.09-0.32-0.24-0.24-1.84,1-2.17,3.34-2.87,5.09-0.1.24,0.31,0.32,0.4,0.11h0Z"/>
   <path d="M30,98a27.88,27.88,0,0,0-7.9,1.26l0.23,0.43A14.47,14.47,0,0,1,28.71,98c0.33,0,.45-0.47.07-0.48a14.69,14.69,0,0,0-5.65.53c-0.35.13-.09,0.53,0.23,0.42,1.43-.48,2.87-0.87,4.26-1.48a0.25,0.25,0,0,0-.08-0.44,6.51,6.51,0,0,0-4,1.09,0.21,0.21,0,0,0,.13.39c1.18,0,2.32.2,3.5,0.28v-0.5c-2,.59-4.15.49-6.24,0.83-0.2,0-.22.34,0,0.33,2.17-.09,4.32.05,6.39-0.69a0.24,0.24,0,0,0-.08-0.47c-1.18,0-2.33-.14-3.5-0.22l0.13,0.39A7,7,0,0,1,27.42,97l0-.52A27.94,27.94,0,0,1,23.14,98l0.23,0.42A15,15,0,0,1,28.72,98l0.07-.48a17.56,17.56,0,0,0-6.65,1.78,0.24,0.24,0,0,0,.16.45A34.91,34.91,0,0,1,30,98.46c0.32,0,.42-0.46.07-0.45h0Z"/>
   <path d="M20.21,100.23H21c0.38,0,.5-0.54.08-0.54a6.46,6.46,0,0,0-1.58.3,13.57,13.57,0,0,0-2.06.59,0.15,0.15,0,0,0,.05.28,8.75,8.75,0,0,0,1.89-.28,8.12,8.12,0,0,1,1.61-.35l0.08-.54H20.28c-0.37,0-.49.53-0.08,0.53h0Z"/>
   <path d="M18.19,101.15c0.3-.23.71-0.26,1-0.47a0.27,0.27,0,0,0,.08-0.37l0,0a4.69,4.69,0,0,0-3-1.52c-0.2,0-.43.27-0.18,0.4a12.3,12.3,0,0,1,2.63,1.52l0.05-.41c-0.28.25-.68,0.28-1,0.53s0.11,0.6.39,0.38h0Z"/>
   <path d="M36.69,90.33c0.41,0.08.4,1.25,0.4,1.53,0,0.63-.16,1.22-0.22,1.84,0,0.14.2,0.14,0.25,0a4.39,4.39,0,0,0,.27-2.64,1.06,1.06,0,0,0-.62-1c-0.15,0-.25.22-0.08,0.25h0v0Z"/>
   <path d="M37,94.5c1.27-2.66-5.53-4.41-7.18-4.43-0.14,0-.25.19-0.07,0.24,1.45,0.41,7.59,1.81,6.86,4.08-0.08.25,0.3,0.32,0.4,0.11h0Z"/>
   <path d="M36.38,92.24A4.52,4.52,0,0,1,34.66,92l-2.32-.45a12.53,12.53,0,0,0-3.87-.44,0.16,0.16,0,0,0,0,.31c1.72,0.31,3.44.59,5.15,0.93,0.75,0.15,2.27.72,3,.38,0.35-.15.09-0.57-0.23-0.43h0Z"/>
   <path d="M35.62,95.7c-2.94-1.19-6.21-2.15-9.4-1.63a0.15,0.15,0,1,0,0,.29,26.62,26.62,0,0,1,9.15,1.86c0.34,0.14.63-.36,0.24-0.51h0Z"/>
   <path d="M29.25,96.6a3.22,3.22,0,0,0-1.64-1.78c-0.14-.07-0.43.09-0.26,0.24a4.37,4.37,0,0,1,1.39,1.75c0.1,0.27.62,0.09,0.51-.21h0Z"/>
   <path d="M41.77,165.82a1,1,0,0,1-.94,1,13.7,13.7,0,0,1-1.35.51,25.15,25.15,0,0,1-3.22.79c-1.84.35-3.69,0.61-5.53,1a0.08,0.08,0,1,0,0,.16c4.12-.62,8.5-0.9,12.09-3.23a0.13,0.13,0,0,0,0-.18h0a0.94,0.94,0,0,0-1.15-.27,0.12,0.12,0,0,0,0,.23h0.1Z"/>
   <path d="M42,166.08c0.92,0.28-2.19,1.5-2.59,1.69a31.08,31.08,0,0,1-5.57,1.87c-3.32.8-6.7,0.9-10.05,1.45a0.13,0.13,0,1,0,0,.25,41.7,41.7,0,0,0,10.94-1.51c2.39-.64,6.53-1.69,8.12-3.76a0.12,0.12,0,0,0-.1-0.2,4.07,4.07,0,0,1-.63,0c-0.16,0-.29.18-0.11,0.23h0v0Z"/>
   <path d="M25.48,171.58c7.94,0.36,15.06-7.31,20.38-12.3,0.12-.11-0.1-0.23-0.2-0.15-5.81,4.47-12.12,12.43-20.12,12.22-0.16,0-.21.22,0,0.23H25.48Z"/>
   <path d="M44.33,162.16c-3.08,8.09-15.74,5-22.31,5.39-0.21,0-.3.29,0,0.31a68.65,68.65,0,0,0,13.58,0c3.72-.48,7.71-1.8,9.11-5.62,0.08-.2-0.26-0.27-0.33-0.09H44.33Z"/>
   <path d="M30.22,168.56c-5.48,1.59-11-2.46-16.14-3.79-0.2-.05-0.49.24-0.23,0.35a78.78,78.78,0,0,0,9,3.39c2.34,0.7,5.13,1.41,7.47.33a0.15,0.15,0,1,0-.1-0.29h0Z"/>
   <path d="M28.1,82.31c1.11-.83-2.62-1.93-3.07-2a0.15,0.15,0,0,0-.13.27,7.7,7.7,0,0,0,1.79.77,6.71,6.71,0,0,1,.91.42c0.16,0.09.48,0.2,0.32,0.34s0.05,0.3.19,0.19h0Z"/>
   <path d="M26.21,81.42c2.82-2.12,1-8.47.4-11.18s-1.24-5.19-1.84-7.79a68.85,68.85,0,0,1-1.25-9.6c-0.44-5-.69-9.92-0.7-14.89a56.63,56.63,0,0,1,1.81-13c1-4.33,2.19-8.73,2.26-13.21a42.49,42.49,0,0,0-.35-5.84c-0.22-1.79-.26-4-1-5.61-0.24-.53-1.26-0.15-1,0.42,0.79,1.79.79,4.39,1,6.34a35.32,35.32,0,0,1,0,7.49,106.25,106.25,0,0,1-2.37,11.7c-1.84,8.12-1.6,16.18-1,24.44a103,103,0,0,0,2.74,17,68.64,68.64,0,0,1,1.47,7.29c0.24,1.83.72,4.68-.69,6.18-0.27.29,0.23,0.54,0.48,0.36h0Z"/>
   <path d="M28.34,81.77a3.54,3.54,0,0,0-2.77.06,8.25,8.25,0,0,0-.91.87,4.14,4.14,0,0,1-1.16-.92l-0.21.45a6.25,6.25,0,0,0,1.85-.74,0.3,0.3,0,0,0,0-.58,5.36,5.36,0,0,0-2.44-.46,0.26,0.26,0,0,0-.07.51c0.75,0.18,1.49.32,2.23,0.55L24.77,81a4.27,4.27,0,0,1-1.56.72,0.28,0.28,0,0,0-.21.45c0.42,0.38,1.12,1.19,1.74,1.07a1.93,1.93,0,0,0,.8-0.72,2.67,2.67,0,0,1,2.66-.3c0.26,0.08.48-.29,0.18-0.39h0Z"/>
   <path d="M53.7,144.93c-0.6-5.09-1.35-10.71-3.53-15.4-0.05-.12-0.31-0.06-0.27.08A109.39,109.39,0,0,1,53.38,145c0,0.17.33,0.12,0.31-.06h0Z"/>
   <path d="M51,149.86a62.52,62.52,0,0,1-7,15.37c-0.08.14,0.17,0.2,0.24,0.1,3.51-4.33,5.58-10.13,7-15.45,0-.17-0.27-0.18-0.31,0h0Z"/>
   <path d="M45.15,163.5a51.87,51.87,0,0,1,6.77-15c0.09-.14-0.16-0.19-0.24-0.1-3.52,4.17-5.57,9.88-6.84,15.12,0,0.18.27,0.18,0.31,0h0v0Z"/>
   <path d="M49.73,156.17c1.12-5.06,4.38-10.16,4.41-15.41,0-.16-0.25-0.16-0.28,0-0.88,5.31-3.35,10.15-4.45,15.41,0,0.18.28,0.18,0.31,0h0Z"/>
</svg>