<svg id="Слой_1" data-name="Слой 1" xmlns="http://www.w3.org/2000/svg" viewBox="0 0 969.23 806.33"><defs><style>.cls-1{fill:none;stroke:#111;stroke-linecap:round;}</style></defs><title>trianglify-background-1svg</title><path class="cls-1" d="M673.39,818.62l30.92-146.17L526.59,597.61Z" transform="translate(100.42 -13.56)"/><path class="cls-1" d="M673.39,818.62l-146.8-221L443,726.6Z" transform="translate(100.42 -13.56)"/><path class="cls-1" d="M704.31,672.45l83-174L576,463.81Z" transform="translate(100.42 -13.56)"/><path class="cls-1" d="M704.31,672.45L576,463.81l-49.36,133.8Z" transform="translate(100.42 -13.56)"/><path class="cls-1" d="M443,726.6l83.55-129L351.3,563.71Z" transform="translate(100.42 -13.56)"/><path class="cls-1" d="M443,726.6L351.3,563.71,309.08,701.26Z" transform="translate(100.42 -13.56)"/><path class="cls-1" d="M309.08,701.26L351.3,563.71l-183,2.39Z" transform="translate(100.42 -13.56)"/><path class="cls-1" d="M309.08,701.26L168.27,566.1,106.64,778.38Z" transform="translate(100.42 -13.56)"/><path class="cls-1" d="M106.64,778.38L168.27,566.1,48.62,721.37Z" transform="translate(100.42 -13.56)"/><path class="cls-1" d="M48.62,721.37L168.27,566.1-23.16,499.74Z" transform="translate(100.42 -13.56)"/><path class="cls-1" d="M787.29,498.45l80.12-169.9L678.9,317.12Z" transform="translate(100.42 -13.56)"/><path class="cls-1" d="M787.29,498.45L678.9,317.12,576,463.81Z" transform="translate(100.42 -13.56)"/><path class="cls-1" d="M576,463.81L678.9,317.12,528.73,372.4Z" transform="translate(100.42 -13.56)"/><path class="cls-1" d="M576,463.81L528.73,372.4,351.3,563.71Z" transform="translate(100.42 -13.56)"/><path class="cls-1" d="M576,463.81L351.3,563.71l175.29,33.9Z" transform="translate(100.42 -13.56)"/><path class="cls-1" d="M351.3,563.71L528.73,372.4,266.91,410.56Z" transform="translate(100.42 -13.56)"/><path class="cls-1" d="M351.3,563.71l-84.4-153.15L168.27,566.1Z" transform="translate(100.42 -13.56)"/><path class="cls-1" d="M168.27,566.1l98.63-155.54L119.47,400.7Z" transform="translate(100.42 -13.56)"/><path class="cls-1" d="M168.27,566.1l-48.8-165.4-142.63,99Z" transform="translate(100.42 -13.56)"/><path class="cls-1" d="M-23.16,499.74l142.63-99-59.22-34Z" transform="translate(100.42 -13.56)"/><path class="cls-1" d="M867.41,328.55l-91.91-311-13,142.54Z" transform="translate(100.42 -13.56)"/><path class="cls-1" d="M867.41,328.55L762.47,160.11,679.86,230Z" transform="translate(100.42 -13.56)"/><path class="cls-1" d="M867.41,328.55L679.86,230l-1,87.09Z" transform="translate(100.42 -13.56)"/><path class="cls-1" d="M678.9,317.12l1-87.09L528.73,372.4Z" transform="translate(100.42 -13.56)"/><path class="cls-1" d="M528.73,372.4L679.86,230,500.33,189.28Z" transform="translate(100.42 -13.56)"/><path class="cls-1" d="M528.73,372.4L500.33,189.28l-198.78,67Z" transform="translate(100.42 -13.56)"/><path class="cls-1" d="M528.73,372.4L301.54,256.26l-34.64,154.3Z" transform="translate(100.42 -13.56)"/><path class="cls-1" d="M266.91,410.56l34.64-154.3L188.35,224.19Z" transform="translate(100.42 -13.56)"/><path class="cls-1" d="M266.91,410.56L188.35,224.19,119.47,400.7Z" transform="translate(100.42 -13.56)"/><path class="cls-1" d="M119.47,400.7l68.88-176.51L60.25,366.74Z" transform="translate(100.42 -13.56)"/><path class="cls-1" d="M60.25,366.74l128.1-142.56L-21,103.42Z" transform="translate(100.42 -13.56)"/><path class="cls-1" d="M60.25,366.74L-21,103.42-99.37,237.24Z" transform="translate(100.42 -13.56)"/><path class="cls-1" d="M60.25,366.74L-99.37,237.24l25.57,73.15Z" transform="translate(100.42 -13.56)"/><path class="cls-1" d="M762.47,160.11l13-142.54L583,64.32Z" transform="translate(100.42 -13.56)"/><path class="cls-1" d="M762.47,160.11L583,64.32,679.86,230Z" transform="translate(100.42 -13.56)"/><path class="cls-1" d="M679.86,230L583,64.32l-82.69,125Z" transform="translate(100.42 -13.56)"/><path class="cls-1" d="M500.33,189.28L583,64.32,445.15,99.15Z" transform="translate(100.42 -13.56)"/><path class="cls-1" d="M500.33,189.28L445.15,99.15,301.54,256.26Z" transform="translate(100.42 -13.56)"/><path class="cls-1" d="M301.54,256.26L445.15,99.15l-125-84.69Z" transform="translate(100.42 -13.56)"/><path class="cls-1" d="M301.54,256.26l18.57-241.8L188.35,224.19Z" transform="translate(100.42 -13.56)"/><path class="cls-1" d="M188.35,224.19L320.11,14.46l-169,1.9Z" transform="translate(100.42 -13.56)"/><path class="cls-1" d="M188.35,224.19L151.08,16.36-21,103.42Z" transform="translate(100.42 -13.56)"/></svg>