<svg xmlns="http://www.w3.org/2000/svg" viewBox="0 0 1571.52 1683.29"><defs><style>.a{fill:none;stroke:#111;}</style></defs><title>trianglify-background-4</title><path class="a" d="M8.65,1572.38l147-51-90-100Z"/><path class="a" d="M8.65,1572.38l57-151-64-286Z"/><path class="a" d="M65.65,1421.38l90,100-13-110Z"/><path class="a" d="M65.65,1421.38l77-10-59-100Z"/><path class="a" d="M65.65,1421.38l18-110-82-176Z"/><path class="a" d="M83.65,1311.38l59,100,108-105Z"/><path class="a" d="M83.65,1311.38l167-5-3-148Z"/><path class="a" d="M83.65,1311.38l164-153-246-23Z"/><path class="a" d="M1.65,1135.38l246,23-9-155Z"/><path class="a" d="M1.65,1135.38l237-132-185-34Z"/><path class="a" d="M1.65,1135.38l52-166-36-433Z"/><path class="a" d="M53.65,969.38l185,34-6-163Z"/><path class="a" d="M53.65,969.38l179-129-123-48Z"/><path class="a" d="M53.65,969.38l56-177-92-256Z"/><path class="a" d="M109.65,792.38l123,48-27-149Z"/><path class="a" d="M109.65,792.38l96-101-129-85Z"/><path class="a" d="M109.65,792.38l-33-186-59-70Z"/><path class="a" d="M76.65,606.38l129,85-16-168Z"/><path class="a" d="M76.65,606.38l113-83-172,13Z"/><path class="a" d="M17.65,536.38l172-13-176-206Z"/><path class="a" d="M13.65,317.38l176,206,51-111Z"/><path class="a" d="M13.65,317.38l227,95,7-227Z"/><path class="a" d="M13.65,317.38l234-132-216,17Z"/><path class="a" d="M31.65,202.38l216-17-30-77Z"/><path class="a" d="M155.65,1521.38l221,161,17-151Z"/><path class="a" d="M155.65,1521.38l238,10-7-101Z"/><path class="a" d="M155.65,1521.38l231-91-244-19Z"/><path class="a" d="M142.65,1411.38l244,19-136-124Z"/><path class="a" d="M250.65,1306.38l136,124-50-157Z"/><path class="a" d="M250.65,1306.38l86-33-89-115Z"/><path class="a" d="M247.65,1158.38l89,115,14-184Z"/><path class="a" d="M247.65,1158.38l103-69-112-86Z"/><path class="a" d="M238.65,1003.38l112,86,37-112Z"/><path class="a" d="M238.65,1003.38l149-26-155-137Z"/><path class="a" d="M232.65,840.38l155,137,20-207Z"/><path class="a" d="M232.65,840.38l175-70-202-79Z"/><path class="a" d="M205.65,691.38l202,79-43-135Z"/><path class="a" d="M205.65,691.38l159-56-175-112Z"/><path class="a" d="M189.65,523.38l175,112-3-136Z"/><path class="a" d="M189.65,523.38l172-24-121-87Z"/><path class="a" d="M240.65,412.38l121,87,42-107Z"/><path class="a" d="M240.65,412.38l163-20-156-207Z"/><path class="a" d="M247.65,185.38l156,207-14-196Z"/><path class="a" d="M247.65,185.38l142,11-172-88Z"/><path class="a" d="M217.65,108.38l172,88,13-182Z"/><path class="a" d="M376.65,1682.38l182-74-165-77Z"/><path class="a" d="M393.65,1531.38l165,77-54-225Z"/><path class="a" d="M393.65,1531.38l111-148-118,47Z"/><path class="a" d="M386.65,1430.38l118-47-21-105Z"/><path class="a" d="M386.65,1430.38l97-152-147-5Z"/><path class="a" d="M336.65,1273.38l147,5-11-180Z"/><path class="a" d="M336.65,1273.38l136-175-122-9Z"/><path class="a" d="M350.65,1089.38l122,9-85-121Z"/><path class="a" d="M387.65,977.38l85,121,78-187Z"/><path class="a" d="M387.65,977.38l163-66-93-132Z"/><path class="a" d="M387.65,977.38l70-198-50-9Z"/><path class="a" d="M407.65,770.38l50,9-93-144Z"/><path class="a" d="M364.65,635.38l93,144,91-129Z"/><path class="a" d="M364.65,635.38l184,15-74-85Z"/><path class="a" d="M364.65,635.38l110-70-113-66Z"/><path class="a" d="M361.65,499.38l113,66-71-173Z"/><path class="a" d="M403.65,392.38l71,173-16-208Z"/><path class="a" d="M403.65,392.38l55-35-69-161Z"/><path class="a" d="M389.65,196.38l69,161,40-118Z"/><path class="a" d="M389.65,196.38l109,43,25-134Z"/><path class="a" d="M389.65,196.38l134-91-121-91Z"/><path class="a" d="M558.65,1608.38l81,65,27-162Z"/><path class="a" d="M558.65,1608.38l108-97-3-43Z"/><path class="a" d="M558.65,1608.38l105-140-159-85Z"/><path class="a" d="M504.65,1383.38l159,85-21-169Z"/><path class="a" d="M504.65,1383.38l138-84-159-21Z"/><path class="a" d="M483.65,1278.38l159,21,16-134Z"/><path class="a" d="M483.65,1278.38l175-113-186-67Z"/><path class="a" d="M472.65,1098.38l186,67-108-254Z"/><path class="a" d="M550.65,911.38l108,254,50-250Z"/><path class="a" d="M550.65,911.38l158,4-83-100Z"/><path class="a" d="M550.65,911.38l75-96-168-36Z"/><path class="a" d="M457.65,779.38l168,36-77-165Z"/><path class="a" d="M548.65,650.38l77,165,13-203Z"/><path class="a" d="M548.65,650.38l90-38-164-47Z"/><path class="a" d="M474.65,565.38l164,47,21-67Z"/><path class="a" d="M474.65,565.38l185-20-19-188Z"/><path class="a" d="M474.65,565.38l166-208h-182Z"/><path class="a" d="M458.65,357.38h182l-142-118Z"/><path class="a" d="M498.65,239.38l142,118v-179Z"/><path class="a" d="M498.65,239.38l142-61-117-73Z"/><path class="a" d="M523.65,105.38l117,73-11-70Z"/><path class="a" d="M639.65,1673.38l196-67-169-95Z"/><path class="a" d="M666.65,1511.38l169,95-76-179Z"/><path class="a" d="M666.65,1511.38l93-84-96,41Z"/><path class="a" d="M663.65,1468.38l96-41-117-128Z"/><path class="a" d="M642.65,1299.38l117,128-7-168Z"/><path class="a" d="M642.65,1299.38l110-40-94-94Z"/><path class="a" d="M658.65,1165.38l94,94,55-201Z"/><path class="a" d="M658.65,1165.38l149-107-31-71Z"/><path class="a" d="M658.65,1165.38l118-178-68-72Z"/><path class="a" d="M708.65,915.38l68,72-27-161Z"/><path class="a" d="M708.65,915.38l41-89-124-11Z"/><path class="a" d="M625.65,815.38l124,11,39-119Z"/><path class="a" d="M625.65,815.38l163-108-150-95Z"/><path class="a" d="M638.65,612.38l150,95-129-162Z"/><path class="a" d="M659.65,545.38l129,162,21-250Z"/><path class="a" d="M659.65,545.38l150-88-38-77Z"/><path class="a" d="M659.65,545.38l112-165-131-23Z"/><path class="a" d="M640.65,357.38l131,23-7-145Z"/><path class="a" d="M640.65,357.38l124-122-124-57v179Z"/><path class="a" d="M640.65,178.38l124,57-135-127Z"/><path class="a" d="M629.65,108.38l135,127,89-168Z"/><path class="a" d="M835.65,1606.38l106-11-182-168Z"/><path class="a" d="M759.65,1427.38l182,168-30-238Z"/><path class="a" d="M759.65,1427.38l152-70-159-98Z"/><path class="a" d="M752.65,1259.38l159,98,63-90Z"/><path class="a" d="M752.65,1259.38l222,8-167-209Z"/><path class="a" d="M807.65,1058.38l167,209,4-192Z"/><path class="a" d="M807.65,1058.38l171,17-42-76Z"/><path class="a" d="M807.65,1058.38l129-59-160-12Z"/><path class="a" d="M776.65,987.38l160,12-187-173Z"/><path class="a" d="M749.65,826.38l187,173-1-230Z"/><path class="a" d="M749.65,826.38l186-57-147-62Z"/><path class="a" d="M788.65,707.38l147,62-15-161Z"/><path class="a" d="M788.65,707.38l132-99-111-151Z"/><path class="a" d="M809.65,457.38l111,151-23-120Z"/><path class="a" d="M809.65,457.38l88,31,76-110Z"/><path class="a" d="M809.65,457.38l164-79-202,2Z"/><path class="a" d="M771.65,380.38l202-2-56-139Z"/><path class="a" d="M771.65,380.38l146-141-153-4Z"/><path class="a" d="M764.65,235.38l153,4-64-172Z"/><path class="a" d="M853.65,67.38l64,172,82-146Z"/><path class="a" d="M941.65,1595.38l179,81,1-137Z"/><path class="a" d="M941.65,1595.38l180-56-66-172Z"/><path class="a" d="M941.65,1595.38l114-228-144-10Z"/><path class="a" d="M911.65,1357.38l144,10-81-100Z"/><path class="a" d="M974.65,1267.38l81,100,52-104Z"/><path class="a" d="M974.65,1267.38l133-4-129-188Z"/><path class="a" d="M978.65,1075.38l129,188,12-212Z"/><path class="a" d="M978.65,1075.38l141-24-183-52Z"/><path class="a" d="M936.65,999.38l183,52,31-66Z"/><path class="a" d="M936.65,999.38l214-14-100-182Z"/><path class="a" d="M936.65,999.38l114-196-115-34Z"/><path class="a" d="M935.65,769.38l115,34-130-195Z"/><path class="a" d="M920.65,608.38l130,195,110-117Z"/><path class="a" d="M920.65,608.38l240,78-26-208Z"/><path class="a" d="M920.65,608.38l214-130-237,10Z"/><path class="a" d="M897.65,488.38l237-10-161-100Z"/><path class="a" d="M973.65,378.38l161,100,9-78Z"/><path class="a" d="M973.65,378.38l170,22-78-224Z"/><path class="a" d="M973.65,378.38l92-202-148,63Z"/><path class="a" d="M917.65,239.38l148-63-66-83Z"/><path class="a" d="M999.65,93.38l66,83,39-175Z"/><path class="a" d="M1120.65,1676.38l164-113-163-24Z"/><path class="a" d="M1121.65,1539.38l163,24-16-117Z"/><path class="a" d="M1121.65,1539.38l147-93-213-79Z"/><path class="a" d="M1055.65,1367.38l213,79-161-183Z"/><path class="a" d="M1107.65,1263.38l161,183,37-169Z"/><path class="a" d="M1107.65,1263.38l198,14-95-198Z"/><path class="a" d="M1107.65,1263.38l103-184-91-28Z"/><path class="a" d="M1119.65,1051.38l91,28-60-94Z"/><path class="a" d="M1150.65,985.38l60,94,82-140Z"/><path class="a" d="M1150.65,985.38l142-46-98-170Z"/><path class="a" d="M1150.65,985.38l44-216-144,34Z"/><path class="a" d="M1050.65,803.38l144-34-34-83Z"/><path class="a" d="M1160.65,686.38l34,83,93-135Z"/><path class="a" d="M1160.65,686.38l127-52-153-156Z"/><path class="a" d="M1134.65,478.38l153,156-68-169Z"/><path class="a" d="M1134.65,478.38l85-13-76-65Z"/><path class="a" d="M1143.65,400.38l76,65,83-147Z"/><path class="a" d="M1143.65,400.38l159-82-107-65Z"/><path class="a" d="M1143.65,400.38l52-147-130-77Z"/><path class="a" d="M1065.65,176.38l130,77,59-188Z"/><path class="a" d="M1065.65,176.38l189-111-150-64Z"/><path class="a" d="M1284.65,1563.38l77,92,65-156Z"/><path class="a" d="M1284.65,1563.38l142-64-39-63Z"/><path class="a" d="M1284.65,1563.38l103-127-119,10Z"/><path class="a" d="M1268.65,1446.38l119-10-82-159Z"/><path class="a" d="M1305.65,1277.38l82,159,35-181Z"/><path class="a" d="M1305.65,1277.38l117-22-20-134Z"/><path class="a" d="M1305.65,1277.38l97-156-192-42Z"/><path class="a" d="M1210.65,1079.38l192,42-110-182Z"/><path class="a" d="M1292.65,939.38l110,182-38-188Z"/><path class="a" d="M1292.65,939.38l72-6,9-83Z"/><path class="a" d="M1292.65,939.38l81-89-179-81Z"/><path class="a" d="M1194.65,769.38l179,81-86-216Z"/><path class="a" d="M1287.65,634.38l86,216,35-208Z"/><path class="a" d="M1287.65,634.38l121,8,8-121Z"/><path class="a" d="M1287.65,634.38l129-113-197-56Z"/><path class="a" d="M1219.65,465.38l197,56-114-203Z"/><path class="a" d="M1302.65,318.38l114,203,12-187Z"/><path class="a" d="M1302.65,318.38l126,16-66-88Z"/><path class="a" d="M1302.65,318.38l60-72-167,7Z"/><path class="a" d="M1195.65,253.38l167-7-108-181Z"/><path class="a" d="M1254.65,65.38l108,181,75-235Z"/><path class="a" d="M1361.65,1655.38l164-98-99-58Z"/><path class="a" d="M1426.65,1499.38l99,58,45-142Z"/><path class="a" d="M1426.65,1499.38l144-84-183,21Z"/><path class="a" d="M1387.65,1436.38l183-21-49-128Z"/><path class="a" d="M1387.65,1436.38l134-149-99-32Z"/><path class="a" d="M1408.65,642.38l131-109-123-12Z"/><path class="a" d="M1416.65,521.38l123,12-28-176Z"/><path class="a" d="M1416.65,521.38l95-164-83-23Z"/><path class="a" d="M1428.65,334.38l83,23-8-131Z"/><path class="a" d="M1428.65,334.38l75-108-141,20Z"/><path class="a" d="M1362.65,246.38l141-20-66-215Z"/></svg>