<svg width="1615" height="647" xmlns="http://www.w3.org/2000/svg">

<style>
	path {
		fill: none;
		stroke: #111111;
		stroke-width: 1;
		stroke-linecap: round;
	}
</style>

<g><path d="M-6,-127L-118,75L57,-45Z" fill="#ffffff" stroke="#ffffff"/><path d="M-6,-127L57,-45L332,-119Z" fill="#fafafa" stroke="#fafafa"/><path d="M-6,-127L332,-119L918,-129Z" fill="#e8e8e8" stroke="#e8e8e8"/><path d="M-6,-127L918,-129L1475,-155Z" fill="#c3c3c3" stroke="#c3c3c3"/><path d="M57,-45L-118,75L21,100Z" fill="#ffffff" stroke="#ffffff"/><path d="M57,-45L21,100L196,181Z" fill="#fbfbfb" stroke="#fbfbfb"/><path d="M57,-45L196,181L284,55Z" fill="#f8f8f8" stroke="#f8f8f8"/><path d="M57,-45L284,55L301,-58Z" fill="#f6f6f6" stroke="#f6f6f6"/><path d="M57,-45L301,-58L332,-119Z" fill="#f5f5f5" stroke="#f5f5f5"/><path d="M301,-58L284,55L417,85Z" fill="#eeeeee" stroke="#eeeeee"/><path d="M301,-58L417,85L332,-119Z" fill="#ededed" stroke="#ededed"/><path d="M332,-119L417,85L611,-73Z" fill="#e5e5e5" stroke="#e5e5e5"/><path d="M332,-119L611,-73L734,-83Z" fill="#dcdcdc" stroke="#dcdcdc"/><path d="M332,-119L734,-83L918,-129Z" fill="#d1d1d1" stroke="#d1d1d1"/><path d="M611,-73L417,85L622,15Z" fill="#dddddd" stroke="#dddddd"/><path d="M611,-73L622,15L734,-83Z" fill="#d1d1d1" stroke="#d1d1d1"/><path d="M734,-83L622,15L678,74Z" fill="#cfcfcf" stroke="#cfcfcf"/><path d="M734,-83L678,74L862,141Z" fill="#c7c7c7" stroke="#c7c7c7"/><path d="M734,-83L862,141L918,-129Z" fill="#bfbfbf" stroke="#bfbfbf"/><path d="M918,-129L862,141L1093,147Z" fill="#b4b4b4" stroke="#b4b4b4"/><path d="M918,-129L1093,147L1107,-128Z" fill="#acacac" stroke="#acacac"/><path d="M918,-129L1107,-128L1475,-155Z" fill="#9d9d9d" stroke="#9d9d9d"/><path d="M1107,-128L1093,147L1220,44Z" fill="#a1a1a1" stroke="#a1a1a1"/><path d="M1107,-128L1220,44L1214,-122Z" fill="#9c9c9c" stroke="#9c9c9c"/><path d="M1107,-128L1214,-122L1475,-155Z" fill="#919191" stroke="#919191"/><path d="M1214,-122L1220,44L1300,-28Z" fill="#949494" stroke="#949494"/><path d="M1214,-122L1300,-28L1475,-155Z" fill="#8b8b8b" stroke="#8b8b8b"/><path d="M1300,-28L1220,44L1293,30Z" fill="#919191" stroke="#919191"/><path d="M1300,-28L1293,30L1491,45Z" fill="#878787" stroke="#878787"/><path d="M1300,-28L1491,45L1475,-155Z" fill="#818181" stroke="#818181"/><path d="M1475,-155L1491,45L1646,-151Z" fill="#808080" stroke="#808080"/><path d="M1646,-151L1491,45L1753,29Z" fill="#808080" stroke="#808080"/><path d="M1646,-151L1753,29L1815,11Z" fill="#808080" stroke="#808080"/><path d="M1646,-151L1815,11L1900,-143Z" fill="#808080" stroke="#808080"/><path d="M1900,-143L1815,11L1878,362Z" fill="#808080" stroke="#808080"/><path d="M-118,75L-154,438L-68,271Z" fill="#e2e2e2" stroke="#e2e2e2"/><path d="M-118,75L-68,271L21,100Z" fill="#fefefe" stroke="#fefefe"/><path d="M21,100L-68,271L142,313Z" fill="#ebebeb" stroke="#ebebeb"/><path d="M21,100L142,313L196,181Z" fill="#efefef" stroke="#efefef"/><path d="M284,55L196,181L370,221Z" fill="#efefef" stroke="#efefef"/><path d="M284,55L370,221L417,85Z" fill="#ececec" stroke="#ececec"/><path d="M417,85L370,221L553,225Z" fill="#dedede" stroke="#dedede"/><path d="M417,85L553,225L622,15Z" fill="#dfdfdf" stroke="#dfdfdf"/><path d="M622,15L553,225L678,74Z" fill="#d6d6d6" stroke="#d6d6d6"/><path d="M678,74L553,225L742,298Z" fill="#c6c6c6" stroke="#c6c6c6"/><path d="M678,74L742,298L862,141Z" fill="#c1c1c1" stroke="#c1c1c1"/><path d="M862,141L742,298L898,175Z" fill="#b3b3b3" stroke="#b3b3b3"/><path d="M862,141L898,175L1093,147Z" fill="#b2b2b2" stroke="#b2b2b2"/><path d="M1093,147L898,175L1090,183Z" fill="#a8a8a8" stroke="#a8a8a8"/><path d="M1093,147L1090,183L1134,229Z" fill="#9c9c9c" stroke="#9c9c9c"/><path d="M1093,147L1134,229L1220,44Z" fill="#a0a0a0" stroke="#a0a0a0"/><path d="M1220,44L1134,229L1340,277Z" fill="#8d8d8d" stroke="#8d8d8d"/><path d="M1220,44L1340,277L1293,30Z" fill="#8f8f8f" stroke="#8f8f8f"/><path d="M1293,30L1340,277L1491,45Z" fill="#868686" stroke="#868686"/><path d="M1491,45L1340,277L1588,180Z" fill="#7b7b7b" stroke="#7b7b7b"/><path d="M1491,45L1588,180L1753,29Z" fill="#808080" stroke="#808080"/><path d="M1753,29L1588,180L1753,166Z" fill="#808080" stroke="#808080"/><path d="M1753,29L1753,166L1815,11Z" fill="#808080" stroke="#808080"/><path d="M1815,11L1753,166L1808,292Z" fill="#7d7d7d" stroke="#7d7d7d"/><path d="M1815,11L1808,292L1878,362Z" fill="#6f6f6f" stroke="#6f6f6f"/><path d="M-68,271L-154,438L34,456Z" fill="#bcbcbc" stroke="#bcbcbc"/><path d="M-68,271L34,456L142,313Z" fill="#c6c6c6" stroke="#c6c6c6"/><path d="M142,313L34,456L186,406Z" fill="#b7b7b7" stroke="#b7b7b7"/><path d="M142,313L186,406L370,221Z" fill="#c7c7c7" stroke="#c7c7c7"/><path d="M142,313L370,221L196,181Z" fill="#dedede" stroke="#dedede"/><path d="M370,221L186,406L449,377Z" fill="#bababa" stroke="#bababa"/><path d="M370,221L449,377L553,225Z" fill="#c3c3c3" stroke="#c3c3c3"/><path d="M553,225L449,377L596,392Z" fill="#acacac" stroke="#acacac"/><path d="M553,225L596,392L742,298Z" fill="#a9a9a9" stroke="#a9a9a9"/><path d="M742,298L596,392L654,428Z" fill="#929292" stroke="#929292"/><path d="M742,298L654,428L807,437Z" fill="#878787" stroke="#878787"/><path d="M742,298L807,437L898,175Z" fill="#979797" stroke="#979797"/><path d="M898,175L807,437L1019,370Z" fill="#878787" stroke="#878787"/><path d="M898,175L1019,370L1090,183Z" fill="#989898" stroke="#989898"/><path d="M1090,183L1019,370L1134,229Z" fill="#8b8b8b" stroke="#8b8b8b"/><path d="M1134,229L1019,370L1131,349Z" fill="#787878" stroke="#787878"/><path d="M1134,229L1131,349L1297,334Z" fill="#707070" stroke="#707070"/><path d="M1134,229L1297,334L1340,277Z" fill="#6f6f6f" stroke="#6f6f6f"/><path d="M1340,277L1297,334L1521,345Z" fill="#565656" stroke="#565656"/><path d="M1340,277L1521,345L1588,180Z" fill="#606060" stroke="#606060"/><path d="M1588,180L1521,345L1738,340Z" fill="#5a5a5a" stroke="#5a5a5a"/><path d="M1588,180L1738,340L1753,166Z" fill="#6d6d6d" stroke="#6d6d6d"/><path d="M1753,166L1738,340L1808,292Z" fill="#616161" stroke="#616161"/><path d="M1808,292L1738,340L1878,362Z" fill="#4d4d4d" stroke="#4d4d4d"/><path d="M-154,438L-75,845L-73,752Z" fill="#858585" stroke="#858585"/><path d="M-154,438L-73,752L-55,610Z" fill="#8c8c8c" stroke="#8c8c8c"/><path d="M-154,438L-55,610L30,543Z" fill="#939393" stroke="#939393"/><path d="M-154,438L30,543L34,456Z" fill="#9f9f9f" stroke="#9f9f9f"/><path d="M34,456L30,543L186,406Z" fill="#9f9f9f" stroke="#9f9f9f"/><path d="M186,406L30,543L208,590Z" fill="#8f8f8f" stroke="#8f8f8f"/><path d="M186,406L208,590L409,530Z" fill="#888888" stroke="#888888"/><path d="M186,406L409,530L449,377Z" fill="#9c9c9c" stroke="#9c9c9c"/><path d="M449,377L409,530L521,566Z" fill="#7f7f7f" stroke="#7f7f7f"/><path d="M449,377L521,566L596,392Z" fill="#8c8c8c" stroke="#8c8c8c"/><path d="M596,392L521,566L654,428Z" fill="#7f7f7f" stroke="#7f7f7f"/><path d="M654,428L521,566L726,694Z" fill="#646464" stroke="#646464"/><path d="M654,428L726,694L809,563Z" fill="#5b5b5b" stroke="#5b5b5b"/><path d="M654,428L809,563L786,489Z" fill="#626262" stroke="#626262"/><path d="M654,428L786,489L807,437Z" fill="#727272" stroke="#727272"/><path d="M807,437L786,489L809,563Z" fill="#5c5c5c" stroke="#5c5c5c"/><path d="M807,437L809,563L1079,533Z" fill="#4f4f4f" stroke="#4f4f4f"/><path d="M807,437L1079,533L1019,370Z" fill="#5e5e5e" stroke="#5e5e5e"/><path d="M1019,370L1079,533L1131,349Z" fill="#5e5e5e" stroke="#5e5e5e"/><path d="M1131,349L1079,533L1240,489Z" fill="#484848" stroke="#484848"/><path d="M1131,349L1240,489L1297,334Z" fill="#535353" stroke="#535353"/><path d="M1297,334L1240,489L1367,586Z" fill="#313131" stroke="#313131"/><path d="M1297,334L1367,586L1521,345Z" fill="#383838" stroke="#383838"/><path d="M1521,345L1367,586L1551,542Z" fill="#1b1b1b" stroke="#1b1b1b"/><path d="M1521,345L1551,542L1738,340Z" fill="#373737" stroke="#373737"/><path d="M1738,340L1551,542L1727,620Z" fill="#171717" stroke="#171717"/><path d="M1738,340L1727,620L1769,605Z" fill="#141414" stroke="#141414"/><path d="M1738,340L1769,605L1878,362Z" fill="#303030" stroke="#303030"/><path d="M1878,362L1769,605L1805,730Z" fill="#101010" stroke="#101010"/><path d="M1878,362L1805,730L1808,943Z" fill="#050505" stroke="#050505"/><path d="M-55,610L-73,752L121,712Z" fill="#838383" stroke="#838383"/><path d="M-55,610L121,712L30,543Z" fill="#898989" stroke="#898989"/><path d="M30,543L121,712L208,590Z" fill="#868686" stroke="#868686"/><path d="M208,590L121,712L260,682Z" fill="#7e7e7e" stroke="#7e7e7e"/><path d="M208,590L260,682L409,530Z" fill="#7e7e7e" stroke="#7e7e7e"/><path d="M409,530L260,682L382,771Z" fill="#747474" stroke="#747474"/><path d="M409,530L382,771L521,566Z" fill="#717171" stroke="#717171"/><path d="M521,566L382,771L551,775Z" fill="#656565" stroke="#656565"/><path d="M521,566L551,775L726,694Z" fill="#5d5d5d" stroke="#5d5d5d"/><path d="M809,563L726,694L917,700Z" fill="#494949" stroke="#494949"/><path d="M809,563L917,700L1079,533Z" fill="#434343" stroke="#434343"/><path d="M1079,533L917,700L1019,695Z" fill="#383838" stroke="#383838"/><path d="M1079,533L1019,695L1271,679Z" fill="#2c2c2c" stroke="#2c2c2c"/><path d="M1079,533L1271,679L1240,489Z" fill="#2a2a2a" stroke="#2a2a2a"/><path d="M1240,489L1271,679L1367,586Z" fill="#1d1d1d" stroke="#1d1d1d"/><path d="M1367,586L1271,679L1364,740Z" fill="#111111" stroke="#111111"/><path d="M1367,586L1364,740L1573,704Z" fill="#050505" stroke="#050505"/><path d="M1367,586L1573,704L1551,542Z" fill="#0c0c0c" stroke="#0c0c0c"/><path d="M1551,542L1573,704L1727,620Z" fill="#0b0b0b" stroke="#0b0b0b"/><path d="M1727,620L1573,704L1637,768Z" fill="#030303" stroke="#030303"/><path d="M1727,620L1637,768L1805,730Z" fill="#030303" stroke="#030303"/><path d="M1727,620L1805,730L1769,605Z" fill="#080808" stroke="#080808"/><path d="M-73,752L-75,845L81,854Z" fill="#808080" stroke="#808080"/><path d="M-73,752L81,854L121,712Z" fill="#7e7e7e" stroke="#7e7e7e"/><path d="M121,712L81,854L311,897Z" fill="#797979" stroke="#797979"/><path d="M121,712L311,897L260,682Z" fill="#757575" stroke="#757575"/><path d="M260,682L311,897L382,771Z" fill="#6f6f6f" stroke="#6f6f6f"/><path d="M382,771L311,897L339,935Z" fill="#6e6e6e" stroke="#6e6e6e"/><path d="M382,771L339,935L566,862Z" fill="#676767" stroke="#676767"/><path d="M382,771L566,862L551,775Z" fill="#626262" stroke="#626262"/><path d="M551,775L566,862L731,845Z" fill="#565656" stroke="#565656"/><path d="M551,775L731,845L726,694Z" fill="#515151" stroke="#515151"/><path d="M726,694L731,845L917,700Z" fill="#444444" stroke="#444444"/><path d="M917,700L731,845L823,885Z" fill="#414141" stroke="#414141"/><path d="M917,700L823,885L1088,945Z" fill="#363636" stroke="#363636"/><path d="M917,700L1088,945L1019,695Z" fill="#303030" stroke="#303030"/><path d="M1019,695L1088,945L1151,829Z" fill="#282828" stroke="#282828"/><path d="M1019,695L1151,829L1271,679Z" fill="#202020" stroke="#202020"/><path d="M1271,679L1151,829L1366,828Z" fill="#121212" stroke="#121212"/><path d="M1271,679L1366,828L1364,740Z" fill="#0b0b0b" stroke="#0b0b0b"/><path d="M1364,740L1366,828L1507,817Z" fill="#030303" stroke="#030303"/><path d="M1364,740L1507,817L1573,704Z" fill="#000000" stroke="#000000"/><path d="M1573,704L1507,817L1637,768Z" fill="#000000" stroke="#000000"/><path d="M1637,768L1507,817L1661,844Z" fill="#000000" stroke="#000000"/><path d="M1637,768L1661,844L1805,730Z" fill="#000000" stroke="#000000"/><path d="M1805,730L1661,844L1808,943Z" fill="#000000" stroke="#000000"/><path d="M-75,845L339,935L81,854Z" fill="#7b7b7b" stroke="#7b7b7b"/><path d="M81,854L339,935L311,897Z" fill="#747474" stroke="#747474"/><path d="M339,935L1088,945L823,885Z" fill="#484848" stroke="#484848"/><path d="M339,935L823,885L566,862Z" fill="#5b5b5b" stroke="#5b5b5b"/><path d="M566,862L823,885L731,845Z" fill="#4c4c4c" stroke="#4c4c4c"/><path d="M1088,945L1808,943L1366,828Z" fill="#020202" stroke="#020202"/><path d="M1088,945L1366,828L1151,829Z" fill="#1a1a1a" stroke="#1a1a1a"/><path d="M1366,828L1808,943L1507,817Z" fill="#000000" stroke="#000000"/><path d="M1507,817L1808,943L1661,844Z" fill="#000000" stroke="#000000"/></g></svg>