<svg id="Слой_1" data-name="Слой 1" xmlns="http://www.w3.org/2000/svg" viewBox="0 0 835.76 1953.02"><defs><style>.cls-1{fill:none;stroke:#111;stroke-linecap:round;}</style></defs><title>trianglify-background-2</title><path class="cls-1" d="M89.77,1858.44l171,89,42-210Z"/><path class="cls-1" d="M89.77,1858.44l213-121-132-54Z"/><path class="cls-1" d="M44.77,1595.44l126,88,40-174Z"/><path class="cls-1" d="M44.77,1595.44l166-86-136-47Z"/><path class="cls-1" d="M74.77,1462.44l136,47,4-183Z"/><path class="cls-1" d="M74.77,1462.44l140-136-210-69Z"/><path class="cls-1" d="M4.77,1257.44l210,69-151-125Z"/><path class="cls-1" d="M63.77,1201.44l151,125,73-189Z"/><path class="cls-1" d="M63.77,1201.44l224-64-157-120Z"/><path class="cls-1" d="M130.77,1017.44l157,120-123-156Z"/><path class="cls-1" d="M130.77,1017.44l34-36-28-195Z"/><path class="cls-1" d="M136.77,786.44l28,195,8-192Z"/><path class="cls-1" d="M136.77,786.44l36,3,46-44Z"/><path class="cls-1" d="M136.77,786.44l82-41-185-86Z"/><path class="cls-1" d="M33.77,659.44l185,86,48-206Z"/><path class="cls-1" d="M33.77,659.44l233-120-247,47Z"/><path class="cls-1" d="M19.77,586.44l247-47-232-151Z"/><path class="cls-1" d="M34.77,388.44l232,151-97-248Z"/><path class="cls-1" d="M34.77,388.44l135-97-151-165Z"/><path class="cls-1" d="M18.77,126.44l151,165-14-165h-137Z"/><path class="cls-1" d="M18.77,126.44h137l-155-62Z"/><path class="cls-1" d="M0.77,64.44l155,62,126-55Z"/><path class="cls-1" d="M0.77,64.44l281,7,70-70Z"/><path class="cls-1" d="M260.77,1947.44l185-102-143-108Z"/><path class="cls-1" d="M302.77,1737.44l143,108-50-152Z"/><path class="cls-1" d="M302.77,1737.44l93-44-185-184Z"/><path class="cls-1" d="M302.77,1737.44l-92-228-40,174Z"/><path class="cls-1" d="M210.77,1509.44l185,184-29-263Z"/><path class="cls-1" d="M210.77,1509.44l156-79-152-104Z"/><path class="cls-1" d="M214.77,1326.44l152,104,15-147Z"/><path class="cls-1" d="M214.77,1326.44l167-43-94-146Z"/><path class="cls-1" d="M287.77,1137.44l94,146,36-58Z"/><path class="cls-1" d="M287.77,1137.44l130,88,9-153Z"/><path class="cls-1" d="M287.77,1137.44l139-65-262-91Z"/><path class="cls-1" d="M164.77,981.44l262,91-67-212Z"/><path class="cls-1" d="M164.77,981.44l195-121-187-71Z"/><path class="cls-1" d="M172.77,789.44l187,71-141-115Z"/><path class="cls-1" d="M218.77,745.44l141,115-21-112Z"/><path class="cls-1" d="M218.77,745.44l120,3-15-166Z"/><path class="cls-1" d="M218.77,745.44l105-163-57-43Z"/><path class="cls-1" d="M266.77,539.44l57,43,11-224Z"/><path class="cls-1" d="M266.77,539.44l68-181-165-67Z"/><path class="cls-1" d="M169.77,291.44l165,67-5-217Z"/><path class="cls-1" d="M169.77,291.44l160-150-174-15Z"/><path class="cls-1" d="M155.77,126.44l174,15-48-70Z"/><path class="cls-1" d="M281.77,71.44l48,70,22-140Z"/><path class="cls-1" d="M445.77,1845.44l87,4-137-156Z"/><path class="cls-1" d="M395.77,1693.44l137,156,47-178Z"/><path class="cls-1" d="M395.77,1693.44l184-22-60-201Z"/><path class="cls-1" d="M395.77,1693.44l124-223-153-40Z"/><path class="cls-1" d="M366.77,1430.44l153,40,36-112Z"/><path class="cls-1" d="M366.77,1430.44l189-72-174-75Z"/><path class="cls-1" d="M381.77,1283.44l174,75-138-133Z"/><path class="cls-1" d="M417.77,1225.44l138,133,128-205Z"/><path class="cls-1" d="M417.77,1225.44l266-72-131-83Z"/><path class="cls-1" d="M417.77,1225.44l135-155-74,23Z"/><path class="cls-1" d="M417.77,1225.44l61-132-52-21Z"/><path class="cls-1" d="M426.77,1072.44l52,21,74-23Z"/><path class="cls-1" d="M426.77,1072.44l126-2-30-270Z"/><path class="cls-1" d="M426.77,1072.44l96-272-163,60Z"/><path class="cls-1" d="M359.77,860.44l163-60-184-52Z"/><path class="cls-1" d="M338.77,748.44l184,52-44-161Z"/><path class="cls-1" d="M338.77,748.44l140-109-155-57Z"/><path class="cls-1" d="M323.77,582.44l155,57,97-127Z"/><path class="cls-1" d="M323.77,582.44l252-70-241-154Z"/><path class="cls-1" d="M334.77,358.44l241,154-44-184Z"/><path class="cls-1" d="M334.77,358.44l197-30-202-187Z"/><path class="cls-1" d="M329.77,141.44l202,187,78-176Z"/><path class="cls-1" d="M329.77,141.44l280,11-15-42Z"/><path class="cls-1" d="M329.77,141.44l265-31-243-109Z"/><path class="cls-1" d="M351.77,1.44l243,109,125-36Z"/><path class="cls-1" d="M599.77,1934.44l142,18-40-194Z"/><path class="cls-1" d="M599.77,1934.44l102-176-169,91Z"/><path class="cls-1" d="M532.77,1849.44l169-91-122-87Z"/><path class="cls-1" d="M579.77,1671.44l122,87-30-139Z"/><path class="cls-1" d="M579.77,1671.44l92-52-152-149Z"/><path class="cls-1" d="M519.77,1470.44l152,149,89-122Z"/><path class="cls-1" d="M519.77,1470.44l241,27-205-139Z"/><path class="cls-1" d="M555.77,1358.44l205,139,4-169Z"/><path class="cls-1" d="M555.77,1358.44l209-30-81-175Z"/><path class="cls-1" d="M552.77,1070.44l131,83,6-191Z"/><path class="cls-1" d="M552.77,1070.44l137-108-167-162Z"/><path class="cls-1" d="M522.77,800.44l167,162-5-102Z"/><path class="cls-1" d="M522.77,800.44l162,60-16-252Z"/><path class="cls-1" d="M522.77,800.44l146-192-190,31Z"/><path class="cls-1" d="M478.77,639.44l190-31-93-96Z"/><path class="cls-1" d="M575.77,512.44l93,96,61-93Z"/><path class="cls-1" d="M575.77,512.44l154,3-36-209Z"/><path class="cls-1" d="M575.77,512.44l118-206-162,22Z"/><path class="cls-1" d="M531.77,328.44l162-22-84-154Z"/><path class="cls-1" d="M609.77,152.44l84,154,64-64Z"/><path class="cls-1" d="M609.77,152.44l148,90-38-168Z"/><path class="cls-1" d="M609.77,152.44l110-78-125,36Z"/><path class="cls-1" d="M764.77,1328.44l70-180-151,5Z"/><path class="cls-1" d="M683.77,1153.44l151-5-145-186Z"/><path class="cls-1" d="M684.77,860.44l134-132-150-120Z"/><path class="cls-1" d="M668.77,608.44l150,120-1-215Z"/><path class="cls-1" d="M668.77,608.44l149-95-88,2Z"/><path class="cls-1" d="M729.77,515.44l88-2-11-141Z"/><path class="cls-1" d="M729.77,515.44l77-143-113-66Z"/><path class="cls-1" d="M693.77,306.44l113,66-49-130Z"/><path class="cls-1" d="M757.77,242.44l49,130,27-154Z"/><path class="cls-1" d="M757.77,242.44l76-24-114-144Z"/></svg>