<svg xmlns="http://www.w3.org/2000/svg" viewBox="0 0 1907 4741">
	<style>
		* {fill: none; stroke: #111}
	</style>
	<path class="cls-1" d="M103.61,4714.75l149,16-32-237Z"/>
	<path class="cls-2" d="M103.61,4714.75l117-221-215,1Z"/>
	<path class="cls-3" d="M5.61,4494.75l215-1-198-92Z"/>
	<path class="cls-4" d="M5.61,4494.75l17-93-17-299v392Z"/>
	<path class="cls-5" d="M5.61,4494.75v-392l-4-621Z"/>
	<path class="cls-6" d="M22.61,4401.75l198,92-36-166Z"/>
	<path class="cls-7" d="M22.61,4401.75l162-74-94-101Z"/>
	<path class="cls-8" d="M22.61,4401.75l68-175-85-124Z"/>
	<path class="cls-9" d="M90.61,4226.75l94,101,46-82Z"/>
	<path class="cls-10" d="M90.61,4226.75l140,19-55-187Z"/>
	<path class="cls-11" d="M90.61,4226.75l85-168-170,44Z"/>
	<path class="cls-12" d="M5.61,4102.75l170-44-110-75Z"/>
	<path class="cls-13" d="M5.61,4102.75l60-119,15-297Z"/>
	<path class="cls-14" d="M5.61,4102.75l75-416-79-205Z"/>
	<path class="cls-15" d="M65.61,3983.75l110,75,74-144Z"/>
	<path class="cls-16" d="M65.61,3983.75l184-69-155-133Z"/>
	<path class="cls-17" d="M65.61,3983.75l29-202-14-95Z"/>
	<path class="cls-18" d="M94.61,3781.75l155,133-20-126Z"/>
	<path class="cls-14" d="M94.61,3781.75l135,7-43-137Z"/>
	<path class="cls-19" d="M94.61,3781.75l92-130-106,35Z"/>
	<path class="cls-20" d="M80.61,3686.75l106-35-185-170Z"/>
	<path class="cls-21" d="M1.61,3481.75l185,170,67-124Z"/>
	<path class="cls-22" d="M1.61,3481.75l252,46-142-170Z"/>
	<path class="cls-23" d="M1.61,3481.75l110-124-81-169Z"/>
	<path class="cls-24" d="M1.61,3481.75l29-293-13-801Z"/>
	<path class="cls-25" d="M1.61,3481.75l16-1094-8-676Z"/>
	<path class="cls-26" d="M1.61,3481.75l8-1770-8-1049v2819Z"/>
	<path class="cls-27" d="M111.61,3357.75l142,170-52-219Z"/>
	<path class="cls-28" d="M111.61,3357.75l90-49-171-120Z"/>
	<path class="cls-29" d="M30.61,3188.75l171,120,12-151Z"/>
	<path class="cls-30" d="M30.61,3188.75l183-31-56-63Z"/>
	<path class="cls-31" d="M30.61,3188.75l127-94-119-7Z"/>
	<path class="cls-32" d="M30.61,3188.75l8-101-21-700Z"/>
	<path class="cls-33" d="M38.61,3087.75l119,7-50-269Z"/>
	<path class="cls-32" d="M38.61,3087.75l69-262-62-100Z"/>
	<path class="cls-34" d="M38.61,3087.75l7-362-28-338Z"/>
	<path class="cls-35" d="M107.61,2825.75l50,269,87-201Z"/>
	<path class="cls-36" d="M107.61,2825.75l137,68,24-176Z"/>
	<path class="cls-34" d="M107.61,2825.75l161-108-223,8Z"/>
	<path class="cls-37" d="M45.61,2725.75l223-8-87-116Z"/>
	<path class="cls-38" d="M45.61,2725.75l136-124-101-16Z"/>
	<path class="cls-39" d="M45.61,2725.75l35-140-63-198Z"/>
	<path class="cls-25" d="M80.61,2585.75l101,16,49-170Z"/>
	<path class="cls-40" d="M80.61,2585.75l150-154-213-44Z"/>
	<path class="cls-41" d="M17.61,2387.75l213,44-117-144Z"/>
	<path class="cls-42" d="M17.61,2387.75l96-100-97-139Z"/>
	<path class="cls-43" d="M17.61,2387.75l-1-239-7-437Z"/>
	<path class="cls-44" d="M113.61,2287.75l117,144-68-152Z"/>
	<path class="cls-45" d="M113.61,2287.75l49-8,1-182Z"/>
	<path class="cls-46" d="M113.61,2287.75l50-190-147,51Z"/>
	<path class="cls-43" d="M16.61,2148.75l147-51-90-100Z"/>
	<path class="cls-26" d="M16.61,2148.75l57-151-64-286Z"/>
	<path class="cls-47" d="M73.61,1997.75l90,100-13-110Z"/>
	<path class="cls-26" d="M73.61,1997.75l77-10-59-100Z"/>
	<path class="cls-48" d="M73.61,1997.75l18-110-82-176Z"/>
	<path class="cls-49" d="M91.61,1887.75l59,100,108-105Z"/>
	<path class="cls-50" d="M91.61,1887.75l167-5-3-148Z"/>
	<path class="cls-51" d="M91.61,1887.75l164-153-246-23Z"/>
	<path class="cls-52" d="M9.61,1711.75l246,23-9-155Z"/>
	<path class="cls-53" d="M9.61,1711.75l237-132-185-34Z"/>
	<path class="cls-54" d="M9.61,1711.75l52-166-36-433Z"/>
	<path class="cls-55" d="M9.61,1711.75l16-599-24-450Z"/>
	<path class="cls-56" d="M61.61,1545.75l185,34-6-163Z"/>
	<path class="cls-57" d="M61.61,1545.75l179-129-123-48Z"/>
	<path class="cls-58" d="M61.61,1545.75l56-177-92-256Z"/>
	<path class="cls-58" d="M117.61,1368.75l123,48-27-149Z"/>
	<path class="cls-59" d="M117.61,1368.75l96-101-129-85Z"/>
	<path class="cls-60" d="M117.61,1368.75l-33-186-59-70Z"/>
	<path class="cls-61" d="M84.61,1182.75l129,85-16-168Z"/>
	<path class="cls-62" d="M84.61,1182.75l113-83-172,13Z"/>
	<path class="cls-63" d="M25.61,1112.75l172-13-176-206Z"/>
	<path class="cls-64" d="M25.61,1112.75l-4-219-20-231Z"/>
	<path class="cls-65" d="M21.61,893.75l176,206,51-111Z"/>
	<path class="cls-64" d="M21.61,893.75l227,95,7-227Z"/>
	<path class="cls-66" d="M21.61,893.75l234-132-216,17Z"/>
	<path class="cls-67" d="M21.61,893.75l18-115-38-116Z"/>
	<path class="cls-68" d="M39.61,778.75l216-17-30-77Z"/>
	<path class="cls-69" d="M39.61,778.75l186-94-224-22Z"/>
	<path class="cls-70" d="M1.61,662.75l224,22,21-209Z"/>
	<path class="cls-71" d="M1.61,662.75l245-187-186-49Z"/>
	<path class="cls-72" d="M1.61,662.75l59-236-58-90Z"/>
	<path class="cls-73" d="M60.61,426.75l186,49,23-188Z"/>
	<path class="cls-74" d="M60.61,426.75l209-139-267,49Z"/>
	<path class="cls-74" d="M2.61,336.75l267-49-170-114Z"/>
	<path class="cls-74" d="M2.61,336.75l97-163-18-173Z"/>
	<path class="cls-74" d="M99.61,173.75l170,114-4-55Z"/>
	<path class="cls-74" d="M99.61,173.75l166,59-50-182Z"/>
	<path class="cls-74" d="M99.61,173.75l116-123-134-50Z"/>
	<path class="cls-74" d="M81.61,0.75l134,50,306-7Z"/>
	<path class="cls-75" d="M81.61,0.75l440,43,304-21Z"/>
	<path class="cls-76" d="M81.61,0.75l744,22,607-12Z"/>
	<path class="cls-6" d="M252.61,4730.75l648,9-568-34Z"/>
	<path class="cls-1" d="M252.61,4730.75l80-25-112-212Z"/>
	<path class="cls-77" d="M220.61,4493.75l112,212,58-154Z"/>
	<path class="cls-78" d="M220.61,4493.75l170,58,16-108Z"/>
	<path class="cls-79" d="M220.61,4493.75l186-50-222-116Z"/>
	<path class="cls-4" d="M184.61,4327.75l222,116-176-198Z"/>
	<path class="cls-7" d="M230.61,4245.75l176,198-57-230Z"/>
	<path class="cls-10" d="M230.61,4245.75l119-32-174-155Z"/>
	<path class="cls-80" d="M175.61,4058.75l174,155,51-159Z"/>
	<path class="cls-5" d="M175.61,4058.75l225-4-151-140Z"/>
	<path class="cls-15" d="M249.61,3914.75l151,140,7-136Z"/>
	<path class="cls-18" d="M249.61,3914.75l158,4-21-168Z"/>
	<path class="cls-17" d="M249.61,3914.75l137-164-157,38Z"/>
	<path class="cls-14" d="M229.61,3788.75l157-38-200-99Z"/>
	<path class="cls-81" d="M186.61,3651.75l200,99-53-165Z"/>
	<path class="cls-21" d="M186.61,3651.75l147-66-80-58Z"/>
	<path class="cls-82" d="M253.61,3527.75l80,58,80-90Z"/>
	<path class="cls-22" d="M253.61,3527.75l160-32-75-184Z"/>
	<path class="cls-27" d="M253.61,3527.75l85-216-137-3Z"/>
	<path class="cls-28" d="M201.61,3308.75l137,3,11-73Z"/>
	<path class="cls-29" d="M201.61,3308.75l148-70-136-81Z"/>
	<path class="cls-30" d="M213.61,3157.75l136,81-22-169Z"/>
	<path class="cls-83" d="M213.61,3157.75l114-88-170,25Z"/>
	<path class="cls-24" d="M157.61,3094.75l170-25-83-176Z"/>
	<path class="cls-84" d="M244.61,2893.75l83,176,45-131Z"/>
	<path class="cls-85" d="M244.61,2893.75l128,45-104-221Z"/>
	<path class="cls-86" d="M268.61,2717.75l104,221-63-259Z"/>
	<path class="cls-37" d="M268.61,2717.75l41-38-128-78Z"/>
	<path class="cls-87" d="M181.61,2601.75l128,78-9-116Z"/>
	<path class="cls-25" d="M181.61,2601.75l119-38-70-132Z"/>
	<path class="cls-88" d="M230.61,2431.75l70,132,66-81Z"/>
	<path class="cls-89" d="M230.61,2431.75l136,51,18-224Z"/>
	<path class="cls-44" d="M230.61,2431.75l154-173-222,21Z"/>
	<path class="cls-45" d="M162.61,2279.75l222-21-221-161Z"/>
	<path class="cls-90" d="M163.61,2097.75l221,161,17-151Z"/>
	<path class="cls-43" d="M163.61,2097.75l238,10-7-101Z"/>
	<path class="cls-47" d="M163.61,2097.75l231-91-244-19Z"/>
	<path class="cls-26" d="M150.61,1987.75l244,19-136-124Z"/>
	<path class="cls-49" d="M258.61,1882.75l136,124-50-157Z"/>
	<path class="cls-50" d="M258.61,1882.75l86-33-89-115Z"/>
	<path class="cls-51" d="M255.61,1734.75l89,115,14-184Z"/>
	<path class="cls-91" d="M255.61,1734.75l103-69-112-86Z"/>
	<path class="cls-53" d="M246.61,1579.75l112,86,37-112Z"/>
	<path class="cls-92" d="M246.61,1579.75l149-26-155-137Z"/>
	<path class="cls-57" d="M240.61,1416.75l155,137,20-207Z"/>
	<path class="cls-58" d="M240.61,1416.75l175-70-202-79Z"/>
	<path class="cls-59" d="M213.61,1267.75l202,79-43-135Z"/>
	<path class="cls-61" d="M213.61,1267.75l159-56-175-112Z"/>
	<path class="cls-62" d="M197.61,1099.75l175,112-3-136Z"/>
	<path class="cls-63" d="M197.61,1099.75l172-24-121-87Z"/>
	<path class="cls-93" d="M248.61,988.75l121,87,42-107Z"/>
	<path class="cls-94" d="M248.61,988.75l163-20-156-207Z"/>
	<path class="cls-95" d="M255.61,761.75l156,207-14-196Z"/>
	<path class="cls-68" d="M255.61,761.75l142,11-172-88Z"/>
	<path class="cls-96" d="M225.61,684.75l172,88,13-182Z"/>
	<path class="cls-97" d="M225.61,684.75l185-94-164-115Z"/>
	<path class="cls-71" d="M246.61,475.75l164,115-40-98Z"/>
	<path class="cls-98" d="M246.61,475.75l124,17-22-141Z"/>
	<path class="cls-99" d="M246.61,475.75l102-124-79-64Z"/>
	<path class="cls-74" d="M269.61,287.75l79,64-83-119Z"/>
	<path class="cls-74" d="M265.61,232.75l83,119-16-221Z"/>
	<path class="cls-74" d="M265.61,232.75l67-102-117-80Z"/>
	<path class="cls-74" d="M215.61,50.75l117,80,13-45Z"/>
	<path class="cls-74" d="M215.61,50.75l130,35,176-42Z"/>
	<path class="cls-15" d="M332.61,4705.75l568,34-248-65Z"/>
	<path class="cls-9" d="M332.61,4705.75l320-31-95-23Z"/>
	<path class="cls-3" d="M332.61,4705.75l225-54-167-100Z"/>
	<path class="cls-9" d="M390.61,4551.75l167,100-27-69Z"/>
	<path class="cls-7" d="M390.61,4551.75l140,31-124-139Z"/>
	<path class="cls-12" d="M406.61,4443.75l124,139,95-169Z"/>
	<path class="cls-5" d="M406.61,4443.75l219-30-141-64Z"/>
	<path class="cls-8" d="M406.61,4443.75l78-94-135-136Z"/>
	<path class="cls-12" d="M349.61,4213.75l135,136,23-161Z"/>
	<path class="cls-5" d="M349.61,4213.75l158-25-107-134Z"/>
	<path class="cls-18" d="M400.61,4054.75l107,134,9-49Z"/>
	<path class="cls-14" d="M400.61,4054.75l116,85-15-190Z"/>
	<path class="cls-14" d="M400.61,4054.75l101-105-94-31Z"/>
	<path class="cls-21" d="M407.61,3918.75l94,31,2-222Z"/>
	<path class="cls-20" d="M407.61,3918.75l96-191-117,23Z"/>
	<path class="cls-22" d="M386.61,3750.75l117-23-7-146Z"/>
	<path class="cls-82" d="M386.61,3750.75l110-169-163,4Z"/>
	<path class="cls-22" d="M333.61,3585.75l163-4-83-86Z"/>
	<path class="cls-29" d="M413.61,3495.75l83,86,37-148Z"/>
	<path class="cls-100" d="M413.61,3495.75l120-62-195-122Z"/>
	<path class="cls-31" d="M338.61,3311.75l195,122,20-125Z"/>
	<path class="cls-31" d="M338.61,3311.75l215-3-103-80Z"/>
	<path class="cls-29" d="M338.61,3311.75l112-83-101,10Z"/>
	<path class="cls-30" d="M349.61,3238.75l101-10-123-159Z"/>
	<path class="cls-84" d="M327.61,3069.75l123,159,97-185Z"/>
	<path class="cls-35" d="M327.61,3069.75l220-26-175-105Z"/>
	<path class="cls-101" d="M372.61,2938.75l175,105,11-105h-186Z"/>
	<path class="cls-87" d="M372.61,2938.75h186l-35-208Z"/>
	<path class="cls-101" d="M372.61,2938.75l151-208-214-51Z"/>
	<path class="cls-88" d="M309.61,2679.75l214,51-44-125Z"/>
	<path class="cls-87" d="M309.61,2679.75l170-74-179-42Z"/>
	<path class="cls-25" d="M300.61,2563.75l179,42-113-123Z"/>
	<path class="cls-41" d="M366.61,2482.75l113,123,5-114Z"/>
	<path class="cls-102" d="M366.61,2482.75l118,9,12-181Z"/>
	<path class="cls-102" d="M366.61,2482.75l130-172-112-52Z"/>
	<path class="cls-103" d="M384.61,2258.75l112,52,70-126Z"/>
	<path class="cls-103" d="M384.61,2258.75l182-74-165-77Z"/>
	<path class="cls-104" d="M401.61,2107.75l165,77-54-225Z"/>
	<path class="cls-50" d="M401.61,2107.75l111-148-118,47Z"/>
	<path class="cls-52" d="M394.61,2006.75l118-47-21-105Z"/>
	<path class="cls-104" d="M394.61,2006.75l97-152-147-5Z"/>
	<path class="cls-53" d="M344.61,1849.75l147,5-11-180Z"/>
	<path class="cls-91" d="M344.61,1849.75l136-175-122-9Z"/>
	<path class="cls-92" d="M358.61,1665.75l122,9-85-121Z"/>
	<path class="cls-58" d="M395.61,1553.75l85,121,78-187Z"/>
	<path class="cls-59" d="M395.61,1553.75l163-66-93-132Z"/>
	<path class="cls-105" d="M395.61,1553.75l70-198-50-9Z"/>
	<path class="cls-60" d="M415.61,1346.75l50,9-93-144Z"/>
	<path class="cls-106" d="M372.61,1211.75l93,144,91-129Z"/>
	<path class="cls-93" d="M372.61,1211.75l184,15-74-85Z"/>
	<path class="cls-106" d="M372.61,1211.75l110-70-113-66Z"/>
	<path class="cls-107" d="M369.61,1075.75l113,66-71-173Z"/>
	<path class="cls-108" d="M411.61,968.75l71,173-16-208Z"/>
	<path class="cls-67" d="M411.61,968.75l55-35-69-161Z"/>
	<path class="cls-109" d="M397.61,772.75l69,161,40-118Z"/>
	<path class="cls-110" d="M397.61,772.75l109,43,25-134Z"/>
	<path class="cls-110" d="M397.61,772.75l134-91-121-91Z"/>
	<path class="cls-74" d="M410.61,590.75l121,91-12-188Z"/>
	<path class="cls-73" d="M410.61,590.75l109-97-149-1Z"/>
	<path class="cls-74" d="M370.61,492.75l149,1-171-142Z"/>
	<path class="cls-111" d="M348.61,351.75l171,142-3-179Z"/>
	<path class="cls-112" d="M348.61,351.75l168-37-184-184Z"/>
	<path class="cls-113" d="M332.61,130.75l184,184,7-155Z"/>
	<path class="cls-112" d="M332.61,130.75l191,29-178-74Z"/>
	<path class="cls-113" d="M345.61,85.75l178,74-2-116Z"/>
	<path class="cls-13" d="M557.61,4651.75l95,23-21-143Z"/>
	<path class="cls-5" d="M557.61,4651.75l74-120-101,51Z"/>
	<path class="cls-16" d="M530.61,4582.75l101-51-6-118Z"/>
	<path class="cls-14" d="M484.61,4349.75l141,64-5-222Z"/>
	<path class="cls-14" d="M484.61,4349.75l136-158-113-3Z"/>
	<path class="cls-81" d="M507.61,4188.75l113,3-104-52Z"/>
	<path class="cls-82" d="M516.61,4139.75l104,52-20-108Z"/>
	<path class="cls-21" d="M516.61,4139.75l84-56-99-134Z"/>
	<path class="cls-23" d="M501.61,3949.75l99,134,70-193Z"/>
	<path class="cls-100" d="M501.61,3949.75l169-59-27-54Z"/>
	<path class="cls-114" d="M501.61,3949.75l142-113-140-109Z"/>
	<path class="cls-83" d="M503.61,3727.75l140,109,46-171Z"/>
	<path class="cls-30" d="M503.61,3727.75l186-62-193-84Z"/>
	<path class="cls-35" d="M496.61,3581.75l193,84,10-195Z"/>
	<path class="cls-24" d="M496.61,3581.75l203-111-166-37Z"/>
	<path class="cls-36" d="M533.61,3433.75l166,37-32-116Z"/>
	<path class="cls-115" d="M533.61,3433.75l134-79-114-46Z"/>
	<path class="cls-101" d="M553.61,3308.75l114,46-14-165Z"/>
	<path class="cls-32" d="M553.61,3308.75l100-119-203,39Z"/>
	<path class="cls-86" d="M450.61,3228.75l203-39-106-146Z"/>
	<path class="cls-39" d="M547.61,3043.75l106,146-42-207Z"/>
	<path class="cls-25" d="M547.61,3043.75l64-61-53-44Z"/>
	<path class="cls-116" d="M558.61,2938.75l53,44v-99Z"/>
	<path class="cls-89" d="M558.61,2938.75l53-55-88-153Z"/>
	<path class="cls-102" d="M523.61,2730.75l88,153,46-147Z"/>
	<path class="cls-117" d="M523.61,2730.75l134,6,10-95Z"/>
	<path class="cls-45" d="M523.61,2730.75l144-89-188-36Z"/>
	<path class="cls-47" d="M479.61,2605.75l188,36-21-151Z"/>
	<path class="cls-90" d="M479.61,2605.75l167-115-162,1Z"/>
	<path class="cls-47" d="M484.61,2491.75l162-1-150-180Z"/>
	<path class="cls-104" d="M496.61,2310.75l150,180,1-241Z"/>
	<path class="cls-51" d="M496.61,2310.75l151-61-81-65Z"/>
	<path class="cls-56" d="M566.61,2184.75l81,65,27-162Z"/>
	<path class="cls-118" d="M566.61,2184.75l108-97-3-43Z"/>
	<path class="cls-92" d="M566.61,2184.75l105-140-159-85Z"/>
	<path class="cls-119" d="M512.61,1959.75l159,85-21-169Z"/>
	<path class="cls-54" d="M512.61,1959.75l138-84-159-21Z"/>
	<path class="cls-105" d="M491.61,1854.75l159,21,16-134Z"/>
	<path class="cls-58" d="M491.61,1854.75l175-113-186-67Z"/>
	<path class="cls-120" d="M480.61,1674.75l186,67-108-254Z"/>
	<path class="cls-65" d="M558.61,1487.75l108,254,50-250Z"/>
	<path class="cls-121" d="M558.61,1487.75l158,4-83-100Z"/>
	<path class="cls-106" d="M558.61,1487.75l75-96-168-36Z"/>
	<path class="cls-65" d="M465.61,1355.75l168,36-77-165Z"/>
	<path class="cls-66" d="M556.61,1226.75l77,165,13-203Z"/>
	<path class="cls-95" d="M556.61,1226.75l90-38-164-47Z"/>
	<path class="cls-68" d="M482.61,1141.75l164,47,21-67Z"/>
	<path class="cls-109" d="M482.61,1141.75l185-20-19-188Z"/>
	<path class="cls-69" d="M482.61,1141.75l166-208h-182Z"/>
	<path class="cls-97" d="M466.61,933.75h182l-142-118Z"/>
	<path class="cls-73" d="M506.61,815.75l142,118v-179Z"/>
	<path class="cls-73" d="M506.61,815.75l142-61-117-73Z"/>
	<path class="cls-122" d="M531.61,681.75l117,73-11-70Z"/>
	<path class="cls-122" d="M531.61,681.75l106,3-118-191Z"/>
	<path class="cls-123" d="M519.61,493.75l118,191,75-232Z"/>
	<path class="cls-124" d="M519.61,493.75l193-41-62-156Z"/>
	<path class="cls-125" d="M519.61,493.75l131-197-134,18Z"/>
	<path class="cls-126" d="M516.61,314.75l134-18-127-137Z"/>
	<path class="cls-124" d="M523.61,159.75l127,137-4-165Z"/>
	<path class="cls-126" d="M523.61,159.75l123-28-125-88Z"/>
	<path class="cls-127" d="M521.61,43.75l125,88,25-38Z"/>
	<path class="cls-128" d="M521.61,43.75l150,50,154-71Z"/>
	<path class="cls-29" d="M652.61,4674.75l248,65-71-108Z"/>
	<path class="cls-114" d="M652.61,4674.75l177-43-41-79Z"/>
	<path class="cls-21" d="M652.61,4674.75l136-122-157-21Z"/>
	<path class="cls-28" d="M631.61,4531.75l157,21,15-147Z"/>
	<path class="cls-22" d="M631.61,4531.75l172-126-178,8Z"/>
	<path class="cls-31" d="M625.61,4413.75l178-8,5-178Z"/>
	<path class="cls-28" d="M625.61,4413.75l183-186-188-36Z"/>
	<path class="cls-29" d="M620.61,4191.75l188,36-208-144Z"/>
	<path class="cls-35" d="M600.61,4083.75l208,144,36-192Z"/>
	<path class="cls-33" d="M600.61,4083.75l244-48-174-145Z"/>
	<path class="cls-86" d="M670.61,3890.75l174,145-80-158Z"/>
	<path class="cls-35" d="M670.61,3890.75l94-13-121-41Z"/>
	<path class="cls-32" d="M643.61,3836.75l121,41-75-212Z"/>
	<path class="cls-37" d="M689.61,3665.75l75,212,69-53Z"/>
	<path class="cls-88" d="M689.61,3665.75l144,159,13-224Z"/>
	<path class="cls-39" d="M689.61,3665.75l157-65-147-130Z"/>
	<path class="cls-89" d="M699.61,3470.75l147,130-44-126Z"/>
	<path class="cls-89" d="M699.61,3470.75l103,4-31-119Z"/>
	<path class="cls-88" d="M699.61,3470.75l72-115-104-1Z"/>
	<path class="cls-88" d="M667.61,3354.75l104,1-118-166Z"/>
	<path class="cls-45" d="M653.61,3189.75l118,166,80-160Z"/>
	<path class="cls-47" d="M653.61,3189.75l198,6-59-198Z"/>
	<path class="cls-102" d="M653.61,3189.75l139-192-181-15Z"/>
	<path class="cls-45" d="M611.61,2982.75l181,15-181-114v99Z"/>
	<path class="cls-48" d="M611.61,2883.75l181,114,31-132Z"/>
	<path class="cls-26" d="M611.61,2883.75l212-18-166-129Z"/>
	<path class="cls-53" d="M657.61,2736.75l166,129,9-139Z"/>
	<path class="cls-129" d="M657.61,2736.75l175-10-165-85Z"/>
	<path class="cls-56" d="M667.61,2641.75l165,85-52-181Z"/>
	<path class="cls-91" d="M667.61,2641.75l113-96-134-55Z"/>
	<path class="cls-118" d="M646.61,2490.75l134,55,20-166Z"/>
	<path class="cls-54" d="M646.61,2490.75l154-111-153-130Z"/>
	<path class="cls-59" d="M647.61,2249.75l153,130,7-109Z"/>
	<path class="cls-55" d="M647.61,2249.75l160,21,36-88Z"/>
	<path class="cls-120" d="M647.61,2249.75l196-67-169-95Z"/>
	<path class="cls-106" d="M674.61,2087.75l169,95-76-179Z"/>
	<path class="cls-61" d="M674.61,2087.75l93-84-96,41Z"/>
	<path class="cls-55" d="M671.61,2044.75l96-41-117-128Z"/>
	<path class="cls-93" d="M650.61,1875.75l117,128-7-168Z"/>
	<path class="cls-63" d="M650.61,1875.75l110-40-94-94Z"/>
	<path class="cls-108" d="M666.61,1741.75l94,94,55-201Z"/>
	<path class="cls-68" d="M666.61,1741.75l149-107-31-71Z"/>
	<path class="cls-95" d="M666.61,1741.75l118-178-68-72Z"/>
	<path class="cls-109" d="M716.61,1491.75l68,72-27-161Z"/>
	<path class="cls-68" d="M716.61,1491.75l41-89-124-11Z"/>
	<path class="cls-97" d="M633.61,1391.75l124,11,39-119Z"/>
	<path class="cls-130" d="M633.61,1391.75l163-108-150-95Z"/>
	<path class="cls-131" d="M646.61,1188.75l150,95-129-162Z"/>
	<path class="cls-112" d="M667.61,1121.75l129,162,21-250Z"/>
	<path class="cls-113" d="M667.61,1121.75l150-88-38-77Z"/>
	<path class="cls-112" d="M667.61,1121.75l112-165-131-23Z"/>
	<path class="cls-132" d="M648.61,933.75l131,23-7-145Z"/>
	<path class="cls-75" d="M648.61,933.75l124-122-124-57v179Z"/>
	<path class="cls-132" d="M648.61,754.75l124,57-135-127Z"/>
	<path class="cls-133" d="M637.61,684.75l135,127,89-168Z"/>
	<path class="cls-134" d="M637.61,684.75l224-41-149-191Z"/>
	<path class="cls-135" d="M712.61,452.75l149,191-58-204Z"/>
	<path class="cls-136" d="M712.61,452.75l91-13-35-150Z"/>
	<path class="cls-137" d="M712.61,452.75l56-163-118,7Z"/>
	<path class="cls-138" d="M650.61,296.75l118-7-122-158Z"/>
	<path class="cls-139" d="M646.61,131.75l122,158,32-163Z"/>
	<path class="cls-137" d="M646.61,131.75l154-5-129-33Z"/>
	<path class="cls-140" d="M671.61,93.75l129,33,25-104Z"/>
	<path class="cls-115" d="M829.61,4631.75l71,108,56-177Z"/>
	<path class="cls-84" d="M829.61,4631.75l127-69-168-10Z"/>
	<path class="cls-35" d="M788.61,4552.75l168,10-153-157Z"/>
	<path class="cls-37" d="M803.61,4405.75l153,157,60-216Z"/>
	<path class="cls-101" d="M803.61,4405.75l213-59-208-119Z"/>
	<path class="cls-39" d="M808.61,4227.75l208,119-113-154Z"/>
	<path class="cls-38" d="M808.61,4227.75l95-35-59-157Z"/>
	<path class="cls-88" d="M844.61,4035.75l59,157,33-63Z"/>
	<path class="cls-116" d="M844.61,4035.75l92,94-20-181Z"/>
	<path class="cls-25" d="M844.61,4035.75l72-87-152-71Z"/>
	<path class="cls-40" d="M764.61,3877.75l152,71-83-124Z"/>
	<path class="cls-45" d="M833.61,3824.75l83,124,74-116Z"/>
	<path class="cls-47" d="M833.61,3824.75l157,8,17-181Z"/>
	<path class="cls-90" d="M833.61,3824.75l174-173-161-51Z"/>
	<path class="cls-26" d="M846.61,3600.75l161,51-80-138Z"/>
	<path class="cls-90" d="M846.61,3600.75l81-87-125-39Z"/>
	<path class="cls-26" d="M802.61,3474.75l125,39,4-215Z"/>
	<path class="cls-43" d="M802.61,3474.75l129-176-160,57Z"/>
	<path class="cls-49" d="M771.61,3355.75l160-57-80-103Z"/>
	<path class="cls-92" d="M851.61,3195.75l80,103,77-170Z"/>
	<path class="cls-118" d="M851.61,3195.75l157-67-21-122Z"/>
	<path class="cls-141" d="M851.61,3195.75l136-189-195-9Z"/>
	<path class="cls-118" d="M792.61,2997.75l195,9-67-101Z"/>
	<path class="cls-56" d="M792.61,2997.75l128-92-97-40Z"/>
	<path class="cls-105" d="M823.61,2865.75l97,40,47-144Z"/>
	<path class="cls-105" d="M823.61,2865.75l144-104-135-35Z"/>
	<path class="cls-142" d="M832.61,2726.75l135,35,10-141Z"/>
	<path class="cls-60" d="M832.61,2726.75l145-106-197-75Z"/>
	<path class="cls-65" d="M780.61,2545.75l197,75,30-216Z"/>
	<path class="cls-106" d="M780.61,2545.75l227-141-207-25Z"/>
	<path class="cls-95" d="M800.61,2379.75l207,25-2-106Z"/>
	<path class="cls-121" d="M800.61,2379.75l205-81-198-28Z"/>
	<path class="cls-67" d="M807.61,2270.75l198,28-56-127Z"/>
	<path class="cls-64" d="M807.61,2270.75l142-99-106,11Z"/>
	<path class="cls-95" d="M843.61,2182.75l106-11-182-168Z"/>
	<path class="cls-69" d="M767.61,2003.75l182,168-30-238Z"/>
	<path class="cls-66" d="M767.61,2003.75l152-70-159-98Z"/>
	<path class="cls-97" d="M760.61,1835.75l159,98,63-90Z"/>
	<path class="cls-97" d="M760.61,1835.75l222,8-167-209Z"/>
	<path class="cls-74" d="M815.61,1634.75l167,209,4-192Z"/>
	<path class="cls-143" d="M815.61,1634.75l171,17-42-76Z"/>
	<path class="cls-72" d="M815.61,1634.75l129-59-160-12Z"/>
	<path class="cls-98" d="M784.61,1563.75l160,12-187-173Z"/>
	<path class="cls-122" d="M757.61,1402.75l187,173-1-230Z"/>
	<path class="cls-112" d="M757.61,1402.75l186-57-147-62Z"/>
	<path class="cls-144" d="M796.61,1283.75l147,62-15-161Z"/>
	<path class="cls-144" d="M796.61,1283.75l132-99-111-151Z"/>
	<path class="cls-124" d="M817.61,1033.75l111,151-23-120Z"/>
	<path class="cls-145" d="M817.61,1033.75l88,31,76-110Z"/>
	<path class="cls-133" d="M817.61,1033.75l164-79-202,2Z"/>
	<path class="cls-138" d="M779.61,956.75l202-2-56-139Z"/>
	<path class="cls-146" d="M779.61,956.75l146-141-153-4Z"/>
	<path class="cls-137" d="M772.61,811.75l153,4-64-172Z"/>
	<path class="cls-147" d="M861.61,643.75l64,172,82-146Z"/>
	<path class="cls-148" d="M861.61,643.75l146,26-78-179Z"/>
	<path class="cls-149" d="M861.61,643.75l68-153-126-51Z"/>
	<path class="cls-150" d="M803.61,439.75l126,51,29-207Z"/>
	<path class="cls-151" d="M803.61,439.75l155-156-190,6Z"/>
	<path class="cls-151" d="M768.61,289.75l190-6-158-157Z"/>
	<path class="cls-152" d="M800.61,126.75l158,157,56-79Z"/>
	<path class="cls-153" d="M800.61,126.75l214,78-105-157Z"/>
	<path class="cls-151" d="M800.61,126.75l109-79-84-25Z"/>
	<path class="cls-154" d="M825.61,22.75l84,25,161-11Z"/>
	<path class="cls-155" d="M825.61,22.75l245,14,362-26Z"/>
	<path class="cls-41" d="M900.61,4739.75l304-58-36-25Z"/>
	<path class="cls-40" d="M900.61,4739.75l268-83-108-108Z"/>
	<path class="cls-38" d="M900.61,4739.75l160-191-104,14Z"/>
	<path class="cls-116" d="M956.61,4562.75l104-14-44-202Z"/>
	<path class="cls-90" d="M1016.61,4346.75l44,202,104-210Z"/>
	<path class="cls-103" d="M1016.61,4346.75l148-8-73-161Z"/>
	<path class="cls-102" d="M1016.61,4346.75l75-169-188,15Z"/>
	<path class="cls-42" d="M903.61,4192.75l188-15-155-48Z"/>
	<path class="cls-103" d="M936.61,4129.75l155,48-10-213Z"/>
	<path class="cls-117" d="M936.61,4129.75l145-165-165-16Z"/>
	<path class="cls-103" d="M916.61,3948.75l165,16-91-132Z"/>
	<path class="cls-129" d="M990.61,3832.75l91,132,34-147Z"/>
	<path class="cls-129" d="M990.61,3832.75l125-15-108-166Z"/>
	<path class="cls-92" d="M1007.61,3651.75l108,166-6-171Z"/>
	<path class="cls-57" d="M1007.61,3651.75l102-5,40-149Z"/>
	<path class="cls-141" d="M1007.61,3651.75l142-154-222,16Z"/>
	<path class="cls-118" d="M927.61,3513.75l222-16-74-183Z"/>
	<path class="cls-141" d="M927.61,3513.75l148-199-144-16Z"/>
	<path class="cls-119" d="M931.61,3298.75l144,16-67-186Z"/>
	<path class="cls-61" d="M1008.61,3128.75l67,186,89-76Z"/>
	<path class="cls-63" d="M1008.61,3128.75l156,110-2-148Z"/>
	<path class="cls-142" d="M1008.61,3128.75l154-38-175-84Z"/>
	<path class="cls-65" d="M987.61,3006.75l175,84-91-174Z"/>
	<path class="cls-55" d="M987.61,3006.75l84-90-151-11Z"/>
	<path class="cls-142" d="M920.61,2905.75l151,11-104-155Z"/>
	<path class="cls-94" d="M967.61,2761.75l104,155,8-177Z"/>
	<path class="cls-94" d="M967.61,2761.75l112-22-102-119Z"/>
	<path class="cls-67" d="M977.61,2620.75l102,119,8-174Z"/>
	<path class="cls-69" d="M977.61,2620.75l110-55-80-161Z"/>
	<path class="cls-97" d="M1007.61,2404.75l80,161,24-112Z"/>
	<path class="cls-72" d="M1007.61,2404.75l104,49,17-201Z"/>
	<path class="cls-71" d="M1007.61,2404.75l121-152-123,46Z"/>
	<path class="cls-131" d="M1005.61,2298.75l123-46-179-81Z"/>
	<path class="cls-74" d="M949.61,2171.75l179,81,1-137Z"/>
	<path class="cls-143" d="M949.61,2171.75l180-56-66-172Z"/>
	<path class="cls-72" d="M949.61,2171.75l114-228-144-10Z"/>
	<path class="cls-74" d="M919.61,1933.75l144,10-81-100Z"/>
	<path class="cls-75" d="M982.61,1843.75l81,100,52-104Z"/>
	<path class="cls-156" d="M982.61,1843.75l133-4-129-188Z"/>
	<path class="cls-126" d="M986.61,1651.75l129,188,12-212Z"/>
	<path class="cls-123" d="M986.61,1651.75l141-24-183-52Z"/>
	<path class="cls-127" d="M944.61,1575.75l183,52,31-66Z"/>
	<path class="cls-127" d="M944.61,1575.75l214-14-100-182Z"/>
	<path class="cls-126" d="M944.61,1575.75l114-196-115-34Z"/>
	<path class="cls-127" d="M943.61,1345.75l115,34-130-195Z"/>
	<path class="cls-157" d="M928.61,1184.75l130,195,110-117Z"/>
	<path class="cls-158" d="M928.61,1184.75l240,78-26-208Z"/>
	<path class="cls-137" d="M928.61,1184.75l214-130-237,10Z"/>
	<path class="cls-136" d="M905.61,1064.75l237-10-161-100Z"/>
	<path class="cls-148" d="M981.61,954.75l161,100,9-78Z"/>
	<path class="cls-159" d="M981.61,954.75l170,22-78-224Z"/>
	<path class="cls-149" d="M981.61,954.75l92-202-148,63Z"/>
	<path class="cls-151" d="M925.61,815.75l148-63-66-83Z"/>
	<path class="cls-154" d="M1007.61,669.75l66,83,39-175Z"/>
	<path class="cls-160" d="M1007.61,669.75l105-92-183-87Z"/>
	<path class="cls-161" d="M929.61,490.75l183,87,19-125Z"/>
	<path class="cls-162" d="M929.61,490.75l202-38-173-169Z"/>
	<path class="cls-163" d="M958.61,283.75l173,169,27-159Z"/>
	<path class="cls-164" d="M958.61,283.75l200,10-144-89Z"/>
	<path class="cls-155" d="M1014.61,204.75l144,89-13-136Z"/>
	<path class="cls-165" d="M1014.61,204.75l131-47-75-121Z"/>
	<path class="cls-161" d="M1014.61,204.75l56-168-161,11Z"/>
	<path class="cls-49" d="M1168.61,4656.75l36,25,78-123Z"/>
	<path class="cls-47" d="M1168.61,4656.75l114-98-222-10Z"/>
	<path class="cls-48" d="M1060.61,4548.75l222,10-48-140Z"/>
	<path class="cls-26" d="M1060.61,4548.75l174-130-70-80Z"/>
	<path class="cls-91" d="M1164.61,4338.75l70,80,11-140Z"/>
	<path class="cls-129" d="M1164.61,4338.75l81-60-154-101Z"/>
	<path class="cls-52" d="M1091.61,4177.75l154,101-100-138Z"/>
	<path class="cls-51" d="M1091.61,4177.75l54-37-64-176Z"/>
	<path class="cls-56" d="M1145.61,4140.75l100,138-2-211Z"/>
	<path class="cls-141" d="M1145.61,4140.75l98-73-162-103Z"/>
	<path class="cls-119" d="M1081.61,3964.75l162,103,71-156Z"/>
	<path class="cls-118" d="M1081.61,3964.75l233-53-199-94Z"/>
	<path class="cls-59" d="M1115.61,3817.75l199,94-87-158Z"/>
	<path class="cls-58" d="M1115.61,3817.75l112-64-118-107Z"/>
	<path class="cls-59" d="M1109.61,3646.75l118,107-26-138Z"/>
	<path class="cls-59" d="M1109.61,3646.75l92-31-52-118Z"/>
	<path class="cls-106" d="M1149.61,3497.75l52,118,97-125Z"/>
	<path class="cls-65" d="M1149.61,3497.75l149-7-32-147Z"/>
	<path class="cls-142" d="M1149.61,3497.75l117-154-191-29Z"/>
	<path class="cls-93" d="M1075.61,3314.75l191,29-102-105Z"/>
	<path class="cls-94" d="M1164.61,3238.75l102,105-46-103Z"/>
	<path class="cls-94" d="M1164.61,3238.75l56,2-58-150Z"/>
	<path class="cls-95" d="M1162.61,3090.75l58,150-12-204Z"/>
	<path class="cls-95" d="M1162.61,3090.75l46-54-137-120Z"/>
	<path class="cls-68" d="M1071.61,2916.75l137,120,2-116Z"/>
	<path class="cls-67" d="M1071.61,2916.75l139,4-131-181Z"/>
	<path class="cls-97" d="M1079.61,2739.75l131,181,26-178Z"/>
	<path class="cls-131" d="M1079.61,2739.75l157,3-32-169Z"/>
	<path class="cls-97" d="M1079.61,2739.75l125-166-117-8Z"/>
	<path class="cls-72" d="M1087.61,2565.75l117,8-93-120Z"/>
	<path class="cls-143" d="M1111.61,2453.75l93,120,6-157Z"/>
	<path class="cls-112" d="M1111.61,2453.75l99-37-82-164Z"/>
	<path class="cls-156" d="M1128.61,2252.75l82,164,76-128Z"/>
	<path class="cls-126" d="M1128.61,2252.75l158,36,6-149Z"/>
	<path class="cls-144" d="M1128.61,2252.75l164-113-163-24Z"/>
	<path class="cls-124" d="M1129.61,2115.75l163,24-16-117Z"/>
	<path class="cls-125" d="M1129.61,2115.75l147-93-213-79Z"/>
	<path class="cls-166" d="M1063.61,1943.75l213,79-161-183Z"/>
	<path class="cls-167" d="M1115.61,1839.75l161,183,37-169Z"/>
	<path class="cls-128" d="M1115.61,1839.75l198,14-95-198Z"/>
	<path class="cls-134" d="M1115.61,1839.75l103-184-91-28Z"/>
	<path class="cls-138" d="M1127.61,1627.75l91,28-60-94Z"/>
	<path class="cls-139" d="M1158.61,1561.75l60,94,82-140Z"/>
	<path class="cls-140" d="M1158.61,1561.75l142-46-98-170Z"/>
	<path class="cls-168" d="M1158.61,1561.75l44-216-144,34Z"/>
	<path class="cls-136" d="M1058.61,1379.75l144-34-34-83Z"/>
	<path class="cls-151" d="M1168.61,1262.75l34,83,93-135Z"/>
	<path class="cls-169" d="M1168.61,1262.75l127-52-153-156Z"/>
	<path class="cls-160" d="M1142.61,1054.75l153,156-68-169Z"/>
	<path class="cls-170" d="M1142.61,1054.75l85-13-76-65Z"/>
	<path class="cls-171" d="M1151.61,976.75l76,65,83-147Z"/>
	<path class="cls-161" d="M1151.61,976.75l159-82-107-65Z"/>
	<path class="cls-154" d="M1151.61,976.75l52-147-130-77Z"/>
	<path class="cls-172" d="M1073.61,752.75l130,77,59-188Z"/>
	<path class="cls-172" d="M1073.61,752.75l189-111-150-64Z"/>
	<path class="cls-173" d="M1112.61,577.75l150,64,42-153Z"/>
	<path class="cls-174" d="M1112.61,577.75l192-89-173-36Z"/>
	<path class="cls-175" d="M1131.61,452.75l173,36-103-129Z"/>
	<path class="cls-176" d="M1131.61,452.75l70-93-43-66Z"/>
	<path class="cls-177" d="M1158.61,293.75l43,66,21-192Z"/>
	<path class="cls-175" d="M1158.61,293.75l64-126-77-10Z"/>
	<path class="cls-178" d="M1145.61,157.75l77,10,82-86Z"/>
	<path class="cls-179" d="M1145.61,157.75l159-76-234-45Z"/>
	<path class="cls-180" d="M1070.61,36.75l234,45,128-71Z"/>
	<path class="cls-141" d="M1204.61,4681.75l253-13-175-110Z"/>
	<path class="cls-120" d="M1282.61,4558.75l175,110-10-170Z"/>
	<path class="cls-57" d="M1282.61,4558.75l165-60-213-80Z"/>
	<path class="cls-105" d="M1234.61,4418.75l213,80-82-157Z"/>
	<path class="cls-57" d="M1234.61,4418.75l131-77-120-63Z"/>
	<path class="cls-105" d="M1245.61,4278.75l120,63-8-66Z"/>
	<path class="cls-58" d="M1245.61,4278.75l112-3-114-208Z"/>
	<path class="cls-61" d="M1243.61,4067.75l114,208,6-245Z"/>
	<path class="cls-55" d="M1243.61,4067.75l120-37-49-119Z"/>
	<path class="cls-65" d="M1314.61,3911.75l49,119,8-50Z"/>
	<path class="cls-121" d="M1314.61,3911.75l57,69,16-188Z"/>
	<path class="cls-63" d="M1314.61,3911.75l73-119-160-39Z"/>
	<path class="cls-106" d="M1227.61,3753.75l160,39-186-177Z"/>
	<path class="cls-66" d="M1201.61,3615.75l186,177,81-190Z"/>
	<path class="cls-95" d="M1201.61,3615.75l267-13-170-112Z"/>
	<path class="cls-110" d="M1298.61,3490.75l170,112-36-139Z"/>
	<path class="cls-130" d="M1298.61,3490.75l134-27-81-125Z"/>
	<path class="cls-67" d="M1298.61,3490.75l53-152-85,5Z"/>
	<path class="cls-66" d="M1266.61,3343.75l85-5-131-98Z"/>
	<path class="cls-70" d="M1220.61,3240.75l131,98,44-211Z"/>
	<path class="cls-109" d="M1220.61,3240.75l175-113-187-91Z"/>
	<path class="cls-74" d="M1208.61,3036.75l187,91,41-131Z"/>
	<path class="cls-131" d="M1208.61,3036.75l228-40-226-76Z"/>
	<path class="cls-113" d="M1210.61,2920.75l226,76,7-114Z"/>
	<path class="cls-74" d="M1210.61,2920.75l233-38-207-140Z"/>
	<path class="cls-123" d="M1236.61,2742.75l207,140-6-171Z"/>
	<path class="cls-126" d="M1236.61,2742.75l201-31-18-100Z"/>
	<path class="cls-111" d="M1236.61,2742.75l183-131-215-38Z"/>
	<path class="cls-124" d="M1204.61,2573.75l215,38,30-139Z"/>
	<path class="cls-144" d="M1204.61,2573.75l245-101-239-56Z"/>
	<path class="cls-124" d="M1210.61,2416.75l239,56-163-184Z"/>
	<path class="cls-135" d="M1286.61,2288.75l163,184,54-135Z"/>
	<path class="cls-168" d="M1286.61,2288.75l217,49-134-106Z"/>
	<path class="cls-145" d="M1286.61,2288.75l83-57-77-92Z"/>
	<path class="cls-135" d="M1292.61,2139.75l77,92,65-156Z"/>
	<path class="cls-158" d="M1292.61,2139.75l142-64-39-63Z"/>
	<path class="cls-137" d="M1292.61,2139.75l103-127-119,10Z"/>
	<path class="cls-139" d="M1276.61,2022.75l119-10-82-159Z"/>
	<path class="cls-181" d="M1313.61,1853.75l82,159,35-181Z"/>
	<path class="cls-159" d="M1313.61,1853.75l117-22-20-134Z"/>
	<path class="cls-76" d="M1313.61,1853.75l97-156-192-42Z"/>
	<path class="cls-182" d="M1218.61,1655.75l192,42-110-182Z"/>
	<path class="cls-183" d="M1300.61,1515.75l110,182-38-188Z"/>
	<path class="cls-170" d="M1300.61,1515.75l72-6,9-83Z"/>
	<path class="cls-159" d="M1300.61,1515.75l81-89-179-81Z"/>
	<path class="cls-183" d="M1202.61,1345.75l179,81-86-216Z"/>
	<path class="cls-161" d="M1295.61,1210.75l86,216,35-208Z"/>
	<path class="cls-184" d="M1295.61,1210.75l121,8,8-121Z"/>
	<path class="cls-185" d="M1295.61,1210.75l129-113-197-56Z"/>
	<path class="cls-184" d="M1227.61,1041.75l197,56-114-203Z"/>
	<path class="cls-176" d="M1310.61,894.75l114,203,12-187Z"/>
	<path class="cls-175" d="M1310.61,894.75l126,16-66-88Z"/>
	<path class="cls-163" d="M1310.61,894.75l60-72-167,7Z"/>
	<path class="cls-186" d="M1203.61,829.75l167-7-108-181Z"/>
	<path class="cls-187" d="M1262.61,641.75l108,181,75-235Z"/>
	<path class="cls-188" d="M1262.61,641.75l183-54-141-99Z"/>
	<path class="cls-189" d="M1304.61,488.75l141,99-76-140Z"/>
	<path class="cls-190" d="M1304.61,488.75l65-41-168-88Z"/>
	<path class="cls-189" d="M1201.61,359.75l168,88,77-86Z"/>
	<path class="cls-191" d="M1201.61,359.75l245,2-224-194Z"/>
	<path class="cls-192" d="M1222.61,167.75l224,194,8-169Z"/>
	<path class="cls-189" d="M1222.61,167.75l232,25-150-111Z"/>
	<path class="cls-193" d="M1304.61,81.75l150,111-22-182Z"/>
	<path class="cls-121" d="M1457.61,4668.75l118-83-128-87Z"/>
	<path class="cls-66" d="M1447.61,4498.75l128,87-21-142Z"/>
	<path class="cls-107" d="M1447.61,4498.75l107-55-189-102Z"/>
	<path class="cls-95" d="M1365.61,4341.75l189,102-34-162Z"/>
	<path class="cls-65" d="M1365.61,4341.75l155-60-163-6Z"/>
	<path class="cls-66" d="M1357.61,4275.75l163,6-2-194Z"/>
	<path class="cls-94" d="M1357.61,4275.75l161-188-155-57Z"/>
	<path class="cls-95" d="M1363.61,4030.75l155,57-147-107Z"/>
	<path class="cls-70" d="M1371.61,3980.75l147,107,35-124Z"/>
	<path class="cls-71" d="M1371.61,3980.75l182-17-29-120Z"/>
	<path class="cls-96" d="M1371.61,3980.75l153-137-137-51Z"/>
	<path class="cls-131" d="M1387.61,3792.75l137,51-56-241Z"/>
	<path class="cls-143" d="M1432.61,3463.75l94-157-175,32Z"/>
	<path class="cls-112" d="M1351.61,3338.75l175-32-131-179Z"/>
	<path class="cls-123" d="M1395.61,3127.75l131,179-4-170Z"/>
	<path class="cls-123" d="M1395.61,3127.75l127,9-86-140Z"/>
	<path class="cls-127" d="M1436.61,2996.75l69-61-62-53Z"/>
	<path class="cls-138" d="M1443.61,2882.75l62,53,63-175Z"/>
	<path class="cls-138" d="M1443.61,2882.75l125-122-131-49Z"/>
	<path class="cls-76" d="M1437.61,2711.75l131,49,38-182Z"/>
	<path class="cls-139" d="M1437.61,2711.75l169-133-187,33Z"/>
	<path class="cls-140" d="M1419.61,2611.75l187-33-157-106Z"/>
	<path class="cls-159" d="M1449.61,2472.75l157,106-20-199Z"/>
	<path class="cls-151" d="M1449.61,2472.75l137-93-83-42Z"/>
	<path class="cls-148" d="M1369.61,2231.75l134,106,30-204Z"/>
	<path class="cls-148" d="M1369.61,2231.75l164-98-99-58Z"/>
	<path class="cls-154" d="M1434.61,2075.75l99,58,45-142Z"/>
	<path class="cls-183" d="M1434.61,2075.75l144-84-183,21Z"/>
	<path class="cls-194" d="M1395.61,2012.75l183-21-49-128Z"/>
	<path class="cls-153" d="M1395.61,2012.75l134-149-99-32Z"/>
	<path class="cls-177" d="M1416.61,1218.75l131-109-123-12Z"/>
	<path class="cls-180" d="M1424.61,1097.75l123,12-28-176Z"/>
	<path class="cls-190" d="M1424.61,1097.75l95-164-83-23Z"/>
	<path class="cls-189" d="M1436.61,910.75l83,23-8-131Z"/>
	<path class="cls-180" d="M1436.61,910.75l75-108-141,20Z"/>
	<path class="cls-189" d="M1370.61,822.75l141-20-66-215Z"/>
</svg>