<svg xmlns="http://www.w3.org/2000/svg" viewbox="0 0 1572 1684" id="triangles">
	<style>
		* {
			fill: none;
			stroke: #111111;
		}
	</style>
	<path d="M8.65 1572.38l147-51-90-100z"></path>
	<path d="M8.65 1572.38l57-151-64-286zm57-151l90 100-13-110z"></path>
	<path d="M65.65 1421.38l77-10-59-100z"></path>
	<path d="M65.65 1421.38l18-110-82-176zm18-110l59 100 108-105z"></path>
	<path d="M83.65 1311.38l167-5-3-148z"></path>
	<path d="M83.65 1311.38l164-153-246-23z"></path>
	<path d="M1.65 1135.38l246 23-9-155z"></path>
	<path d="M1.65 1135.38l237-132-185-34z"></path>
	<path d="M1.65 1135.38l52-166-36-433zm52-166l185 34-6-163zm0 0l179-129-123-48zm0 0l56-177-92-256zm56-177l123 48-27-149zm0 0l96-101-129-85z"></path>
	<path d="M109.65 792.38l-33-186-59-70zm-33-186l129 85-16-168z"></path>
	<path d="M76.65 606.38l113-83-172 13z"></path>
	<path d="M17.65 536.38l172-13-176-206z"></path>
	<path d="M13.65 317.38l176 206 51-111z"></path>
	<path d="M13.65 317.38l227 95 7-227z"></path>
	<path d="M13.65 317.38l234-132-216 17z"></path>
	<path d="M31.65 202.38l216-17-30-77zm124 1319l221 161 17-151z"></path>
	<path d="M155.65 1521.38l238 10-7-101z"></path>
	<path d="M155.65 1521.38l231-91-244-19z"></path>
	<path d="M142.65 1411.38l244 19-136-124z"></path>
	<path d="M250.65 1306.38l136 124-50-157z"></path>
	<path d="M250.65 1306.38l86-33-89-115zm-3-148l89 115 14-184z"></path>
	<path d="M247.65 1158.38l103-69-112-86zm-9-155l112 86 37-112zm0 0l149-26-155-137zm-6-163l155 137 20-207zm0 0l175-70-202-79zm-27-149l202 79-43-135zm0 0l159-56-175-112zm-16-168l175 112-3-136zm0 0l172-24-121-87zm51-111l121 87 42-107zm0 0l163-20-156-207zm7-227l156 207-14-196zm0 0l142 11-172-88zm-30-77l172 88 13-182zm159 1574l182-74-165-77z"></path>
	<path d="M393.65 1531.38l165 77-54-225z"></path>
	<path d="M393.65 1531.38l111-148-118 47z"></path>
	<path d="M386.65 1430.38l118-47-21-105z"></path>
	<path d="M386.65 1430.38l97-152-147-5z"></path>
	<path d="M336.65 1273.38l147 5-11-180z"></path>
	<path d="M336.65 1273.38l136-175-122-9z"></path>
	<path d="M350.65 1089.38l122 9-85-121zm37-112l85 121 78-187zm0 0l163-66-93-132zm0 0l70-198-50-9zm20-207l50 9-93-144zm-43-135l93 144 91-129zm0 0l184 15-74-85zm0 0l110-70-113-66zm-3-136l113 66-71-173zm42-107l71 173-16-208zm0 0l55-35-69-161zm-14-196l69 161 40-118zm0 0l109 43 25-134zm0 0l134-91-121-91zm169 1412l81 65 27-162z"></path>
	<path d="M558.65 1608.38l108-97-3-43z"></path>
	<path d="M558.65 1608.38l105-140-159-85z"></path>
	<path d="M504.65 1383.38l159 85-21-169z"></path>
	<path d="M504.65 1383.38l138-84-159-21z"></path>
	<path d="M483.65 1278.38l159 21 16-134z"></path>
	<path d="M483.65 1278.38l175-113-186-67z"></path>
	<path d="M472.65 1098.38l186 67-108-254zm78-187l108 254 50-250zm0 0l158 4-83-100zm0 0l75-96-168-36zm-93-132l168 36-77-165zm91-129l77 165 13-203zm0 0l90-38-164-47zm-74-85l164 47 21-67zm0 0l185-20-19-188zm0 0l166-208h-182zm-16-208h182l-142-118zm40-118l142 118v-179zm0 0l142-61-117-73zm25-134l117 73-11-70zm116 1568l196-67-169-95z"></path>
	<path d="M666.65 1511.38l169 95-76-179z"></path>
	<path d="M666.65 1511.38l93-84-96 41z"></path>
	<path d="M663.65 1468.38l96-41-117-128z"></path>
	<path d="M642.65 1299.38l117 128-7-168z"></path>
	<path d="M642.65 1299.38l110-40-94-94z"></path>
	<path d="M658.65 1165.38l94 94 55-201z"></path>
	<path d="M658.65 1165.38l149-107-31-71z"></path>
	<path d="M658.65 1165.38l118-178-68-72zm50-250l68 72-27-161zm0 0l41-89-124-11zm-83-100l124 11 39-119zm0 0l163-108-150-95zm13-203l150 95-129-162zm21-67l129 162 21-250zm0 0l150-88-38-77zm0 0l112-165-131-23zm-19-188l131 23-7-145zm0 0l124-122-124-57v179zm0-179l124 57-135-127zm-11-70l135 127 89-168zm206 1498l106-11-182-168z"></path>
	<path d="M759.65 1427.38l182 168-30-238z"></path>
	<path d="M759.65 1427.38l152-70-159-98z"></path>
	<path d="M752.65 1259.38l159 98 63-90z"></path>
	<path d="M752.65 1259.38l222 8-167-209z"></path>
	<path d="M807.65 1058.38l167 209 4-192z"></path>
	<path d="M807.65 1058.38l171 17-42-76z"></path>
	<path d="M807.65 1058.38l129-59-160-12zm-31-71l160 12-187-173zm-27-161l187 173-1-230zm0 0l186-57-147-62zm39-119l147 62-15-161zm0 0l132-99-111-151zm21-250l111 151-23-120zm0 0l88 31 76-110zm0 0l164-79-202 2zm-38-77l202-2-56-139zm0 0l146-141-153-4zm-7-145l153 4-64-172zm89-168l64 172 82-146zm88 1528l179 81 1-137z"></path>
	<path d="M941.65 1595.38l180-56-66-172z"></path>
	<path d="M941.65 1595.38l114-228-144-10z"></path>
	<path d="M911.65 1357.38l144 10-81-100z"></path>
	<path d="M974.65 1267.38l81 100 52-104z"></path>
	<path d="M974.65 1267.38l133-4-129-188z"></path>
	<path d="M978.65 1075.38l129 188 12-212z"></path>
	<path d="M978.65 1075.38l141-24-183-52zm-42-76l183 52 31-66zm0 0l214-14-100-182zm0 0l114-196-115-34zm-1-230l115 34-130-195z"></path>
	<path d="M920.65 608.38l130 195 110-117z"></path>
	<path d="M920.65 608.38l240 78-26-208z"></path>
	<path d="M920.65 608.38l214-130-237 10zm-23-120l237-10-161-100z"></path>
	<path d="M973.65 378.38l161 100 9-78z"></path>
	<path d="M973.65 378.38l170 22-78-224z"></path>
	<path d="M973.65 378.38l92-202-148 63zm-56-139l148-63-66-83z"></path>
	<path d="M999.65 93.38l66 83 39-175zm121 1583l164-113-163-24z"></path>
	<path d="M1121.65 1539.38l163 24-16-117z"></path>
	<path d="M1121.65 1539.38l147-93-213-79z"></path>
	<path d="M1055.65 1367.38l213 79-161-183z"></path>
	<path d="M1107.65 1263.38l161 183 37-169z"></path>
	<path d="M1107.65 1263.38l198 14-95-198z"></path>
	<path d="M1107.65 1263.38l103-184-91-28z"></path>
	<path d="M1119.65 1051.38l91 28-60-94zm31-66l60 94 82-140zm0 0l142-46-98-170zm0 0l44-216-144 34zm-100-182l144-34-34-83zm110-117l34 83 93-135zm0 0l127-52-153-156zm-26-208l153 156-68-169zm0 0l85-13-76-65zm9-78l76 65 83-147zm0 0l159-82-107-65zm0 0l52-147-130-77zm-78-224l130 77 59-188zm0 0l189-111-150-64zm219 1387l77 92 65-156z"></path>
	<path d="M1284.65 1563.38l142-64-39-63z"></path>
	<path d="M1284.65 1563.38l103-127-119 10z"></path>
	<path d="M1268.65 1446.38l119-10-82-159z"></path>
	<path d="M1305.65 1277.38l82 159 35-181z"></path>
	<path d="M1305.65 1277.38l117-22-20-134z"></path>
	<path d="M1305.65 1277.38l97-156-192-42z"></path>
	<path d="M1210.65 1079.38l192 42-110-182zm82-140l110 182-38-188zm0 0l72-6 9-83zm0 0l81-89-179-81zm-98-170l179 81-86-216zm93-135l86 216 35-208zm0 0l121 8 8-121zm0 0l129-113-197-56zm-68-169l197 56-114-203zm83-147l114 203 12-187zm0 0l126 16-66-88zm0 0l60-72-167 7zm-107-65l167-7-108-181zm59-188l108 181 75-235zm107 1590l164-98-99-58z"></path>
	<path d="M1426.65 1499.38l99 58 45-142z"></path>
	<path d="M1426.65 1499.38l144-84-183 21z"></path>
	<path d="M1387.65 1436.38l183-21-49-128z"></path>
	<path d="M1387.65 1436.38l134-149-99-32zm21-794l131-109-123-12zm8-121l123 12-28-176zm0 0l95-164-83-23zm12-187l83 23-8-131zm0 0l75-108-141 20zm-66-88l141-20-66-215z"></path>
</svg>